G04*
G04 #@! TF.GenerationSoftware,Altium Limited,Altium Designer,19.1.5 (86)*
G04*
G04 Layer_Physical_Order=2*
G04 Layer_Color=16711680*
%FSLAX25Y25*%
%MOIN*%
G70*
G01*
G75*
%ADD53C,0.00800*%
%ADD54O,0.05937X0.11874*%
%ADD55C,0.06417*%
%ADD56R,0.10039X0.10039*%
%ADD57C,0.10039*%
%ADD58R,0.07284X0.07284*%
%ADD59C,0.07284*%
%ADD60O,0.07087X0.03543*%
%ADD61C,0.01968*%
%ADD62C,0.06000*%
%ADD63C,0.02362*%
%ADD64C,0.05000*%
G36*
X10000Y176171D02*
X23670D01*
X24158Y176142D01*
X24158Y175671D01*
Y166858D01*
X33442D01*
Y175671D01*
X33442Y176142D01*
X33930Y176171D01*
X46640D01*
X46740Y175671D01*
X46459Y175555D01*
X45489Y174811D01*
X44745Y173841D01*
X44278Y172712D01*
X44118Y171500D01*
X44278Y170288D01*
X44745Y169159D01*
X45489Y168190D01*
X46459Y167446D01*
X47588Y166978D01*
X48800Y166818D01*
X50012Y166978D01*
X51141Y167446D01*
X52110Y168190D01*
X52855Y169159D01*
X53322Y170288D01*
X53482Y171500D01*
X53322Y172712D01*
X52855Y173841D01*
X52110Y174811D01*
X51141Y175555D01*
X50860Y175671D01*
X50960Y176171D01*
X246100D01*
X246166Y176184D01*
X248017Y175816D01*
X248630Y175562D01*
X248563Y175048D01*
X247511Y174910D01*
X246310Y174413D01*
X245279Y173621D01*
X244488Y172590D01*
X243990Y171389D01*
X243820Y170100D01*
X243990Y168811D01*
X244488Y167610D01*
X245279Y166579D01*
X246310Y165787D01*
X247511Y165290D01*
X248800Y165120D01*
X250089Y165290D01*
X251290Y165787D01*
X252321Y166579D01*
X253113Y167610D01*
X253610Y168811D01*
X253780Y170100D01*
X254273Y170187D01*
X254716Y169117D01*
X255084Y167266D01*
X255071Y167200D01*
Y10400D01*
X255074Y10384D01*
X254716Y8583D01*
X253962Y6763D01*
X253927Y6712D01*
X253447Y6893D01*
X253580Y7900D01*
X253410Y9189D01*
X252912Y10390D01*
X252121Y11421D01*
X251090Y12212D01*
X249889Y12710D01*
X248600Y12880D01*
X247311Y12710D01*
X246110Y12212D01*
X245079Y11421D01*
X244287Y10390D01*
X243790Y9189D01*
X243620Y7900D01*
X243790Y6611D01*
X244287Y5410D01*
X245079Y4379D01*
X246110Y3588D01*
X247311Y3090D01*
X248600Y2920D01*
X249497Y3038D01*
X249627Y2551D01*
X248017Y1884D01*
X246085Y1500D01*
X9815D01*
X7883Y1884D01*
X6063Y2638D01*
X5923Y2732D01*
X6104Y3212D01*
X6800Y3120D01*
X8089Y3290D01*
X9290Y3788D01*
X10321Y4579D01*
X11112Y5610D01*
X11610Y6811D01*
X11780Y8100D01*
X11610Y9389D01*
X11112Y10590D01*
X10321Y11621D01*
X9290Y12412D01*
X8089Y12910D01*
X6800Y13080D01*
X5511Y12910D01*
X4310Y12412D01*
X3279Y11621D01*
X2488Y10590D01*
X1990Y9389D01*
X1846Y8293D01*
X1333Y8225D01*
X1184Y8583D01*
X826Y10384D01*
X829Y10400D01*
Y17690D01*
X913Y17815D01*
X1029Y18400D01*
Y167200D01*
X1016Y167266D01*
X1384Y169117D01*
X2138Y170937D01*
X3232Y172575D01*
X3345Y172687D01*
X3769Y172404D01*
X3390Y171489D01*
X3220Y170200D01*
X3390Y168911D01*
X3887Y167710D01*
X4679Y166679D01*
X5710Y165887D01*
X6911Y165390D01*
X8200Y165220D01*
X9489Y165390D01*
X10690Y165887D01*
X11721Y166679D01*
X12513Y167710D01*
X13010Y168911D01*
X13180Y170200D01*
X13010Y171489D01*
X12513Y172690D01*
X11721Y173721D01*
X10690Y174513D01*
X9489Y175010D01*
X8200Y175180D01*
X7693Y175113D01*
X7562Y175600D01*
X8083Y175816D01*
X9934Y176184D01*
X10000Y176171D01*
D02*
G37*
%LPC*%
G36*
X93547Y159949D02*
X92367Y159833D01*
X91233Y159488D01*
X90187Y158929D01*
X89270Y158177D01*
X88518Y157261D01*
X87959Y156215D01*
X87615Y155080D01*
X87498Y153900D01*
X87615Y152720D01*
X87959Y151585D01*
X88518Y150540D01*
X89270Y149623D01*
X90187Y148871D01*
X91233Y148312D01*
X92367Y147967D01*
X93547Y147851D01*
X94727Y147967D01*
X95862Y148312D01*
X96908Y148871D01*
X97824Y149623D01*
X98577Y150540D01*
X99136Y151585D01*
X99480Y152720D01*
X99596Y153900D01*
X99480Y155080D01*
X99136Y156215D01*
X98577Y157261D01*
X97824Y158177D01*
X96908Y158929D01*
X95862Y159488D01*
X94727Y159833D01*
X93547Y159949D01*
D02*
G37*
G36*
X163705Y141452D02*
X162606Y141307D01*
X161582Y140883D01*
X160703Y140209D01*
X160029Y139330D01*
X159604Y138306D01*
X159460Y137207D01*
X159604Y136108D01*
X160029Y135085D01*
X160703Y134205D01*
X161582Y133531D01*
X162606Y133107D01*
X163705Y132962D01*
X164803Y133107D01*
X165827Y133531D01*
X166706Y134205D01*
X167381Y135085D01*
X167805Y136108D01*
X167950Y137207D01*
X167805Y138306D01*
X167381Y139330D01*
X166706Y140209D01*
X165827Y140883D01*
X164803Y141307D01*
X163705Y141452D01*
D02*
G37*
G36*
X101342D02*
X100244Y141307D01*
X99220Y140883D01*
X98341Y140209D01*
X97666Y139330D01*
X97242Y138306D01*
X97097Y137207D01*
X97242Y136108D01*
X97666Y135085D01*
X98341Y134205D01*
X99220Y133531D01*
X100244Y133107D01*
X101342Y132962D01*
X102441Y133107D01*
X103465Y133531D01*
X104344Y134205D01*
X105019Y135085D01*
X105443Y136108D01*
X105587Y137207D01*
X105443Y138306D01*
X105019Y139330D01*
X104344Y140209D01*
X103465Y140883D01*
X102441Y141307D01*
X101342Y141452D01*
D02*
G37*
G36*
X183080Y161747D02*
X183080Y161747D01*
X103920D01*
X103373Y161638D01*
X102910Y161329D01*
X102910Y161329D01*
X101709Y160127D01*
X101399Y159664D01*
X101291Y159118D01*
X101291Y159118D01*
Y147282D01*
X101291Y147282D01*
X101399Y146736D01*
X101709Y146273D01*
X122573Y125409D01*
Y70527D01*
X122563Y70482D01*
X122532Y70392D01*
X122477Y70273D01*
X122394Y70128D01*
X122282Y69960D01*
X122148Y69782D01*
X121760Y69340D01*
X121567Y69144D01*
X121504Y69096D01*
X120943Y68365D01*
X120590Y67514D01*
X120470Y66600D01*
X120590Y65686D01*
X120843Y65077D01*
X120547Y64577D01*
X106542D01*
X102927Y68191D01*
Y77673D01*
X102937Y77718D01*
X102968Y77808D01*
X103023Y77927D01*
X103106Y78072D01*
X103218Y78240D01*
X103352Y78418D01*
X103740Y78860D01*
X103933Y79056D01*
X103996Y79104D01*
X104557Y79835D01*
X104910Y80686D01*
X104953Y81010D01*
X105426Y81171D01*
X107073Y79524D01*
Y76027D01*
X107063Y75982D01*
X107032Y75892D01*
X106977Y75773D01*
X106894Y75628D01*
X106782Y75460D01*
X106648Y75282D01*
X106260Y74840D01*
X106067Y74645D01*
X106004Y74596D01*
X105443Y73865D01*
X105090Y73014D01*
X104970Y72100D01*
X105090Y71186D01*
X105443Y70335D01*
X106004Y69604D01*
X106735Y69043D01*
X107586Y68690D01*
X108500Y68570D01*
X109414Y68690D01*
X110265Y69043D01*
X110996Y69604D01*
X111557Y70335D01*
X111910Y71186D01*
X112030Y72100D01*
X111910Y73014D01*
X111557Y73865D01*
X110996Y74596D01*
X110933Y74645D01*
X110740Y74840D01*
X110352Y75282D01*
X110218Y75460D01*
X110106Y75628D01*
X110023Y75773D01*
X109968Y75892D01*
X109937Y75982D01*
X109927Y76027D01*
Y80115D01*
X109927Y80115D01*
X109819Y80662D01*
X109509Y81125D01*
X109509Y81125D01*
X92325Y98309D01*
X91862Y98619D01*
X91315Y98727D01*
X91315Y98727D01*
X27700D01*
X27154Y98619D01*
X26691Y98309D01*
X26691Y98309D01*
X18864Y90483D01*
X18554Y90020D01*
X18446Y89473D01*
X18446Y89473D01*
Y65723D01*
X18436Y65678D01*
X18405Y65587D01*
X18349Y65466D01*
X18266Y65318D01*
X18154Y65148D01*
X18019Y64967D01*
X17633Y64518D01*
X17460Y64339D01*
X17404Y64296D01*
X16843Y63565D01*
X16490Y62714D01*
X16370Y61800D01*
X16490Y60886D01*
X16843Y60035D01*
X17404Y59304D01*
X18135Y58743D01*
X18986Y58390D01*
X19900Y58270D01*
X19979Y58280D01*
X20254Y58278D01*
X20840Y58240D01*
X21062Y58209D01*
X21259Y58170D01*
X21420Y58126D01*
X21543Y58080D01*
X21629Y58039D01*
X21667Y58014D01*
X71191Y8491D01*
X71191Y8491D01*
X71654Y8181D01*
X72200Y8073D01*
X72200Y8073D01*
X195700D01*
X195700Y8073D01*
X196246Y8181D01*
X196709Y8491D01*
X223791Y35573D01*
X225573D01*
X225618Y35563D01*
X225708Y35532D01*
X225827Y35477D01*
X225972Y35394D01*
X226140Y35282D01*
X226318Y35148D01*
X226760Y34760D01*
X226956Y34567D01*
X227004Y34504D01*
X227735Y33943D01*
X228586Y33590D01*
X229500Y33470D01*
X230414Y33590D01*
X231265Y33943D01*
X231996Y34504D01*
X232557Y35235D01*
X232910Y36086D01*
X233030Y37000D01*
X232910Y37914D01*
X232557Y38765D01*
X231996Y39496D01*
X231265Y40057D01*
X230414Y40410D01*
X229500Y40530D01*
X228586Y40410D01*
X227735Y40057D01*
X227004Y39496D01*
X226956Y39433D01*
X226760Y39240D01*
X226318Y38852D01*
X226140Y38718D01*
X225972Y38606D01*
X225827Y38523D01*
X225708Y38468D01*
X225618Y38437D01*
X225573Y38427D01*
X223200D01*
X222654Y38319D01*
X222191Y38009D01*
X222191Y38009D01*
X195109Y10927D01*
X186680D01*
X186459Y11376D01*
X186657Y11635D01*
X187010Y12486D01*
X187130Y13400D01*
X187010Y14314D01*
X186657Y15165D01*
X186096Y15896D01*
X185365Y16457D01*
X184514Y16810D01*
X183600Y16930D01*
X182686Y16810D01*
X181835Y16457D01*
X181104Y15896D01*
X181055Y15833D01*
X180860Y15640D01*
X180418Y15252D01*
X180240Y15118D01*
X180072Y15006D01*
X179927Y14923D01*
X179808Y14868D01*
X179718Y14837D01*
X179673Y14827D01*
X150791D01*
X131827Y33791D01*
Y42715D01*
X131719Y43262D01*
X131409Y43725D01*
X131409Y43725D01*
X128563Y46571D01*
X128541Y46606D01*
X128509Y46676D01*
X128476Y46777D01*
X128448Y46913D01*
X128427Y47082D01*
X128419Y47271D01*
X128446Y47801D01*
X128484Y48105D01*
X128478Y48201D01*
X128530Y48600D01*
X128493Y48881D01*
X128967Y49115D01*
X132929Y45153D01*
Y40729D01*
X132929Y40729D01*
X133037Y40182D01*
X133347Y39719D01*
X147975Y25091D01*
X147975Y25091D01*
X148438Y24781D01*
X148985Y24673D01*
X171000D01*
X171000Y24673D01*
X171546Y24781D01*
X172009Y25091D01*
X199109Y52191D01*
X199109Y52191D01*
X199419Y52654D01*
X199527Y53200D01*
X199527Y53200D01*
Y121773D01*
X199537Y121818D01*
X199568Y121908D01*
X199623Y122027D01*
X199706Y122172D01*
X199818Y122340D01*
X199952Y122518D01*
X200340Y122960D01*
X200533Y123155D01*
X200596Y123204D01*
X201157Y123935D01*
X201510Y124786D01*
X201630Y125700D01*
X201510Y126614D01*
X201157Y127465D01*
X200596Y128196D01*
X199865Y128757D01*
X199014Y129110D01*
X198100Y129230D01*
X197186Y129110D01*
X196335Y128757D01*
X195604Y128196D01*
X195043Y127465D01*
X194690Y126614D01*
X194570Y125700D01*
X194690Y124786D01*
X195043Y123935D01*
X195604Y123204D01*
X195667Y123155D01*
X195860Y122960D01*
X196248Y122518D01*
X196382Y122340D01*
X196494Y122172D01*
X196577Y122027D01*
X196632Y121908D01*
X196663Y121818D01*
X196673Y121773D01*
Y53791D01*
X171869Y28987D01*
X171526Y29136D01*
X171417Y29243D01*
X171530Y30100D01*
X171410Y31014D01*
X171057Y31865D01*
X170496Y32596D01*
X170433Y32645D01*
X170240Y32840D01*
X169852Y33282D01*
X169718Y33460D01*
X169606Y33628D01*
X169523Y33773D01*
X169468Y33892D01*
X169437Y33982D01*
X169427Y34027D01*
Y110628D01*
X169427Y110628D01*
X169319Y111175D01*
X169009Y111638D01*
X169009Y111638D01*
X131392Y149255D01*
X131343Y149316D01*
X131254Y149477D01*
X131152Y149733D01*
X131053Y150080D01*
X130963Y150513D01*
X130891Y151008D01*
X130769Y153043D01*
X130768Y153802D01*
X130777Y153900D01*
X130661Y155080D01*
X130317Y156215D01*
X129758Y157261D01*
X129006Y158177D01*
X128708Y158422D01*
X128876Y158892D01*
X165480D01*
Y147880D01*
X177520D01*
Y158892D01*
X182489D01*
X213814Y127568D01*
X213839Y127529D01*
X213880Y127443D01*
X213926Y127320D01*
X213970Y127159D01*
X214009Y126962D01*
X214040Y126740D01*
X214078Y126154D01*
X214080Y125879D01*
X214070Y125800D01*
X214190Y124886D01*
X214543Y124035D01*
X215104Y123304D01*
X215835Y122743D01*
X216686Y122390D01*
X217600Y122270D01*
X218514Y122390D01*
X219365Y122743D01*
X220096Y123304D01*
X220657Y124035D01*
X221010Y124886D01*
X221130Y125800D01*
X221010Y126714D01*
X220657Y127565D01*
X220096Y128296D01*
X219365Y128857D01*
X218514Y129210D01*
X217600Y129330D01*
X217521Y129320D01*
X217246Y129322D01*
X216660Y129360D01*
X216438Y129391D01*
X216241Y129430D01*
X216080Y129474D01*
X215957Y129520D01*
X215871Y129561D01*
X215832Y129586D01*
X184090Y161329D01*
X183627Y161638D01*
X183080Y161747D01*
D02*
G37*
G36*
X8040Y98488D02*
X4497D01*
X3773Y98392D01*
X3099Y98113D01*
X2520Y97669D01*
X2076Y97090D01*
X1797Y96416D01*
X1701Y95692D01*
X1797Y94969D01*
X2076Y94294D01*
X2520Y93715D01*
X3099Y93271D01*
X3773Y92992D01*
X4497Y92897D01*
X8040D01*
X8764Y92992D01*
X9438Y93271D01*
X10017Y93715D01*
X10461Y94294D01*
X10740Y94969D01*
X10836Y95692D01*
X10740Y96416D01*
X10461Y97090D01*
X10017Y97669D01*
X9438Y98113D01*
X8764Y98392D01*
X8040Y98488D01*
D02*
G37*
G36*
Y72503D02*
X4497D01*
X3773Y72408D01*
X3099Y72129D01*
X2520Y71685D01*
X2076Y71106D01*
X1797Y70431D01*
X1701Y69708D01*
X1797Y68984D01*
X2076Y68310D01*
X2520Y67731D01*
X3099Y67287D01*
X3773Y67008D01*
X4497Y66912D01*
X8040D01*
X8764Y67008D01*
X9438Y67287D01*
X10017Y67731D01*
X10461Y68310D01*
X10740Y68984D01*
X10836Y69708D01*
X10740Y70431D01*
X10461Y71106D01*
X10017Y71685D01*
X9438Y72129D01*
X8764Y72408D01*
X8040Y72503D01*
D02*
G37*
%LPD*%
G36*
X129749Y153012D02*
X129876Y150903D01*
X129959Y150336D01*
X130062Y149837D01*
X130186Y149405D01*
X130330Y149040D01*
X130494Y148744D01*
X130679Y148515D01*
X130113Y147949D01*
X129885Y148134D01*
X129588Y148299D01*
X129224Y148443D01*
X128792Y148566D01*
X128292Y148670D01*
X127725Y148752D01*
X126387Y148857D01*
X124778Y148881D01*
X129748Y153850D01*
X129749Y153012D01*
D02*
G37*
G36*
X114159D02*
X114285Y150903D01*
X114368Y150336D01*
X114471Y149837D01*
X114595Y149405D01*
X114739Y149040D01*
X114904Y148744D01*
X115088Y148515D01*
X114523Y147949D01*
X114294Y148134D01*
X113997Y148299D01*
X113633Y148443D01*
X113201Y148566D01*
X112702Y148670D01*
X112134Y148752D01*
X110797Y148857D01*
X109188Y148881D01*
X114157Y153850D01*
X114159Y153012D01*
D02*
G37*
G36*
X215212Y128773D02*
X215371Y128671D01*
X215557Y128580D01*
X215768Y128503D01*
X216005Y128438D01*
X216268Y128385D01*
X216556Y128345D01*
X217210Y128302D01*
X217575Y128300D01*
X215100Y125825D01*
X215098Y126190D01*
X215055Y126844D01*
X215015Y127132D01*
X214962Y127395D01*
X214897Y127631D01*
X214820Y127843D01*
X214729Y128029D01*
X214627Y128189D01*
X214511Y128323D01*
X215077Y128888D01*
X215212Y128773D01*
D02*
G37*
G36*
X199593Y123655D02*
X199162Y123162D01*
X198986Y122930D01*
X198837Y122707D01*
X198716Y122494D01*
X198621Y122290D01*
X198554Y122094D01*
X198513Y121909D01*
X198500Y121732D01*
X197700D01*
X197687Y121909D01*
X197646Y122094D01*
X197579Y122290D01*
X197484Y122494D01*
X197362Y122707D01*
X197214Y122930D01*
X197038Y123162D01*
X196607Y123655D01*
X196350Y123915D01*
X199850D01*
X199593Y123655D01*
D02*
G37*
G36*
X43512Y84159D02*
X43437Y84137D01*
X43387Y84102D01*
X43363Y84052D01*
X43364Y83988D01*
X43390Y83910D01*
X43442Y83818D01*
X43520Y83712D01*
X43623Y83592D01*
X43751Y83458D01*
X42680Y83398D01*
X42529Y83543D01*
X42242Y83786D01*
X42104Y83885D01*
X41971Y83969D01*
X41842Y84037D01*
X41717Y84091D01*
X41597Y84128D01*
X41481Y84151D01*
X41369Y84158D01*
X43613Y84166D01*
X43512Y84159D01*
D02*
G37*
G36*
X53493Y84221D02*
X53424Y84193D01*
X53379Y84153D01*
X53358Y84099D01*
X53362Y84032D01*
X53390Y83952D01*
X53443Y83860D01*
X53520Y83754D01*
X53622Y83636D01*
X53747Y83504D01*
X52744Y83376D01*
X52599Y83515D01*
X52323Y83747D01*
X52192Y83840D01*
X52065Y83917D01*
X51943Y83979D01*
X51825Y84025D01*
X51712Y84056D01*
X51603Y84071D01*
X51498Y84071D01*
X53586Y84236D01*
X53493Y84221D01*
D02*
G37*
G36*
X102994Y79555D02*
X102561Y79062D01*
X102386Y78830D01*
X102237Y78607D01*
X102116Y78394D01*
X102022Y78189D01*
X101954Y77994D01*
X101913Y77809D01*
X101900Y77632D01*
X101100D01*
X101086Y77809D01*
X101046Y77994D01*
X100979Y78189D01*
X100884Y78394D01*
X100762Y78607D01*
X100614Y78830D01*
X100438Y79062D01*
X100006Y79555D01*
X99750Y79815D01*
X103250D01*
X102994Y79555D01*
D02*
G37*
G36*
X108914Y75891D02*
X108954Y75706D01*
X109021Y75511D01*
X109116Y75306D01*
X109238Y75093D01*
X109386Y74870D01*
X109562Y74638D01*
X109994Y74145D01*
X110250Y73885D01*
X106750D01*
X107007Y74145D01*
X107439Y74638D01*
X107614Y74870D01*
X107763Y75093D01*
X107884Y75306D01*
X107978Y75511D01*
X108046Y75706D01*
X108087Y75891D01*
X108100Y76068D01*
X108900D01*
X108914Y75891D01*
D02*
G37*
G36*
X124414Y70391D02*
X124454Y70206D01*
X124522Y70011D01*
X124616Y69806D01*
X124738Y69593D01*
X124886Y69370D01*
X125062Y69138D01*
X125494Y68645D01*
X125750Y68385D01*
X122250D01*
X122506Y68645D01*
X122939Y69138D01*
X123114Y69370D01*
X123263Y69593D01*
X123384Y69806D01*
X123478Y70011D01*
X123546Y70206D01*
X123586Y70391D01*
X123600Y70568D01*
X124400D01*
X124414Y70391D01*
D02*
G37*
G36*
X20287Y65595D02*
X20327Y65408D01*
X20395Y65213D01*
X20490Y65010D01*
X20613Y64797D01*
X20762Y64576D01*
X20938Y64346D01*
X21373Y63860D01*
X21631Y63604D01*
X18131Y63566D01*
X18386Y63830D01*
X18815Y64329D01*
X18990Y64563D01*
X19138Y64788D01*
X19259Y65003D01*
X19352Y65207D01*
X19420Y65403D01*
X19460Y65588D01*
X19473Y65763D01*
X20273Y65772D01*
X20287Y65595D01*
D02*
G37*
G36*
X22402Y61410D02*
X22445Y60756D01*
X22485Y60468D01*
X22538Y60205D01*
X22603Y59968D01*
X22680Y59757D01*
X22771Y59571D01*
X22873Y59412D01*
X22988Y59277D01*
X22423Y58711D01*
X22288Y58827D01*
X22129Y58930D01*
X21943Y59020D01*
X21732Y59097D01*
X21495Y59162D01*
X21232Y59215D01*
X20944Y59255D01*
X20290Y59298D01*
X19925Y59300D01*
X22400Y61775D01*
X22402Y61410D01*
D02*
G37*
G36*
X127502Y54710D02*
X127545Y54056D01*
X127585Y53768D01*
X127638Y53505D01*
X127703Y53268D01*
X127780Y53057D01*
X127871Y52872D01*
X127973Y52711D01*
X128088Y52577D01*
X127523Y52012D01*
X127389Y52127D01*
X127228Y52229D01*
X127043Y52320D01*
X126831Y52397D01*
X126595Y52462D01*
X126332Y52515D01*
X126044Y52555D01*
X125390Y52598D01*
X125025Y52600D01*
X127500Y55075D01*
X127502Y54710D01*
D02*
G37*
G36*
X134729Y55353D02*
Y48044D01*
X134266Y47852D01*
X128786Y53333D01*
X128761Y53371D01*
X128720Y53457D01*
X128674Y53580D01*
X128630Y53741D01*
X128591Y53938D01*
X128560Y54160D01*
X128522Y54746D01*
X128520Y55021D01*
X128530Y55100D01*
X128410Y56014D01*
X128057Y56865D01*
X127496Y57596D01*
X127081Y57915D01*
X127251Y58415D01*
X131667D01*
X134729Y55353D01*
D02*
G37*
G36*
X127430Y47891D02*
X127399Y47275D01*
X127410Y46999D01*
X127441Y46746D01*
X127490Y46515D01*
X127557Y46306D01*
X127642Y46120D01*
X127746Y45955D01*
X127868Y45813D01*
X127224Y45326D01*
X127101Y45431D01*
X126950Y45530D01*
X126769Y45623D01*
X126559Y45711D01*
X126320Y45793D01*
X126051Y45870D01*
X125425Y46006D01*
X124682Y46120D01*
X127473Y48233D01*
X127430Y47891D01*
D02*
G37*
G36*
X106215Y37850D02*
X105955Y38107D01*
X105462Y38539D01*
X105230Y38714D01*
X105007Y38862D01*
X104794Y38984D01*
X104589Y39079D01*
X104394Y39146D01*
X104209Y39186D01*
X104032Y39200D01*
Y40000D01*
X104209Y40014D01*
X104394Y40054D01*
X104589Y40121D01*
X104794Y40216D01*
X105007Y40337D01*
X105230Y40486D01*
X105462Y40661D01*
X105955Y41094D01*
X106215Y41350D01*
Y37850D01*
D02*
G37*
G36*
X115475Y37100D02*
X115110Y37098D01*
X114456Y37055D01*
X114168Y37015D01*
X113905Y36962D01*
X113669Y36897D01*
X113457Y36820D01*
X113271Y36729D01*
X113111Y36627D01*
X112977Y36511D01*
X112411Y37077D01*
X112527Y37211D01*
X112629Y37372D01*
X112720Y37557D01*
X112797Y37769D01*
X112862Y38005D01*
X112915Y38268D01*
X112955Y38556D01*
X112998Y39210D01*
X113000Y39575D01*
X115475Y37100D01*
D02*
G37*
G36*
X101071Y85526D02*
X100910Y85053D01*
X100586Y85010D01*
X99735Y84657D01*
X99004Y84096D01*
X98443Y83365D01*
X98090Y82514D01*
X97970Y81600D01*
X98090Y80686D01*
X98443Y79835D01*
X99004Y79104D01*
X99067Y79056D01*
X99260Y78860D01*
X99648Y78418D01*
X99782Y78240D01*
X99894Y78072D01*
X99977Y77927D01*
X100032Y77808D01*
X100063Y77718D01*
X100073Y77673D01*
Y67600D01*
X100073Y67600D01*
X100181Y67054D01*
X100491Y66591D01*
X104941Y62140D01*
X104941Y62140D01*
X105404Y61831D01*
X105950Y61722D01*
X105950Y61722D01*
X106032D01*
X106402Y61222D01*
X106312Y60765D01*
X106465Y59991D01*
X106904Y59335D01*
X107560Y58896D01*
X107768Y58855D01*
Y58345D01*
X107560Y58304D01*
X106904Y57865D01*
X106465Y57209D01*
X106312Y56435D01*
X106465Y55660D01*
X106904Y55004D01*
X107560Y54566D01*
X108335Y54412D01*
X109109Y54566D01*
X109765Y55004D01*
X110204Y55660D01*
X110245Y55868D01*
X110755D01*
X110796Y55660D01*
X111235Y55004D01*
X111891Y54566D01*
X112665Y54412D01*
X113440Y54566D01*
X114096Y55004D01*
X114534Y55660D01*
X114689Y56435D01*
X114534Y57209D01*
X114096Y57865D01*
X113440Y58304D01*
X113232Y58345D01*
Y58855D01*
X113440Y58896D01*
X114096Y59335D01*
X114534Y59991D01*
X114689Y60765D01*
X114598Y61222D01*
X114968Y61722D01*
X121344D01*
X121375Y61691D01*
X121375Y61691D01*
X124056Y59010D01*
X124064Y58868D01*
X123950Y58467D01*
X123935Y58447D01*
X123235Y58157D01*
X122504Y57596D01*
X121943Y56865D01*
X121590Y56014D01*
X121470Y55100D01*
X121590Y54186D01*
X121943Y53335D01*
X122504Y52604D01*
X123103Y52144D01*
X123145Y51988D01*
Y51712D01*
X123103Y51556D01*
X122504Y51096D01*
X121943Y50365D01*
X121590Y49514D01*
X121470Y48600D01*
X121590Y47686D01*
X121943Y46835D01*
X122504Y46104D01*
X123235Y45543D01*
X124086Y45190D01*
X124443Y45143D01*
X124528Y45112D01*
X125239Y45003D01*
X125802Y44881D01*
X126014Y44820D01*
X126197Y44758D01*
X126338Y44699D01*
X126436Y44648D01*
X126473Y44623D01*
X128973Y42124D01*
Y33200D01*
X128973Y33200D01*
X129081Y32654D01*
X129391Y32191D01*
X149191Y12391D01*
X149191Y12391D01*
X149654Y12081D01*
X150200Y11973D01*
X150200Y11973D01*
X179673D01*
X179718Y11963D01*
X179808Y11932D01*
X179927Y11877D01*
X180072Y11794D01*
X180240Y11682D01*
X180418Y11548D01*
X180555Y11427D01*
X180367Y10927D01*
X72791D01*
X23686Y60032D01*
X23661Y60071D01*
X23620Y60157D01*
X23574Y60280D01*
X23530Y60441D01*
X23491Y60638D01*
X23460Y60860D01*
X23422Y61446D01*
X23420Y61721D01*
X23430Y61800D01*
X23310Y62714D01*
X22957Y63565D01*
X22396Y64296D01*
X22328Y64349D01*
X22113Y64562D01*
X21724Y64997D01*
X21590Y65172D01*
X21478Y65337D01*
X21396Y65480D01*
X21341Y65597D01*
X21310Y65686D01*
X21301Y65731D01*
Y88882D01*
X28291Y95873D01*
X39177D01*
X39423Y95373D01*
X39012Y94837D01*
X38612Y93871D01*
X38476Y92835D01*
Y86898D01*
X38612Y85862D01*
X39012Y84897D01*
X39648Y84068D01*
X40477Y83432D01*
X40902Y83256D01*
X40918Y83243D01*
X40953Y83234D01*
X40982Y83215D01*
X41019Y83207D01*
X41443Y83032D01*
X41567Y83016D01*
X41613Y82982D01*
X41802Y82823D01*
X92034Y32591D01*
X92034Y32591D01*
X92497Y32281D01*
X93043Y32173D01*
X93043Y32173D01*
X109500D01*
X109500Y32173D01*
X110046Y32281D01*
X110509Y32591D01*
X113733Y35814D01*
X113771Y35839D01*
X113857Y35880D01*
X113980Y35925D01*
X114141Y35970D01*
X114338Y36009D01*
X114560Y36040D01*
X115146Y36078D01*
X115421Y36080D01*
X115500Y36070D01*
X116414Y36190D01*
X117265Y36543D01*
X117996Y37104D01*
X118557Y37835D01*
X118910Y38686D01*
X119030Y39600D01*
X118910Y40514D01*
X118557Y41365D01*
X117996Y42096D01*
X117265Y42657D01*
X116414Y43010D01*
X115500Y43130D01*
X114586Y43010D01*
X113735Y42657D01*
X113004Y42096D01*
X112443Y41365D01*
X112090Y40514D01*
X112002Y39846D01*
X111498D01*
X111410Y40514D01*
X111057Y41365D01*
X110496Y42096D01*
X109765Y42657D01*
X108914Y43010D01*
X108000Y43130D01*
X107086Y43010D01*
X106235Y42657D01*
X105504Y42096D01*
X105456Y42033D01*
X105260Y41840D01*
X104818Y41452D01*
X104640Y41318D01*
X104472Y41206D01*
X104327Y41123D01*
X104208Y41068D01*
X104118Y41037D01*
X104073Y41027D01*
X97677D01*
X55120Y83585D01*
X55152Y84068D01*
X55788Y84897D01*
X56188Y85862D01*
X56324Y86898D01*
Y92835D01*
X56188Y93871D01*
X55788Y94837D01*
X55377Y95373D01*
X55623Y95873D01*
X90724D01*
X101071Y85526D01*
D02*
G37*
G36*
X227715Y35250D02*
X227455Y35506D01*
X226962Y35939D01*
X226730Y36114D01*
X226507Y36263D01*
X226294Y36384D01*
X226090Y36478D01*
X225894Y36546D01*
X225709Y36586D01*
X225532Y36600D01*
Y37400D01*
X225709Y37413D01*
X225894Y37454D01*
X226090Y37521D01*
X226294Y37616D01*
X226507Y37738D01*
X226730Y37886D01*
X226962Y38061D01*
X227455Y38493D01*
X227715Y38750D01*
Y35250D01*
D02*
G37*
G36*
X49266Y95373D02*
X48855Y94837D01*
X48455Y93871D01*
X48318Y92835D01*
Y86898D01*
X48455Y85862D01*
X48855Y84897D01*
X49491Y84068D01*
X50320Y83432D01*
X51285Y83032D01*
X51634Y82986D01*
X51700Y82939D01*
X51875Y82793D01*
X95556Y39112D01*
X95567Y39054D01*
X95876Y38591D01*
X96340Y38281D01*
X96886Y38173D01*
X104073D01*
X104118Y38163D01*
X104208Y38132D01*
X104327Y38077D01*
X104472Y37994D01*
X104640Y37882D01*
X104818Y37748D01*
X105260Y37360D01*
X105456Y37167D01*
X105504Y37104D01*
X106235Y36543D01*
X107086Y36190D01*
X108000Y36070D01*
X108914Y36190D01*
X109765Y36543D01*
X110012Y36131D01*
X108909Y35027D01*
X93635D01*
X45173Y83489D01*
X45205Y83988D01*
X45309Y84068D01*
X45945Y84897D01*
X46345Y85862D01*
X46481Y86898D01*
Y92835D01*
X46345Y93871D01*
X45945Y94837D01*
X45534Y95373D01*
X45781Y95873D01*
X49019D01*
X49266Y95373D01*
D02*
G37*
G36*
X147908Y35775D02*
X148059Y35676D01*
X148240Y35583D01*
X148450Y35494D01*
X148689Y35412D01*
X148958Y35334D01*
X149585Y35195D01*
X150329Y35078D01*
X147529Y32978D01*
X147573Y33319D01*
X147607Y33934D01*
X147596Y34209D01*
X147566Y34462D01*
X147518Y34692D01*
X147451Y34901D01*
X147365Y35088D01*
X147262Y35252D01*
X147139Y35395D01*
X147787Y35879D01*
X147908Y35775D01*
D02*
G37*
G36*
X168413Y33891D02*
X168454Y33706D01*
X168521Y33511D01*
X168616Y33306D01*
X168737Y33093D01*
X168886Y32870D01*
X169062Y32638D01*
X169493Y32145D01*
X169750Y31885D01*
X166250D01*
X166507Y32145D01*
X166938Y32638D01*
X167114Y32870D01*
X167262Y33093D01*
X167384Y33306D01*
X167479Y33511D01*
X167546Y33706D01*
X167587Y33891D01*
X167600Y34068D01*
X168400D01*
X168413Y33891D01*
D02*
G37*
G36*
X160414D02*
X160454Y33706D01*
X160521Y33511D01*
X160616Y33306D01*
X160738Y33093D01*
X160886Y32870D01*
X161062Y32638D01*
X161494Y32145D01*
X161750Y31885D01*
X158250D01*
X158507Y32145D01*
X158939Y32638D01*
X159114Y32870D01*
X159263Y33093D01*
X159384Y33306D01*
X159478Y33511D01*
X159546Y33706D01*
X159587Y33891D01*
X159600Y34068D01*
X160400D01*
X160414Y33891D01*
D02*
G37*
G36*
X146444Y34637D02*
X146467Y34602D01*
X146498Y34532D01*
X146530Y34432D01*
X146559Y34297D01*
X146578Y34129D01*
X146586Y33941D01*
X146557Y33413D01*
X146518Y33110D01*
X146524Y33014D01*
X146470Y32600D01*
X146590Y31686D01*
X146943Y30835D01*
X146536Y30567D01*
X135783Y41320D01*
Y44645D01*
X136245Y44836D01*
X146444Y34637D01*
D02*
G37*
G36*
X104861Y149623D02*
X105777Y148871D01*
X106823Y148312D01*
X107958Y147967D01*
X109138Y147851D01*
X109230Y147860D01*
X110749Y147838D01*
X112021Y147739D01*
X112525Y147665D01*
X112957Y147575D01*
X113305Y147476D01*
X113561Y147375D01*
X113722Y147285D01*
X113782Y147237D01*
X158573Y102446D01*
Y34027D01*
X158563Y33982D01*
X158532Y33892D01*
X158477Y33773D01*
X158394Y33628D01*
X158282Y33460D01*
X158148Y33282D01*
X157760Y32840D01*
X157567Y32645D01*
X157504Y32596D01*
X156943Y31865D01*
X156590Y31014D01*
X156470Y30100D01*
X156590Y29186D01*
X156943Y28335D01*
X157179Y28027D01*
X156932Y27527D01*
X149576D01*
X147967Y29136D01*
X148235Y29543D01*
X149086Y29190D01*
X150000Y29070D01*
X150914Y29190D01*
X151765Y29543D01*
X152496Y30104D01*
X153057Y30835D01*
X153410Y31686D01*
X153530Y32600D01*
X153410Y33514D01*
X153057Y34365D01*
X152496Y35096D01*
X151765Y35657D01*
X150914Y36010D01*
X150570Y36055D01*
X150487Y36085D01*
X149775Y36198D01*
X149210Y36323D01*
X148997Y36384D01*
X148814Y36447D01*
X148672Y36507D01*
X148574Y36558D01*
X148536Y36582D01*
X137583Y47535D01*
Y55944D01*
X137583Y55944D01*
X137475Y56490D01*
X137165Y56953D01*
X137165Y56954D01*
X133267Y60852D01*
X132804Y61161D01*
X132258Y61270D01*
X132258Y61270D01*
X125833D01*
X124429Y62674D01*
X124590Y63147D01*
X124914Y63190D01*
X125765Y63543D01*
X126496Y64104D01*
X127057Y64835D01*
X127410Y65686D01*
X127530Y66600D01*
X127410Y67514D01*
X127057Y68365D01*
X126496Y69096D01*
X126433Y69144D01*
X126240Y69340D01*
X125852Y69782D01*
X125718Y69960D01*
X125606Y70128D01*
X125523Y70273D01*
X125468Y70392D01*
X125437Y70482D01*
X125427Y70527D01*
Y126000D01*
X125427Y126000D01*
X125319Y126546D01*
X125009Y127009D01*
X125009Y127009D01*
X104146Y147873D01*
Y149752D01*
X104616Y149921D01*
X104861Y149623D01*
D02*
G37*
G36*
X120749Y158422D02*
X120451Y158177D01*
X119699Y157261D01*
X119140Y156215D01*
X118796Y155080D01*
X118679Y153900D01*
X118796Y152720D01*
X119140Y151585D01*
X119699Y150540D01*
X120451Y149623D01*
X121368Y148871D01*
X122414Y148312D01*
X123548Y147967D01*
X124728Y147851D01*
X124820Y147860D01*
X126340Y147838D01*
X127611Y147739D01*
X128115Y147665D01*
X128548Y147575D01*
X128895Y147476D01*
X129151Y147375D01*
X129313Y147285D01*
X129373Y147237D01*
X166573Y110037D01*
Y34027D01*
X166563Y33982D01*
X166532Y33892D01*
X166477Y33773D01*
X166394Y33628D01*
X166282Y33460D01*
X166148Y33282D01*
X165760Y32840D01*
X165567Y32645D01*
X165504Y32596D01*
X164943Y31865D01*
X164590Y31014D01*
X164470Y30100D01*
X164590Y29186D01*
X164943Y28335D01*
X165179Y28027D01*
X164932Y27527D01*
X163068D01*
X162821Y28027D01*
X163057Y28335D01*
X163410Y29186D01*
X163530Y30100D01*
X163410Y31014D01*
X163057Y31865D01*
X162496Y32596D01*
X162433Y32645D01*
X162240Y32840D01*
X161852Y33282D01*
X161718Y33460D01*
X161606Y33628D01*
X161523Y33773D01*
X161468Y33892D01*
X161437Y33982D01*
X161427Y34027D01*
Y103038D01*
X161427Y103038D01*
X161319Y103584D01*
X161009Y104047D01*
X161009Y104047D01*
X115801Y149255D01*
X115752Y149316D01*
X115663Y149477D01*
X115562Y149733D01*
X115462Y150080D01*
X115373Y150513D01*
X115301Y151008D01*
X115178Y153043D01*
X115177Y153802D01*
X115187Y153900D01*
X115070Y155080D01*
X114726Y156215D01*
X114167Y157261D01*
X113415Y158177D01*
X113117Y158422D01*
X113286Y158892D01*
X120580D01*
X120749Y158422D01*
D02*
G37*
G36*
X181815Y11650D02*
X181555Y11907D01*
X181062Y12338D01*
X180830Y12514D01*
X180607Y12663D01*
X180394Y12784D01*
X180190Y12878D01*
X179994Y12946D01*
X179809Y12987D01*
X179632Y13000D01*
Y13800D01*
X179809Y13814D01*
X179994Y13854D01*
X180190Y13922D01*
X180394Y14016D01*
X180607Y14138D01*
X180830Y14286D01*
X181062Y14461D01*
X181555Y14894D01*
X181815Y15150D01*
Y11650D01*
D02*
G37*
D53*
X124728Y153900D02*
X168000Y110628D01*
Y30100D02*
Y110628D01*
X195700Y9500D02*
X223200Y37000D01*
X72200Y9500D02*
X195700D01*
X19900Y61800D02*
X72200Y9500D01*
X130400Y33200D02*
X150200Y13400D01*
X183600D01*
X130400Y33200D02*
Y42715D01*
X125000Y48115D02*
X130400Y42715D01*
X125000Y48115D02*
Y48600D01*
X124000Y66600D02*
Y126000D01*
X102718Y147282D02*
X124000Y126000D01*
X102718Y147282D02*
Y159118D01*
X103920Y160320D01*
X183080D01*
X217600Y125800D01*
X223200Y37000D02*
X229500D01*
X19873Y61600D02*
Y89473D01*
X160000Y30100D02*
Y103038D01*
X109138Y153900D02*
X160000Y103038D01*
X108500Y72100D02*
Y80115D01*
X91315Y97300D02*
X108500Y80115D01*
X27700Y97300D02*
X91315D01*
X19873Y89473D02*
X27700Y97300D01*
X171000Y26100D02*
X198100Y53200D01*
Y125700D01*
X42079Y84565D02*
X93043Y33600D01*
X42079Y84565D02*
Y87533D01*
X51821Y84865D02*
X96786Y39900D01*
X51821Y84865D02*
Y87833D01*
X150000Y32600D02*
Y33100D01*
X136156Y46944D02*
X150000Y33100D01*
X136156Y46944D02*
Y55944D01*
X134356Y40729D02*
X148985Y26100D01*
X134356Y40729D02*
Y45744D01*
X148985Y26100D02*
X171000D01*
X125000Y55100D02*
X134356Y45744D01*
X101500Y67600D02*
X105950Y63150D01*
X121935D01*
X122385Y62700D02*
Y62700D01*
X121935Y63150D02*
X122385Y62700D01*
Y62700D02*
X125242Y59842D01*
X132258D01*
X136156Y55944D01*
X101500Y67600D02*
Y81600D01*
X93043Y33600D02*
X109500D01*
X115500Y39600D01*
X96886D02*
X108000D01*
D54*
X52321Y89867D02*
D03*
X42479D02*
D03*
D55*
X163705Y137207D02*
D03*
X101342D02*
D03*
D56*
X171500Y153900D02*
D03*
D57*
X155909D02*
D03*
X140319D02*
D03*
X124728D02*
D03*
X109138D02*
D03*
X93547D02*
D03*
D58*
X28800Y171500D02*
D03*
D59*
X48800D02*
D03*
D60*
X6268Y69708D02*
D03*
Y95692D02*
D03*
D61*
Y69708D02*
D03*
Y95692D02*
D03*
X108335Y56435D02*
D03*
Y60765D02*
D03*
X112665Y56435D02*
D03*
Y60765D02*
D03*
D62*
X8200Y170200D02*
D03*
X248800Y170100D02*
D03*
X6800Y8100D02*
D03*
X248600Y7900D02*
D03*
D63*
X248425Y163431D02*
D03*
X242520Y151620D02*
D03*
X248425Y139809D02*
D03*
X242520Y127998D02*
D03*
X248425Y116186D02*
D03*
X242520Y104376D02*
D03*
X248425Y92564D02*
D03*
X242520Y57131D02*
D03*
Y33509D02*
D03*
Y9887D02*
D03*
X236614Y163431D02*
D03*
X230709Y151620D02*
D03*
X236614Y139809D02*
D03*
Y116186D02*
D03*
X230709Y104376D02*
D03*
X236614Y92564D02*
D03*
X230709Y80753D02*
D03*
X236614Y68942D02*
D03*
X230709Y57131D02*
D03*
X236614Y45320D02*
D03*
Y21698D02*
D03*
X218898Y151620D02*
D03*
X224803Y116186D02*
D03*
Y92564D02*
D03*
X218898Y80753D02*
D03*
X224803Y68942D02*
D03*
X218898Y57131D02*
D03*
X224803Y45320D02*
D03*
Y21698D02*
D03*
X218898Y9887D02*
D03*
X212992Y163431D02*
D03*
X207086Y151620D02*
D03*
X212992Y139809D02*
D03*
Y116186D02*
D03*
Y92564D02*
D03*
Y68942D02*
D03*
Y45320D02*
D03*
Y21698D02*
D03*
X207086Y9887D02*
D03*
X201181Y163431D02*
D03*
Y116186D02*
D03*
X195275Y104376D02*
D03*
X201181Y92564D02*
D03*
X195275Y80753D02*
D03*
Y57131D02*
D03*
Y33509D02*
D03*
X201181Y21698D02*
D03*
X189370Y163431D02*
D03*
X183465Y151620D02*
D03*
X189370Y139809D02*
D03*
X183465Y104376D02*
D03*
X189370Y92564D02*
D03*
X183465Y80753D02*
D03*
X189370Y68942D02*
D03*
X183465Y57131D02*
D03*
Y33509D02*
D03*
X189370Y21698D02*
D03*
X177559Y163431D02*
D03*
Y139809D02*
D03*
X171653Y127998D02*
D03*
X177559Y116186D02*
D03*
X171653Y104376D02*
D03*
X177559Y92564D02*
D03*
X171653Y80753D02*
D03*
Y57131D02*
D03*
X177559Y45320D02*
D03*
X171653Y33509D02*
D03*
X177559Y21698D02*
D03*
X165748Y163431D02*
D03*
X159842Y127998D02*
D03*
X165748Y21698D02*
D03*
X148031Y151620D02*
D03*
X153937Y139809D02*
D03*
Y116186D02*
D03*
X148031Y80753D02*
D03*
X153937Y68942D02*
D03*
X148031Y57131D02*
D03*
X153937Y21698D02*
D03*
X136220Y104376D02*
D03*
Y80753D02*
D03*
X142126Y68942D02*
D03*
X136220Y33509D02*
D03*
X130315Y139809D02*
D03*
Y116186D02*
D03*
Y92564D02*
D03*
Y21698D02*
D03*
X118504Y139809D02*
D03*
X112598Y127998D02*
D03*
X118504Y116186D02*
D03*
X112598Y104376D02*
D03*
X118504Y92564D02*
D03*
Y21698D02*
D03*
X100787Y127998D02*
D03*
X106693Y45320D02*
D03*
Y21698D02*
D03*
X94882Y139809D02*
D03*
X88976Y127998D02*
D03*
Y104376D02*
D03*
Y80753D02*
D03*
X94882Y68942D02*
D03*
X88976Y33509D02*
D03*
X83071Y163431D02*
D03*
X77165Y151620D02*
D03*
X83071Y139809D02*
D03*
X77165Y127998D02*
D03*
Y104376D02*
D03*
X83071Y92564D02*
D03*
Y68942D02*
D03*
X77165Y33509D02*
D03*
X83071Y21698D02*
D03*
X71260Y163431D02*
D03*
X65354Y127998D02*
D03*
Y104376D02*
D03*
X71260Y92564D02*
D03*
X65354Y80753D02*
D03*
X71260Y45320D02*
D03*
X65354Y33509D02*
D03*
X71260Y21698D02*
D03*
X65354Y9887D02*
D03*
X53543Y151620D02*
D03*
X59449Y139809D02*
D03*
X53543Y127998D02*
D03*
X59449Y116186D02*
D03*
X53543Y104376D02*
D03*
X59449Y92564D02*
D03*
Y45320D02*
D03*
X53543Y33509D02*
D03*
Y9887D02*
D03*
X47638Y163431D02*
D03*
Y139809D02*
D03*
Y116186D02*
D03*
X41732Y80753D02*
D03*
X47638Y68942D02*
D03*
X41732Y57131D02*
D03*
X47638Y45320D02*
D03*
X41732Y33509D02*
D03*
X47638Y21698D02*
D03*
X41732Y9887D02*
D03*
X29921Y151620D02*
D03*
X35827Y139809D02*
D03*
X29921Y127998D02*
D03*
X35827Y116186D02*
D03*
X29921Y104376D02*
D03*
Y57131D02*
D03*
Y33509D02*
D03*
X35827Y21698D02*
D03*
X29921Y9887D02*
D03*
X24016Y163431D02*
D03*
X18110Y151620D02*
D03*
X24016Y139809D02*
D03*
X18110Y127998D02*
D03*
X24016Y116186D02*
D03*
X18110Y104376D02*
D03*
X24016Y68942D02*
D03*
Y45320D02*
D03*
X18110Y33509D02*
D03*
X24016Y21698D02*
D03*
X18110Y9887D02*
D03*
X12205Y163431D02*
D03*
X6299Y151620D02*
D03*
X12205Y139809D02*
D03*
X6299Y127998D02*
D03*
X12205Y116186D02*
D03*
X6299Y104376D02*
D03*
Y57131D02*
D03*
X12205Y45320D02*
D03*
X6299Y33509D02*
D03*
X12205Y21698D02*
D03*
D64*
X183600Y13400D02*
D03*
X229500Y37000D02*
D03*
X19900Y61800D02*
D03*
X198100Y125700D02*
D03*
X217600Y125800D02*
D03*
X150000Y32600D02*
D03*
X124000Y66600D02*
D03*
X168000Y30100D02*
D03*
X160000D02*
D03*
X101500Y81600D02*
D03*
X108500Y72100D02*
D03*
X125000Y55100D02*
D03*
Y48600D02*
D03*
X108000Y39600D02*
D03*
X115500D02*
D03*
M02*
