G04*
G04 #@! TF.GenerationSoftware,Altium Limited,Altium Designer,19.1.5 (86)*
G04*
G04 Layer_Color=65535*
%FSLAX25Y25*%
%MOIN*%
G70*
G01*
G75*
%ADD10C,0.00787*%
%ADD11C,0.00984*%
%ADD12C,0.02362*%
%ADD13C,0.00500*%
%ADD14C,0.01000*%
D10*
X171894Y128979D02*
G03*
X171894Y128979I-394J0D01*
G01*
X20442Y90574D02*
G03*
X20442Y90574I-394J0D01*
G01*
X176925Y77813D02*
Y79387D01*
X180075Y77813D02*
Y79387D01*
X143925Y107201D02*
X147075D01*
X160525Y84101D02*
X163675D01*
X134125Y83801D02*
X137275D01*
X105425Y103399D02*
X108575D01*
X83425Y115599D02*
X86575D01*
X70825Y115299D02*
X73975D01*
X21950Y176500D02*
X55650D01*
Y166500D02*
Y176500D01*
X21950Y166500D02*
X55650D01*
X21950D02*
Y176500D01*
X213501Y158725D02*
Y161875D01*
X225725Y128313D02*
Y129887D01*
X228875Y128313D02*
Y129887D01*
X205725Y135099D02*
X208875D01*
X235925Y110599D02*
X239075D01*
X205425Y97950D02*
X208575D01*
X220625Y98001D02*
X223775D01*
X217813Y37775D02*
X219387D01*
X217813Y34625D02*
X219387D01*
X195325Y4101D02*
X198475D01*
X165925Y16449D02*
X169075D01*
X140025Y4301D02*
X143175D01*
X95001Y114325D02*
Y117475D01*
X32113Y50075D02*
X33687D01*
X32113Y46925D02*
X33687D01*
X124713Y27675D02*
X126287D01*
X124713Y24525D02*
X126287D01*
X101740Y64604D02*
Y67360D01*
X104496D01*
X101740Y49840D02*
Y52596D01*
Y49840D02*
X104496D01*
X116504D02*
X119260D01*
Y52596D01*
Y64604D02*
Y67360D01*
X116504D02*
X119260D01*
X206075Y38459D02*
Y40034D01*
X202925Y38459D02*
Y40034D01*
X206575Y72659D02*
Y74234D01*
X203425Y72659D02*
Y74234D01*
X239725Y80913D02*
Y82487D01*
X242875Y80913D02*
Y82487D01*
X176925Y59202D02*
X180075D01*
X95575Y37313D02*
Y38887D01*
X92425Y37313D02*
Y38887D01*
X137795Y46895D02*
Y71305D01*
X162205Y46895D02*
Y71305D01*
X137795Y46895D02*
X162205D01*
X137795Y71305D02*
X162205D01*
D11*
X20548Y171496D02*
G03*
X20548Y171496I-492J0D01*
G01*
X119161Y69919D02*
G03*
X119161Y69919I-492J0D01*
G01*
X163012Y75832D02*
G03*
X163012Y75832I-492J0D01*
G01*
D12*
X159449Y67368D02*
G03*
X159449Y67368I-1181J0D01*
G01*
D13*
X143917Y83210D02*
G03*
X143917Y83210I-339J0D01*
G01*
X186894Y132916D02*
Y175435D01*
X78154Y132916D02*
X186894D01*
X78154D02*
Y175435D01*
X186894D01*
X757Y67739D02*
X1938D01*
X757Y97661D02*
X1938D01*
X10599Y67739D02*
X12174D01*
X10599Y97661D02*
X12174D01*
X560Y67739D02*
Y97661D01*
D14*
X6700Y154198D02*
Y158196D01*
X8699Y160196D01*
X10699Y158196D01*
Y154198D01*
Y157197D01*
X6700D01*
X12698Y160196D02*
Y155197D01*
X13698Y154198D01*
X15697D01*
X16697Y155197D01*
Y160196D01*
X18696D02*
Y156197D01*
X20696Y154198D01*
X22695Y156197D01*
Y160196D01*
X24694D02*
X26693D01*
X25694D01*
Y154198D01*
X24694D01*
X26693D01*
X33691Y159196D02*
X32692Y160196D01*
X30692D01*
X29693Y159196D01*
Y155197D01*
X30692Y154198D01*
X32692D01*
X33691Y155197D01*
X10699Y149598D02*
X9699Y150598D01*
X7700D01*
X6700Y149598D01*
Y148599D01*
X7700Y147599D01*
X9699D01*
X10699Y146599D01*
Y145600D01*
X9699Y144600D01*
X7700D01*
X6700Y145600D01*
X12698Y148599D02*
Y145600D01*
X13698Y144600D01*
X16697D01*
Y148599D01*
X18696Y144600D02*
Y148599D01*
X19696D01*
X20696Y147599D01*
Y144600D01*
Y147599D01*
X21695Y148599D01*
X22695Y147599D01*
Y144600D01*
X24694D02*
Y148599D01*
X25694D01*
X26693Y147599D01*
Y144600D01*
Y147599D01*
X27693Y148599D01*
X28693Y147599D01*
Y144600D01*
X33691D02*
X31692D01*
X30692Y145600D01*
Y147599D01*
X31692Y148599D01*
X33691D01*
X34691Y147599D01*
Y146599D01*
X30692D01*
X36690Y148599D02*
Y144600D01*
Y146599D01*
X37690Y147599D01*
X38690Y148599D01*
X39689D01*
X52685Y144600D02*
X48686D01*
X52685Y148599D01*
Y149598D01*
X51686Y150598D01*
X49686D01*
X48686Y149598D01*
X54685D02*
X55684Y150598D01*
X57683D01*
X58683Y149598D01*
Y145600D01*
X57683Y144600D01*
X55684D01*
X54685Y145600D01*
Y149598D01*
X60682Y144600D02*
X62682D01*
X61682D01*
Y150598D01*
X60682Y149598D01*
X65681Y145600D02*
X66681Y144600D01*
X68680D01*
X69680Y145600D01*
Y149598D01*
X68680Y150598D01*
X66681D01*
X65681Y149598D01*
Y148599D01*
X66681Y147599D01*
X69680D01*
X15200Y4300D02*
Y10298D01*
X17199Y8299D01*
X19199Y10298D01*
Y4300D01*
X21198D02*
X23197D01*
X22198D01*
Y8299D01*
X21198D01*
X28196Y2301D02*
X29195D01*
X30195Y3300D01*
Y8299D01*
X27196D01*
X26196Y7299D01*
Y5300D01*
X27196Y4300D01*
X30195D01*
X32195Y8299D02*
Y5300D01*
X33194Y4300D01*
X36193D01*
Y8299D01*
X41192Y4300D02*
X39192D01*
X38193Y5300D01*
Y7299D01*
X39192Y8299D01*
X41192D01*
X42191Y7299D01*
Y6299D01*
X38193D01*
X44191Y4300D02*
X46190D01*
X45190D01*
Y10298D01*
X44191D01*
X55187Y4300D02*
Y10298D01*
X57186Y8299D01*
X59186Y10298D01*
Y4300D01*
X62185Y8299D02*
X64184D01*
X65184Y7299D01*
Y4300D01*
X62185D01*
X61185Y5300D01*
X62185Y6299D01*
X65184D01*
X67183Y4300D02*
Y8299D01*
X70182D01*
X71182Y7299D01*
Y4300D01*
X75181Y2301D02*
X76180D01*
X77180Y3300D01*
Y8299D01*
X74181D01*
X73181Y7299D01*
Y5300D01*
X74181Y4300D01*
X77180D01*
X79179Y8299D02*
Y5300D01*
X80179Y4300D01*
X83178D01*
Y8299D01*
X88176Y4300D02*
X86177D01*
X85177Y5300D01*
Y7299D01*
X86177Y8299D01*
X88176D01*
X89176Y7299D01*
Y6299D01*
X85177D01*
X91175Y8299D02*
Y4300D01*
Y6299D01*
X92175Y7299D01*
X93175Y8299D01*
X94174D01*
X97174D02*
Y4300D01*
Y6299D01*
X98173Y7299D01*
X99173Y8299D01*
X100172D01*
X104171D02*
X106171D01*
X107170Y7299D01*
Y4300D01*
X104171D01*
X103172Y5300D01*
X104171Y6299D01*
X107170D01*
X16000Y13700D02*
Y17699D01*
X17999Y19698D01*
X19999Y17699D01*
Y13700D01*
Y16699D01*
X16000D01*
X21998Y13700D02*
Y17699D01*
X22998D01*
X23997Y16699D01*
Y13700D01*
Y16699D01*
X24997Y17699D01*
X25997Y16699D01*
Y13700D01*
X28996Y17699D02*
X30995D01*
X31995Y16699D01*
Y13700D01*
X28996D01*
X27996Y14700D01*
X28996Y15699D01*
X31995D01*
X33994Y13700D02*
Y17699D01*
X36993D01*
X37993Y16699D01*
Y13700D01*
X45990D02*
Y19698D01*
X49989Y13700D01*
Y19698D01*
X51988Y13700D02*
X53988D01*
X52988D01*
Y17699D01*
X51988D01*
X56987Y11701D02*
X57986D01*
X58986Y12700D01*
Y17699D01*
X62985Y11701D02*
X63985D01*
X64984Y12700D01*
Y17699D01*
X69982D02*
X71982D01*
X72982Y16699D01*
Y13700D01*
X69982D01*
X68983Y14700D01*
X69982Y15699D01*
X72982D01*
X74981Y17699D02*
Y13700D01*
Y15699D01*
X75981Y16699D01*
X76980Y17699D01*
X77980D01*
X35500Y98500D02*
Y104498D01*
X38499D01*
X39499Y103498D01*
Y101499D01*
X38499Y100499D01*
X35500D01*
X41498Y98500D02*
X43497D01*
X42498D01*
Y102499D01*
X41498D01*
X49496Y98500D02*
X47496D01*
X46496Y99500D01*
Y101499D01*
X47496Y102499D01*
X49496D01*
X50495Y101499D01*
Y100499D01*
X46496D01*
X52495Y102499D02*
X56493D01*
X52495Y98500D01*
X56493D01*
X59492D02*
X61492D01*
X62491Y99500D01*
Y101499D01*
X61492Y102499D01*
X59492D01*
X58493Y101499D01*
Y99500D01*
X59492Y98500D01*
X117819Y173398D02*
Y167400D01*
X120818D01*
X121818Y168400D01*
Y172398D01*
X120818Y173398D01*
X117819D01*
X127816D02*
X123817D01*
Y167400D01*
X127816D01*
X123817Y170399D02*
X125816D01*
X129815Y173398D02*
Y167400D01*
X132814D01*
X133814Y168400D01*
Y169399D01*
X132814Y170399D01*
X129815D01*
X132814D01*
X133814Y171399D01*
Y172398D01*
X132814Y173398D01*
X129815D01*
X135813D02*
Y168400D01*
X136813Y167400D01*
X138812D01*
X139812Y168400D01*
Y173398D01*
X145810Y172398D02*
X144810Y173398D01*
X142811D01*
X141811Y172398D01*
Y168400D01*
X142811Y167400D01*
X144810D01*
X145810Y168400D01*
Y170399D01*
X143810D01*
X124399Y78398D02*
X123399Y79398D01*
X121400D01*
X120400Y78398D01*
Y77399D01*
X121400Y76399D01*
X123399D01*
X124399Y75399D01*
Y74400D01*
X123399Y73400D01*
X121400D01*
X120400Y74400D01*
X126398Y79398D02*
X130397D01*
X128397D01*
Y73400D01*
X132396D02*
Y79398D01*
X134396Y77399D01*
X136395Y79398D01*
Y73400D01*
X62799Y172998D02*
X61799Y173998D01*
X59800D01*
X58800Y172998D01*
Y171999D01*
X59800Y170999D01*
X61799D01*
X62799Y169999D01*
Y169000D01*
X61799Y168000D01*
X59800D01*
X58800Y169000D01*
X64798Y168000D02*
X66797D01*
X65798D01*
Y173998D01*
X64798Y172998D01*
X89000Y17600D02*
X83002D01*
Y20599D01*
X84002Y21599D01*
X86001D01*
X87001Y20599D01*
Y17600D01*
Y19599D02*
X89000Y21599D01*
X83002Y33595D02*
Y29596D01*
X86001D01*
Y31596D01*
Y29596D01*
X89000D01*
X83002Y35594D02*
X89000D01*
Y38593D01*
X88000Y39593D01*
X87001D01*
X86001Y38593D01*
Y35594D01*
Y38593D01*
X85001Y39593D01*
X84002D01*
X83002Y38593D01*
Y35594D01*
X89000Y45591D02*
Y41592D01*
X85001Y45591D01*
X84002D01*
X83002Y44591D01*
Y42592D01*
X84002Y41592D01*
X89000Y47590D02*
X88000D01*
Y48590D01*
X89000D01*
Y47590D01*
X83002Y52589D02*
Y56587D01*
X84002D01*
X88000Y52589D01*
X89000D01*
X247100Y94000D02*
X253098D01*
Y91001D01*
X252098Y90001D01*
X250099D01*
X249099Y91001D01*
Y94000D01*
Y92001D02*
X247100Y90001D01*
X253098Y78005D02*
Y82004D01*
X250099D01*
Y80005D01*
Y82004D01*
X247100D01*
X253098Y76006D02*
X247100D01*
Y73007D01*
X248100Y72007D01*
X249099D01*
X250099Y73007D01*
Y76006D01*
Y73007D01*
X251099Y72007D01*
X252098D01*
X253098Y73007D01*
Y76006D01*
X247100Y66009D02*
Y70008D01*
X251099Y66009D01*
X252098D01*
X253098Y67009D01*
Y69008D01*
X252098Y70008D01*
X247100Y64010D02*
X248100D01*
Y63010D01*
X247100D01*
Y64010D01*
X253098Y55013D02*
X252098Y57012D01*
X250099Y59011D01*
X248100D01*
X247100Y58012D01*
Y56012D01*
X248100Y55013D01*
X249099D01*
X250099Y56012D01*
Y59011D01*
X197000Y80600D02*
Y86598D01*
X199999D01*
X200999Y85598D01*
Y83599D01*
X199999Y82599D01*
X197000D01*
X198999D02*
X200999Y80600D01*
X212995Y86598D02*
X208996D01*
Y83599D01*
X210996D01*
X208996D01*
Y80600D01*
X214994Y86598D02*
Y80600D01*
X217993D01*
X218993Y81600D01*
Y82599D01*
X217993Y83599D01*
X214994D01*
X217993D01*
X218993Y84599D01*
Y85598D01*
X217993Y86598D01*
X214994D01*
X224991Y80600D02*
X220992D01*
X224991Y84599D01*
Y85598D01*
X223991Y86598D01*
X221992D01*
X220992Y85598D01*
X226990Y80600D02*
Y81600D01*
X227990D01*
Y80600D01*
X226990D01*
X235987Y86598D02*
X231989D01*
Y83599D01*
X233988Y84599D01*
X234988D01*
X235987Y83599D01*
Y81600D01*
X234988Y80600D01*
X232988D01*
X231989Y81600D01*
X196700Y47400D02*
Y53398D01*
X199699D01*
X200699Y52398D01*
Y50399D01*
X199699Y49399D01*
X196700D01*
X198699D02*
X200699Y47400D01*
X212695Y53398D02*
X208696D01*
Y50399D01*
X210696D01*
X208696D01*
Y47400D01*
X214694Y53398D02*
Y47400D01*
X217693D01*
X218693Y48400D01*
Y49399D01*
X217693Y50399D01*
X214694D01*
X217693D01*
X218693Y51399D01*
Y52398D01*
X217693Y53398D01*
X214694D01*
X224691Y47400D02*
X220692D01*
X224691Y51399D01*
Y52398D01*
X223691Y53398D01*
X221692D01*
X220692Y52398D01*
X226690Y47400D02*
Y48400D01*
X227690D01*
Y47400D01*
X226690D01*
X234688D02*
Y53398D01*
X231689Y50399D01*
X235687D01*
X206900Y26200D02*
Y32198D01*
X209899D01*
X210899Y31198D01*
Y29199D01*
X209899Y28199D01*
X206900D01*
X208899D02*
X210899Y26200D01*
X222895Y32198D02*
X218896D01*
Y29199D01*
X220896D01*
X218896D01*
Y26200D01*
X224894Y32198D02*
Y26200D01*
X227893D01*
X228893Y27200D01*
Y28199D01*
X227893Y29199D01*
X224894D01*
X227893D01*
X228893Y30199D01*
Y31198D01*
X227893Y32198D01*
X224894D01*
X234891Y26200D02*
X230892D01*
X234891Y30199D01*
Y31198D01*
X233891Y32198D01*
X231892D01*
X230892Y31198D01*
X236890Y26200D02*
Y27200D01*
X237890D01*
Y26200D01*
X236890D01*
X241889Y31198D02*
X242888Y32198D01*
X244888D01*
X245887Y31198D01*
Y30199D01*
X244888Y29199D01*
X243888D01*
X244888D01*
X245887Y28199D01*
Y27200D01*
X244888Y26200D01*
X242888D01*
X241889Y27200D01*
X18500Y38500D02*
Y44498D01*
X21499D01*
X22499Y43498D01*
Y41499D01*
X21499Y40499D01*
X18500D01*
X20499D02*
X22499Y38500D01*
X34495Y44498D02*
X30496D01*
Y41499D01*
X32495D01*
X30496D01*
Y38500D01*
X36494Y44498D02*
Y38500D01*
X39493D01*
X40493Y39500D01*
Y40499D01*
X39493Y41499D01*
X36494D01*
X39493D01*
X40493Y42499D01*
Y43498D01*
X39493Y44498D01*
X36494D01*
X46491Y38500D02*
X42492D01*
X46491Y42499D01*
Y43498D01*
X45491Y44498D01*
X43492D01*
X42492Y43498D01*
X48490Y38500D02*
Y39500D01*
X49490D01*
Y38500D01*
X48490D01*
X53489D02*
X55488D01*
X54488D01*
Y44498D01*
X53489Y43498D01*
X98300Y15700D02*
Y21698D01*
X101299D01*
X102299Y20698D01*
Y18699D01*
X101299Y17699D01*
X98300D01*
X100299D02*
X102299Y15700D01*
X106297D02*
X104298Y17699D01*
Y19699D01*
X106297Y21698D01*
X109296Y15700D02*
Y19699D01*
X112295D01*
X113295Y18699D01*
Y15700D01*
X118293D02*
X116294D01*
X115295Y16700D01*
Y18699D01*
X116294Y19699D01*
X118293D01*
X119293Y18699D01*
Y17699D01*
X115295D01*
X121293Y19699D02*
X125291Y15700D01*
X123292Y17699D01*
X125291Y19699D01*
X121293Y15700D01*
X128290Y20698D02*
Y19699D01*
X127291D01*
X129290D01*
X128290D01*
Y16700D01*
X129290Y15700D01*
X132289D02*
X134288Y17699D01*
Y19699D01*
X132289Y21698D01*
X231400Y125600D02*
Y131598D01*
X234399D01*
X235399Y130598D01*
Y128599D01*
X234399Y127599D01*
X231400D01*
X233399D02*
X235399Y125600D01*
X241397D02*
X237398D01*
X241397Y129599D01*
Y130598D01*
X240397Y131598D01*
X238398D01*
X237398Y130598D01*
X181410Y85542D02*
Y91540D01*
X184409D01*
X185409Y90540D01*
Y88541D01*
X184409Y87541D01*
X181410D01*
X183410D02*
X185409Y85542D01*
X187408D02*
X189408D01*
X188408D01*
Y91540D01*
X187408Y90540D01*
X143499Y104098D02*
X141500D01*
X140500Y103098D01*
Y99100D01*
X141500Y98100D01*
X143499D01*
X144499Y99100D01*
Y103098D01*
X143499Y104098D01*
X150497Y103098D02*
X149497Y104098D01*
X147498D01*
X146498Y103098D01*
Y102099D01*
X147498Y101099D01*
X149497D01*
X150497Y100099D01*
Y99100D01*
X149497Y98100D01*
X147498D01*
X146498Y99100D01*
X156495Y103098D02*
X155495Y104098D01*
X153496D01*
X152496Y103098D01*
Y99100D01*
X153496Y98100D01*
X155495D01*
X156495Y99100D01*
X42000Y72898D02*
X43999D01*
X43000D01*
Y66900D01*
X42000D01*
X43999D01*
X46998D02*
Y70899D01*
X49997D01*
X50997Y69899D01*
Y66900D01*
X56995Y72898D02*
Y66900D01*
X53996D01*
X52996Y67900D01*
Y69899D01*
X53996Y70899D01*
X56995D01*
X58995D02*
Y67900D01*
X59994Y66900D01*
X62993D01*
Y70899D01*
X68991D02*
X65992D01*
X64993Y69899D01*
Y67900D01*
X65992Y66900D01*
X68991D01*
X71990Y71898D02*
Y70899D01*
X70991D01*
X72990D01*
X71990D01*
Y67900D01*
X72990Y66900D01*
X76989D02*
X78988D01*
X79988Y67900D01*
Y69899D01*
X78988Y70899D01*
X76989D01*
X75989Y69899D01*
Y67900D01*
X76989Y66900D01*
X81987Y70899D02*
Y66900D01*
Y68899D01*
X82987Y69899D01*
X83986Y70899D01*
X84986D01*
X87700Y75298D02*
Y69300D01*
X90699D01*
X91699Y70300D01*
Y74298D01*
X90699Y75298D01*
X87700D01*
X93698Y69300D02*
Y75298D01*
X96697D01*
X97697Y74298D01*
Y72299D01*
X96697Y71299D01*
X93698D01*
X95697D02*
X97697Y69300D01*
X99696Y75298D02*
Y71299D01*
X101696Y69300D01*
X103695Y71299D01*
Y75298D01*
X221699Y95498D02*
X220699Y96498D01*
X218700D01*
X217700Y95498D01*
Y91500D01*
X218700Y90500D01*
X220699D01*
X221699Y91500D01*
X223698D02*
X224698Y90500D01*
X226697D01*
X227697Y91500D01*
Y95498D01*
X226697Y96498D01*
X224698D01*
X223698Y95498D01*
Y94499D01*
X224698Y93499D01*
X227697D01*
X205799Y95698D02*
X204799Y96698D01*
X202800D01*
X201800Y95698D01*
Y91700D01*
X202800Y90700D01*
X204799D01*
X205799Y91700D01*
X207798Y95698D02*
X208798Y96698D01*
X210797D01*
X211797Y95698D01*
Y94699D01*
X210797Y93699D01*
X211797Y92699D01*
Y91700D01*
X210797Y90700D01*
X208798D01*
X207798Y91700D01*
Y92699D01*
X208798Y93699D01*
X207798Y94699D01*
Y95698D01*
X208798Y93699D02*
X210797D01*
X101699Y125198D02*
X100699Y126198D01*
X98700D01*
X97700Y125198D01*
Y121200D01*
X98700Y120200D01*
X100699D01*
X101699Y121200D01*
X103698Y126198D02*
X107697D01*
Y125198D01*
X103698Y121200D01*
Y120200D01*
X166499Y22798D02*
X165499Y23797D01*
X163500D01*
X162500Y22798D01*
Y18799D01*
X163500Y17799D01*
X165499D01*
X166499Y18799D01*
X172497Y23797D02*
X170497Y22798D01*
X168498Y20798D01*
Y18799D01*
X169498Y17799D01*
X171497D01*
X172497Y18799D01*
Y19799D01*
X171497Y20798D01*
X168498D01*
X217900Y118098D02*
Y112100D01*
X220899D01*
X221899Y113100D01*
Y117098D01*
X220899Y118098D01*
X217900D01*
X223898D02*
Y114099D01*
X225897Y112100D01*
X227897Y114099D01*
Y118098D01*
X229896Y112100D02*
Y118098D01*
X232895D01*
X233895Y117098D01*
Y115099D01*
X232895Y114099D01*
X229896D01*
X231895D02*
X233895Y112100D01*
X235894Y115099D02*
X239893D01*
X245891Y117098D02*
X244891Y118098D01*
X242892D01*
X241892Y117098D01*
Y113100D01*
X242892Y112100D01*
X244891D01*
X245891Y113100D01*
X247890Y112100D02*
X249890D01*
X248890D01*
Y118098D01*
X247890Y117098D01*
X71399Y121998D02*
X70399Y122998D01*
X68400D01*
X67400Y121998D01*
Y118000D01*
X68400Y117000D01*
X70399D01*
X71399Y118000D01*
X77397Y122998D02*
X73398D01*
Y119999D01*
X75397Y120999D01*
X76397D01*
X77397Y119999D01*
Y118000D01*
X76397Y117000D01*
X74398D01*
X73398Y118000D01*
X102000Y111098D02*
Y105100D01*
X104999D01*
X105999Y106100D01*
Y110098D01*
X104999Y111098D01*
X102000D01*
X107998D02*
Y107099D01*
X109997Y105100D01*
X111997Y107099D01*
Y111098D01*
X113996Y105100D02*
Y111098D01*
X116995D01*
X117995Y110098D01*
Y108099D01*
X116995Y107099D01*
X113996D01*
X115996D02*
X117995Y105100D01*
X119994Y108099D02*
X123993D01*
X129991Y110098D02*
X128991Y111098D01*
X126992D01*
X125992Y110098D01*
Y106100D01*
X126992Y105100D01*
X128991D01*
X129991Y106100D01*
X135989Y105100D02*
X131990D01*
X135989Y109099D01*
Y110098D01*
X134989Y111098D01*
X132990D01*
X131990Y110098D01*
X83999Y122098D02*
X82999Y123098D01*
X81000D01*
X80000Y122098D01*
Y118100D01*
X81000Y117100D01*
X82999D01*
X83999Y118100D01*
X88997Y117100D02*
Y123098D01*
X85998Y120099D01*
X89997D01*
X185600Y23998D02*
Y18000D01*
X188599D01*
X189599Y19000D01*
Y22998D01*
X188599Y23998D01*
X185600D01*
X191598D02*
Y19999D01*
X193597Y18000D01*
X195597Y19999D01*
Y23998D01*
X197596Y18000D02*
Y23998D01*
X200595D01*
X201595Y22998D01*
Y20999D01*
X200595Y19999D01*
X197596D01*
X199595D02*
X201595Y18000D01*
X203594Y20999D02*
X207593D01*
X213591Y22998D02*
X212591Y23998D01*
X210592D01*
X209592Y22998D01*
Y19000D01*
X210592Y18000D01*
X212591D01*
X213591Y19000D01*
X219589Y23998D02*
X215590D01*
Y20999D01*
X217590Y21999D01*
X218589D01*
X219589Y20999D01*
Y19000D01*
X218589Y18000D01*
X216590D01*
X215590Y19000D01*
X144299Y125798D02*
X143299Y126798D01*
X141300D01*
X140300Y125798D01*
Y121800D01*
X141300Y120800D01*
X143299D01*
X144299Y121800D01*
X146298Y125798D02*
X147298Y126798D01*
X149297D01*
X150297Y125798D01*
Y124799D01*
X149297Y123799D01*
X148297D01*
X149297D01*
X150297Y122799D01*
Y121800D01*
X149297Y120800D01*
X147298D01*
X146298Y121800D01*
X191100Y144998D02*
Y139000D01*
X194099D01*
X195099Y140000D01*
Y143998D01*
X194099Y144998D01*
X191100D01*
X197098D02*
Y140999D01*
X199097Y139000D01*
X201097Y140999D01*
Y144998D01*
X203096Y139000D02*
Y144998D01*
X206095D01*
X207095Y143998D01*
Y141999D01*
X206095Y140999D01*
X203096D01*
X205096D02*
X207095Y139000D01*
X209094Y141999D02*
X213093D01*
X219091Y143998D02*
X218091Y144998D01*
X216092D01*
X215092Y143998D01*
Y140000D01*
X216092Y139000D01*
X218091D01*
X219091Y140000D01*
X224089Y139000D02*
Y144998D01*
X221090Y141999D01*
X225089D01*
X169999Y95198D02*
X168999Y96198D01*
X167000D01*
X166000Y95198D01*
Y91200D01*
X167000Y90200D01*
X168999D01*
X169999Y91200D01*
X175997Y90200D02*
X171998D01*
X175997Y94199D01*
Y95198D01*
X174997Y96198D01*
X172998D01*
X171998Y95198D01*
X199000Y171398D02*
Y165400D01*
X201999D01*
X202999Y166400D01*
Y170398D01*
X201999Y171398D01*
X199000D01*
X204998D02*
Y167399D01*
X206997Y165400D01*
X208997Y167399D01*
Y171398D01*
X210996Y165400D02*
Y171398D01*
X213995D01*
X214995Y170398D01*
Y168399D01*
X213995Y167399D01*
X210996D01*
X212996D02*
X214995Y165400D01*
X216994Y168399D02*
X220993D01*
X226991Y170398D02*
X225991Y171398D01*
X223992D01*
X222992Y170398D01*
Y166400D01*
X223992Y165400D01*
X225991D01*
X226991Y166400D01*
X228990Y170398D02*
X229990Y171398D01*
X231989D01*
X232989Y170398D01*
Y169399D01*
X231989Y168399D01*
X230990D01*
X231989D01*
X232989Y167399D01*
Y166400D01*
X231989Y165400D01*
X229990D01*
X228990Y166400D01*
X141599Y23098D02*
X140599Y24098D01*
X138600D01*
X137600Y23098D01*
Y19100D01*
X138600Y18100D01*
X140599D01*
X141599Y19100D01*
X143598Y18100D02*
X145597D01*
X144598D01*
Y24098D01*
X143598Y23098D01*
X127699Y95798D02*
X126699Y96798D01*
X124700D01*
X123700Y95798D01*
Y91800D01*
X124700Y90800D01*
X126699D01*
X127699Y91800D01*
X129698Y90800D02*
X131697D01*
X130698D01*
Y96798D01*
X129698Y95798D01*
X189998Y76100D02*
X184000D01*
Y73101D01*
X185000Y72101D01*
X185999D01*
X186999Y73101D01*
Y76100D01*
Y73101D01*
X187999Y72101D01*
X188998D01*
X189998Y73101D01*
Y76100D01*
X184000Y70102D02*
Y68103D01*
Y69102D01*
X189998D01*
Y70102D01*
X187999Y65104D02*
X185000D01*
X184000Y64104D01*
Y61105D01*
X187999D01*
X184000Y56107D02*
Y58106D01*
X185000Y59105D01*
X186999D01*
X187999Y58106D01*
Y56107D01*
X186999Y55107D01*
X185999D01*
Y59105D01*
X189998Y47109D02*
X184000D01*
Y43111D01*
X189998Y37113D02*
Y41111D01*
X184000D01*
Y37113D01*
X186999Y41111D02*
Y39112D01*
X189998Y35113D02*
X184000D01*
Y32114D01*
X185000Y31115D01*
X188998D01*
X189998Y32114D01*
Y35113D01*
X4500Y106498D02*
Y100500D01*
X7499D01*
X8499Y101500D01*
Y102499D01*
X7499Y103499D01*
X4500D01*
X7499D01*
X8499Y104499D01*
Y105498D01*
X7499Y106498D01*
X4500D01*
X11498Y104499D02*
X13497D01*
X14497Y103499D01*
Y100500D01*
X11498D01*
X10498Y101500D01*
X11498Y102499D01*
X14497D01*
X17496Y105498D02*
Y104499D01*
X16496D01*
X18496D01*
X17496D01*
Y101500D01*
X18496Y100500D01*
M02*
