G04*
G04 #@! TF.GenerationSoftware,Altium Limited,Altium Designer,19.1.5 (86)*
G04*
G04 Layer_Color=2752767*
%FSLAX25Y25*%
%MOIN*%
G70*
G01*
G75*
%ADD65C,0.00200*%
%ADD66C,0.00267*%
%ADD67C,0.00133*%
D65*
X51521Y89067D02*
Y90667D01*
X53121D01*
Y89067D01*
X51521D01*
X41679D02*
Y90667D01*
X43279D01*
Y89067D01*
X41679D01*
X171500Y153100D02*
X170700Y154700D01*
X172300D01*
X171500Y153100D01*
X155909D02*
X155109Y154700D01*
X156709D01*
X155909Y153100D01*
X140319D02*
X139519Y154700D01*
X141119D01*
X140319Y153100D01*
X124728D02*
X123928Y154700D01*
X125528D01*
X124728Y153100D01*
X109138D02*
X108338Y154700D01*
X109938D01*
X109138Y153100D01*
X93547D02*
X92747Y154700D01*
X94347D01*
X93547Y153100D01*
X28800Y170700D02*
X29200Y171100D01*
X29600D01*
X29200Y171500D01*
X29600Y171900D01*
X29200D01*
X28800Y172300D01*
X28400Y171900D01*
X28000D01*
X28400Y171500D01*
X28000Y171100D01*
X28400D01*
X28800Y170700D01*
X48800D02*
X49200Y171100D01*
X49600D01*
X49200Y171500D01*
X49600Y171900D01*
X49200D01*
X48800Y172300D01*
X48400Y171900D01*
X48000D01*
X48400Y171500D01*
X48000Y171100D01*
X48400D01*
X48800Y170700D01*
X5469Y68908D02*
X5869Y69708D01*
X5469Y70508D01*
X6268Y70108D01*
X7068Y70508D01*
X6668Y69708D01*
X7068Y68908D01*
X6268Y69308D01*
X5469Y68908D01*
Y94892D02*
X5869Y95692D01*
X5469Y96492D01*
X6268Y96092D01*
X7068Y96492D01*
X6668Y95692D01*
X7068Y94892D01*
X6268Y95292D01*
X5469Y94892D01*
X5869Y69308D02*
Y68908D01*
X6668D01*
Y69308D01*
X7068D01*
Y70108D01*
X6668D01*
Y70508D01*
X5869D01*
Y70108D01*
X5469D01*
Y69308D01*
X5869D01*
Y95292D02*
Y94892D01*
X6668D01*
Y95292D01*
X7068D01*
Y96092D01*
X6668D01*
Y96492D01*
X5869D01*
Y96092D01*
X5469D01*
Y95292D01*
X5869D01*
X7400Y169400D02*
X7800D01*
X8200Y169800D01*
X8600Y169400D01*
X9000D01*
Y169800D01*
X8600Y170200D01*
X9000Y170600D01*
Y171000D01*
X8600D01*
X8200Y170600D01*
X7800Y171000D01*
X7400D01*
Y170600D01*
X7800Y170200D01*
X7400Y169800D01*
Y169400D01*
X248000Y169300D02*
X248400D01*
X248800Y169700D01*
X249200Y169300D01*
X249600D01*
Y169700D01*
X249200Y170100D01*
X249600Y170500D01*
Y170900D01*
X249200D01*
X248800Y170500D01*
X248400Y170900D01*
X248000D01*
Y170500D01*
X248400Y170100D01*
X248000Y169700D01*
Y169300D01*
X6000Y7300D02*
X6400D01*
X6800Y7700D01*
X7200Y7300D01*
X7600D01*
Y7700D01*
X7200Y8100D01*
X7600Y8500D01*
Y8900D01*
X7200D01*
X6800Y8500D01*
X6400Y8900D01*
X6000D01*
Y8500D01*
X6400Y8100D01*
X6000Y7700D01*
Y7300D01*
X247800Y7100D02*
X248200D01*
X248600Y7500D01*
X249000Y7100D01*
X249400D01*
Y7500D01*
X249000Y7900D01*
X249400Y8300D01*
Y8700D01*
X249000D01*
X248600Y8300D01*
X248200Y8700D01*
X247800D01*
Y8300D01*
X248200Y7900D01*
X247800Y7500D01*
Y7100D01*
X247625Y163431D02*
X248425Y164231D01*
X249225Y163431D01*
X248425Y162631D01*
X247625Y163431D01*
X241720Y151620D02*
X242520Y152420D01*
X243320Y151620D01*
X242520Y150820D01*
X241720Y151620D01*
X247625Y139809D02*
X248425Y140609D01*
X249225Y139809D01*
X248425Y139009D01*
X247625Y139809D01*
X241720Y127998D02*
X242520Y128797D01*
X243320Y127998D01*
X242520Y127198D01*
X241720Y127998D01*
X247625Y116186D02*
X248425Y116987D01*
X249225Y116186D01*
X248425Y115386D01*
X247625Y116186D01*
X241720Y104376D02*
X242520Y105175D01*
X243320Y104376D01*
X242520Y103576D01*
X241720Y104376D01*
X247625Y92564D02*
X248425Y93365D01*
X249225Y92564D01*
X248425Y91764D01*
X247625Y92564D01*
X241720Y57131D02*
X242520Y57931D01*
X243320Y57131D01*
X242520Y56331D01*
X241720Y57131D01*
Y33509D02*
X242520Y34309D01*
X243320Y33509D01*
X242520Y32709D01*
X241720Y33509D01*
Y9887D02*
X242520Y10687D01*
X243320Y9887D01*
X242520Y9087D01*
X241720Y9887D01*
X235814Y163431D02*
X236614Y164231D01*
X237414Y163431D01*
X236614Y162631D01*
X235814Y163431D01*
X229909Y151620D02*
X230709Y152420D01*
X231509Y151620D01*
X230709Y150820D01*
X229909Y151620D01*
X235814Y139809D02*
X236614Y140609D01*
X237414Y139809D01*
X236614Y139009D01*
X235814Y139809D01*
Y116186D02*
X236614Y116987D01*
X237414Y116186D01*
X236614Y115386D01*
X235814Y116186D01*
X229909Y104376D02*
X230709Y105175D01*
X231509Y104376D01*
X230709Y103576D01*
X229909Y104376D01*
X235814Y92564D02*
X236614Y93365D01*
X237414Y92564D01*
X236614Y91764D01*
X235814Y92564D01*
X229909Y80753D02*
X230709Y81554D01*
X231509Y80753D01*
X230709Y79953D01*
X229909Y80753D01*
X235814Y68942D02*
X236614Y69742D01*
X237414Y68942D01*
X236614Y68142D01*
X235814Y68942D01*
X229909Y57131D02*
X230709Y57931D01*
X231509Y57131D01*
X230709Y56331D01*
X229909Y57131D01*
X235814Y45320D02*
X236614Y46120D01*
X237414Y45320D01*
X236614Y44520D01*
X235814Y45320D01*
Y21698D02*
X236614Y22498D01*
X237414Y21698D01*
X236614Y20898D01*
X235814Y21698D01*
X218097Y151620D02*
X218898Y152420D01*
X219697Y151620D01*
X218898Y150820D01*
X218097Y151620D01*
X224003Y116186D02*
X224803Y116987D01*
X225603Y116186D01*
X224803Y115386D01*
X224003Y116186D01*
Y92564D02*
X224803Y93365D01*
X225603Y92564D01*
X224803Y91764D01*
X224003Y92564D01*
X218097Y80753D02*
X218898Y81554D01*
X219697Y80753D01*
X218898Y79953D01*
X218097Y80753D01*
X224003Y68942D02*
X224803Y69742D01*
X225603Y68942D01*
X224803Y68142D01*
X224003Y68942D01*
X218097Y57131D02*
X218898Y57931D01*
X219697Y57131D01*
X218898Y56331D01*
X218097Y57131D01*
X224003Y45320D02*
X224803Y46120D01*
X225603Y45320D01*
X224803Y44520D01*
X224003Y45320D01*
Y21698D02*
X224803Y22498D01*
X225603Y21698D01*
X224803Y20898D01*
X224003Y21698D01*
X218097Y9887D02*
X218898Y10687D01*
X219697Y9887D01*
X218898Y9087D01*
X218097Y9887D01*
X212192Y163431D02*
X212992Y164231D01*
X213792Y163431D01*
X212992Y162631D01*
X212192Y163431D01*
X206287Y151620D02*
X207086Y152420D01*
X207887Y151620D01*
X207086Y150820D01*
X206287Y151620D01*
X212192Y139809D02*
X212992Y140609D01*
X213792Y139809D01*
X212992Y139009D01*
X212192Y139809D01*
Y116186D02*
X212992Y116987D01*
X213792Y116186D01*
X212992Y115386D01*
X212192Y116186D01*
Y92564D02*
X212992Y93365D01*
X213792Y92564D01*
X212992Y91764D01*
X212192Y92564D01*
Y68942D02*
X212992Y69742D01*
X213792Y68942D01*
X212992Y68142D01*
X212192Y68942D01*
Y45320D02*
X212992Y46120D01*
X213792Y45320D01*
X212992Y44520D01*
X212192Y45320D01*
Y21698D02*
X212992Y22498D01*
X213792Y21698D01*
X212992Y20898D01*
X212192Y21698D01*
X206287Y9887D02*
X207086Y10687D01*
X207887Y9887D01*
X207086Y9087D01*
X206287Y9887D01*
X200381Y163431D02*
X201181Y164231D01*
X201981Y163431D01*
X201181Y162631D01*
X200381Y163431D01*
Y116186D02*
X201181Y116987D01*
X201981Y116186D01*
X201181Y115386D01*
X200381Y116186D01*
X194475Y104376D02*
X195275Y105175D01*
X196075Y104376D01*
X195275Y103576D01*
X194475Y104376D01*
X200381Y92564D02*
X201181Y93365D01*
X201981Y92564D01*
X201181Y91764D01*
X200381Y92564D01*
X194475Y80753D02*
X195275Y81554D01*
X196075Y80753D01*
X195275Y79953D01*
X194475Y80753D01*
Y57131D02*
X195275Y57931D01*
X196075Y57131D01*
X195275Y56331D01*
X194475Y57131D01*
Y33509D02*
X195275Y34309D01*
X196075Y33509D01*
X195275Y32709D01*
X194475Y33509D01*
X200381Y21698D02*
X201181Y22498D01*
X201981Y21698D01*
X201181Y20898D01*
X200381Y21698D01*
X188570Y163431D02*
X189370Y164231D01*
X190170Y163431D01*
X189370Y162631D01*
X188570Y163431D01*
X182665Y151620D02*
X183465Y152420D01*
X184265Y151620D01*
X183465Y150820D01*
X182665Y151620D01*
X188570Y139809D02*
X189370Y140609D01*
X190170Y139809D01*
X189370Y139009D01*
X188570Y139809D01*
X182665Y104376D02*
X183465Y105175D01*
X184265Y104376D01*
X183465Y103576D01*
X182665Y104376D01*
X188570Y92564D02*
X189370Y93365D01*
X190170Y92564D01*
X189370Y91764D01*
X188570Y92564D01*
X182665Y80753D02*
X183465Y81554D01*
X184265Y80753D01*
X183465Y79953D01*
X182665Y80753D01*
X188570Y68942D02*
X189370Y69742D01*
X190170Y68942D01*
X189370Y68142D01*
X188570Y68942D01*
X182665Y57131D02*
X183465Y57931D01*
X184265Y57131D01*
X183465Y56331D01*
X182665Y57131D01*
Y33509D02*
X183465Y34309D01*
X184265Y33509D01*
X183465Y32709D01*
X182665Y33509D01*
X188570Y21698D02*
X189370Y22498D01*
X190170Y21698D01*
X189370Y20898D01*
X188570Y21698D01*
X176759Y163431D02*
X177559Y164231D01*
X178359Y163431D01*
X177559Y162631D01*
X176759Y163431D01*
Y139809D02*
X177559Y140609D01*
X178359Y139809D01*
X177559Y139009D01*
X176759Y139809D01*
X170853Y127998D02*
X171653Y128797D01*
X172453Y127998D01*
X171653Y127198D01*
X170853Y127998D01*
X176759Y116186D02*
X177559Y116987D01*
X178359Y116186D01*
X177559Y115386D01*
X176759Y116186D01*
X170853Y104376D02*
X171653Y105175D01*
X172453Y104376D01*
X171653Y103576D01*
X170853Y104376D01*
X176759Y92564D02*
X177559Y93365D01*
X178359Y92564D01*
X177559Y91764D01*
X176759Y92564D01*
X170853Y80753D02*
X171653Y81554D01*
X172453Y80753D01*
X171653Y79953D01*
X170853Y80753D01*
Y57131D02*
X171653Y57931D01*
X172453Y57131D01*
X171653Y56331D01*
X170853Y57131D01*
X176759Y45320D02*
X177559Y46120D01*
X178359Y45320D01*
X177559Y44520D01*
X176759Y45320D01*
X170853Y33509D02*
X171653Y34309D01*
X172453Y33509D01*
X171653Y32709D01*
X170853Y33509D01*
X176759Y21698D02*
X177559Y22498D01*
X178359Y21698D01*
X177559Y20898D01*
X176759Y21698D01*
X164948Y163431D02*
X165748Y164231D01*
X166548Y163431D01*
X165748Y162631D01*
X164948Y163431D01*
X159042Y127998D02*
X159842Y128797D01*
X160642Y127998D01*
X159842Y127198D01*
X159042Y127998D01*
X164948Y21698D02*
X165748Y22498D01*
X166548Y21698D01*
X165748Y20898D01*
X164948Y21698D01*
X147231Y151620D02*
X148031Y152420D01*
X148831Y151620D01*
X148031Y150820D01*
X147231Y151620D01*
X153137Y139809D02*
X153937Y140609D01*
X154737Y139809D01*
X153937Y139009D01*
X153137Y139809D01*
Y116186D02*
X153937Y116987D01*
X154737Y116186D01*
X153937Y115386D01*
X153137Y116186D01*
X147231Y80753D02*
X148031Y81554D01*
X148831Y80753D01*
X148031Y79953D01*
X147231Y80753D01*
X153137Y68942D02*
X153937Y69742D01*
X154737Y68942D01*
X153937Y68142D01*
X153137Y68942D01*
X147231Y57131D02*
X148031Y57931D01*
X148831Y57131D01*
X148031Y56331D01*
X147231Y57131D01*
X153137Y21698D02*
X153937Y22498D01*
X154737Y21698D01*
X153937Y20898D01*
X153137Y21698D01*
X135420Y104376D02*
X136220Y105175D01*
X137020Y104376D01*
X136220Y103576D01*
X135420Y104376D01*
Y80753D02*
X136220Y81554D01*
X137020Y80753D01*
X136220Y79953D01*
X135420Y80753D01*
X141326Y68942D02*
X142126Y69742D01*
X142926Y68942D01*
X142126Y68142D01*
X141326Y68942D01*
X135420Y33509D02*
X136220Y34309D01*
X137020Y33509D01*
X136220Y32709D01*
X135420Y33509D01*
X129515Y139809D02*
X130315Y140609D01*
X131115Y139809D01*
X130315Y139009D01*
X129515Y139809D01*
Y116186D02*
X130315Y116987D01*
X131115Y116186D01*
X130315Y115386D01*
X129515Y116186D01*
Y92564D02*
X130315Y93365D01*
X131115Y92564D01*
X130315Y91764D01*
X129515Y92564D01*
Y21698D02*
X130315Y22498D01*
X131115Y21698D01*
X130315Y20898D01*
X129515Y21698D01*
X117704Y139809D02*
X118504Y140609D01*
X119304Y139809D01*
X118504Y139009D01*
X117704Y139809D01*
X111798Y127998D02*
X112598Y128797D01*
X113398Y127998D01*
X112598Y127198D01*
X111798Y127998D01*
X117704Y116186D02*
X118504Y116987D01*
X119304Y116186D01*
X118504Y115386D01*
X117704Y116186D01*
X111798Y104376D02*
X112598Y105175D01*
X113398Y104376D01*
X112598Y103576D01*
X111798Y104376D01*
X117704Y92564D02*
X118504Y93365D01*
X119304Y92564D01*
X118504Y91764D01*
X117704Y92564D01*
Y21698D02*
X118504Y22498D01*
X119304Y21698D01*
X118504Y20898D01*
X117704Y21698D01*
X99987Y127998D02*
X100787Y128797D01*
X101587Y127998D01*
X100787Y127198D01*
X99987Y127998D01*
X105893Y45320D02*
X106693Y46120D01*
X107493Y45320D01*
X106693Y44520D01*
X105893Y45320D01*
Y21698D02*
X106693Y22498D01*
X107493Y21698D01*
X106693Y20898D01*
X105893Y21698D01*
X94082Y139809D02*
X94882Y140609D01*
X95682Y139809D01*
X94882Y139009D01*
X94082Y139809D01*
X88176Y127998D02*
X88976Y128797D01*
X89776Y127998D01*
X88976Y127198D01*
X88176Y127998D01*
Y104376D02*
X88976Y105175D01*
X89776Y104376D01*
X88976Y103576D01*
X88176Y104376D01*
Y80753D02*
X88976Y81554D01*
X89776Y80753D01*
X88976Y79953D01*
X88176Y80753D01*
X94082Y68942D02*
X94882Y69742D01*
X95682Y68942D01*
X94882Y68142D01*
X94082Y68942D01*
X88176Y33509D02*
X88976Y34309D01*
X89776Y33509D01*
X88976Y32709D01*
X88176Y33509D01*
X82271Y163431D02*
X83071Y164231D01*
X83871Y163431D01*
X83071Y162631D01*
X82271Y163431D01*
X76365Y151620D02*
X77165Y152420D01*
X77965Y151620D01*
X77165Y150820D01*
X76365Y151620D01*
X82271Y139809D02*
X83071Y140609D01*
X83871Y139809D01*
X83071Y139009D01*
X82271Y139809D01*
X76365Y127998D02*
X77165Y128797D01*
X77965Y127998D01*
X77165Y127198D01*
X76365Y127998D01*
Y104376D02*
X77165Y105175D01*
X77965Y104376D01*
X77165Y103576D01*
X76365Y104376D01*
X82271Y92564D02*
X83071Y93365D01*
X83871Y92564D01*
X83071Y91764D01*
X82271Y92564D01*
Y68942D02*
X83071Y69742D01*
X83871Y68942D01*
X83071Y68142D01*
X82271Y68942D01*
X76365Y33509D02*
X77165Y34309D01*
X77965Y33509D01*
X77165Y32709D01*
X76365Y33509D01*
X82271Y21698D02*
X83071Y22498D01*
X83871Y21698D01*
X83071Y20898D01*
X82271Y21698D01*
X70460Y163431D02*
X71260Y164231D01*
X72060Y163431D01*
X71260Y162631D01*
X70460Y163431D01*
X64554Y127998D02*
X65354Y128797D01*
X66154Y127998D01*
X65354Y127198D01*
X64554Y127998D01*
Y104376D02*
X65354Y105175D01*
X66154Y104376D01*
X65354Y103576D01*
X64554Y104376D01*
X70460Y92564D02*
X71260Y93365D01*
X72060Y92564D01*
X71260Y91764D01*
X70460Y92564D01*
X64554Y80753D02*
X65354Y81554D01*
X66154Y80753D01*
X65354Y79953D01*
X64554Y80753D01*
X70460Y45320D02*
X71260Y46120D01*
X72060Y45320D01*
X71260Y44520D01*
X70460Y45320D01*
X64554Y33509D02*
X65354Y34309D01*
X66154Y33509D01*
X65354Y32709D01*
X64554Y33509D01*
X70460Y21698D02*
X71260Y22498D01*
X72060Y21698D01*
X71260Y20898D01*
X70460Y21698D01*
X64554Y9887D02*
X65354Y10687D01*
X66154Y9887D01*
X65354Y9087D01*
X64554Y9887D01*
X52743Y151620D02*
X53543Y152420D01*
X54343Y151620D01*
X53543Y150820D01*
X52743Y151620D01*
X58649Y139809D02*
X59449Y140609D01*
X60249Y139809D01*
X59449Y139009D01*
X58649Y139809D01*
X52743Y127998D02*
X53543Y128797D01*
X54343Y127998D01*
X53543Y127198D01*
X52743Y127998D01*
X58649Y116186D02*
X59449Y116987D01*
X60249Y116186D01*
X59449Y115386D01*
X58649Y116186D01*
X52743Y104376D02*
X53543Y105175D01*
X54343Y104376D01*
X53543Y103576D01*
X52743Y104376D01*
X58649Y92564D02*
X59449Y93365D01*
X60249Y92564D01*
X59449Y91764D01*
X58649Y92564D01*
Y45320D02*
X59449Y46120D01*
X60249Y45320D01*
X59449Y44520D01*
X58649Y45320D01*
X52743Y33509D02*
X53543Y34309D01*
X54343Y33509D01*
X53543Y32709D01*
X52743Y33509D01*
Y9887D02*
X53543Y10687D01*
X54343Y9887D01*
X53543Y9087D01*
X52743Y9887D01*
X46838Y163431D02*
X47638Y164231D01*
X48438Y163431D01*
X47638Y162631D01*
X46838Y163431D01*
Y139809D02*
X47638Y140609D01*
X48438Y139809D01*
X47638Y139009D01*
X46838Y139809D01*
Y116186D02*
X47638Y116987D01*
X48438Y116186D01*
X47638Y115386D01*
X46838Y116186D01*
X40932Y80753D02*
X41732Y81554D01*
X42532Y80753D01*
X41732Y79953D01*
X40932Y80753D01*
X46838Y68942D02*
X47638Y69742D01*
X48438Y68942D01*
X47638Y68142D01*
X46838Y68942D01*
X40932Y57131D02*
X41732Y57931D01*
X42532Y57131D01*
X41732Y56331D01*
X40932Y57131D01*
X46838Y45320D02*
X47638Y46120D01*
X48438Y45320D01*
X47638Y44520D01*
X46838Y45320D01*
X40932Y33509D02*
X41732Y34309D01*
X42532Y33509D01*
X41732Y32709D01*
X40932Y33509D01*
X46838Y21698D02*
X47638Y22498D01*
X48438Y21698D01*
X47638Y20898D01*
X46838Y21698D01*
X40932Y9887D02*
X41732Y10687D01*
X42532Y9887D01*
X41732Y9087D01*
X40932Y9887D01*
X29121Y151620D02*
X29921Y152420D01*
X30721Y151620D01*
X29921Y150820D01*
X29121Y151620D01*
X35027Y139809D02*
X35827Y140609D01*
X36627Y139809D01*
X35827Y139009D01*
X35027Y139809D01*
X29121Y127998D02*
X29921Y128797D01*
X30721Y127998D01*
X29921Y127198D01*
X29121Y127998D01*
X35027Y116186D02*
X35827Y116987D01*
X36627Y116186D01*
X35827Y115386D01*
X35027Y116186D01*
X29121Y104376D02*
X29921Y105175D01*
X30721Y104376D01*
X29921Y103576D01*
X29121Y104376D01*
Y57131D02*
X29921Y57931D01*
X30721Y57131D01*
X29921Y56331D01*
X29121Y57131D01*
Y33509D02*
X29921Y34309D01*
X30721Y33509D01*
X29921Y32709D01*
X29121Y33509D01*
X35027Y21698D02*
X35827Y22498D01*
X36627Y21698D01*
X35827Y20898D01*
X35027Y21698D01*
X29121Y9887D02*
X29921Y10687D01*
X30721Y9887D01*
X29921Y9087D01*
X29121Y9887D01*
X23216Y163431D02*
X24016Y164231D01*
X24816Y163431D01*
X24016Y162631D01*
X23216Y163431D01*
X17310Y151620D02*
X18110Y152420D01*
X18910Y151620D01*
X18110Y150820D01*
X17310Y151620D01*
X23216Y139809D02*
X24016Y140609D01*
X24816Y139809D01*
X24016Y139009D01*
X23216Y139809D01*
X17310Y127998D02*
X18110Y128797D01*
X18910Y127998D01*
X18110Y127198D01*
X17310Y127998D01*
X23216Y116186D02*
X24016Y116987D01*
X24816Y116186D01*
X24016Y115386D01*
X23216Y116186D01*
X17310Y104376D02*
X18110Y105175D01*
X18910Y104376D01*
X18110Y103576D01*
X17310Y104376D01*
X23216Y68942D02*
X24016Y69742D01*
X24816Y68942D01*
X24016Y68142D01*
X23216Y68942D01*
Y45320D02*
X24016Y46120D01*
X24816Y45320D01*
X24016Y44520D01*
X23216Y45320D01*
X17310Y33509D02*
X18110Y34309D01*
X18910Y33509D01*
X18110Y32709D01*
X17310Y33509D01*
X23216Y21698D02*
X24016Y22498D01*
X24816Y21698D01*
X24016Y20898D01*
X23216Y21698D01*
X17310Y9887D02*
X18110Y10687D01*
X18910Y9887D01*
X18110Y9087D01*
X17310Y9887D01*
X11405Y163431D02*
X12205Y164231D01*
X13005Y163431D01*
X12205Y162631D01*
X11405Y163431D01*
X5499Y151620D02*
X6299Y152420D01*
X7099Y151620D01*
X6299Y150820D01*
X5499Y151620D01*
X11405Y139809D02*
X12205Y140609D01*
X13005Y139809D01*
X12205Y139009D01*
X11405Y139809D01*
X5499Y127998D02*
X6299Y128797D01*
X7099Y127998D01*
X6299Y127198D01*
X5499Y127998D01*
X11405Y116186D02*
X12205Y116987D01*
X13005Y116186D01*
X12205Y115386D01*
X11405Y116186D01*
X5499Y104376D02*
X6299Y105175D01*
X7099Y104376D01*
X6299Y103576D01*
X5499Y104376D01*
Y57131D02*
X6299Y57931D01*
X7099Y57131D01*
X6299Y56331D01*
X5499Y57131D01*
X11405Y45320D02*
X12205Y46120D01*
X13005Y45320D01*
X12205Y44520D01*
X11405Y45320D01*
X5499Y33509D02*
X6299Y34309D01*
X7099Y33509D01*
X6299Y32709D01*
X5499Y33509D01*
X11405Y21698D02*
X12205Y22498D01*
X13005Y21698D01*
X12205Y20898D01*
X11405Y21698D01*
X182800Y12600D02*
Y14200D01*
X184400D01*
Y12600D01*
X182800D01*
X183200Y13000D02*
Y13800D01*
X184000D01*
Y13000D01*
X183200D01*
X228700Y36200D02*
Y37800D01*
X230300D01*
Y36200D01*
X228700D01*
X229100Y36600D02*
Y37400D01*
X229900D01*
Y36600D01*
X229100D01*
X19100Y61000D02*
Y62600D01*
X20700D01*
Y61000D01*
X19100D01*
X19500Y61400D02*
Y62200D01*
X20300D01*
Y61400D01*
X19500D01*
X197300Y124900D02*
Y126500D01*
X198900D01*
Y124900D01*
X197300D01*
X197700Y125300D02*
Y126100D01*
X198500D01*
Y125300D01*
X197700D01*
X216800Y125000D02*
Y126600D01*
X218400D01*
Y125000D01*
X216800D01*
X217200Y125400D02*
Y126200D01*
X218000D01*
Y125400D01*
X217200D01*
X149200Y31800D02*
Y33400D01*
X150800D01*
Y31800D01*
X149200D01*
X149600Y32200D02*
Y33000D01*
X150400D01*
Y32200D01*
X149600D01*
X123200Y65800D02*
Y67400D01*
X124800D01*
Y65800D01*
X123200D01*
X123600Y66200D02*
Y67000D01*
X124400D01*
Y66200D01*
X123600D01*
X167200Y29300D02*
Y30900D01*
X168800D01*
Y29300D01*
X167200D01*
X167600Y29700D02*
Y30500D01*
X168400D01*
Y29700D01*
X167600D01*
X159200Y29300D02*
Y30900D01*
X160800D01*
Y29300D01*
X159200D01*
X159600Y29700D02*
Y30500D01*
X160400D01*
Y29700D01*
X159600D01*
X100700Y80800D02*
Y82400D01*
X102300D01*
Y80800D01*
X100700D01*
X101100Y81200D02*
Y82000D01*
X101900D01*
Y81200D01*
X101100D01*
X107700Y71300D02*
Y72900D01*
X109300D01*
Y71300D01*
X107700D01*
X108100Y71700D02*
Y72500D01*
X108900D01*
Y71700D01*
X108100D01*
X124200Y54300D02*
Y55900D01*
X125800D01*
Y54300D01*
X124200D01*
X124600Y54700D02*
Y55500D01*
X125400D01*
Y54700D01*
X124600D01*
X124200Y47800D02*
Y49400D01*
X125800D01*
Y47800D01*
X124200D01*
X124600Y48200D02*
Y49000D01*
X125400D01*
Y48200D01*
X124600D01*
X107200Y38800D02*
Y40400D01*
X108800D01*
Y38800D01*
X107200D01*
X107600Y39200D02*
Y40000D01*
X108400D01*
Y39200D01*
X107600D01*
X114700Y38800D02*
Y40400D01*
X116300D01*
Y38800D01*
X114700D01*
X115100Y39200D02*
Y40000D01*
X115900D01*
Y39200D01*
X115100D01*
D66*
X164505Y137207D02*
G03*
X164505Y137207I-800J0D01*
G01*
X102143D02*
G03*
X102143Y137207I-800J0D01*
G01*
X109135Y56435D02*
G03*
X109135Y56435I-800J0D01*
G01*
Y60765D02*
G03*
X109135Y60765I-800J0D01*
G01*
X113465Y56435D02*
G03*
X113465Y56435I-800J0D01*
G01*
Y60765D02*
G03*
X113465Y60765I-800J0D01*
G01*
D67*
X108735Y56435D02*
G03*
X108735Y56435I-400J0D01*
G01*
Y60765D02*
G03*
X108735Y60765I-400J0D01*
G01*
X113065Y56435D02*
G03*
X113065Y56435I-400J0D01*
G01*
Y60765D02*
G03*
X113065Y60765I-400J0D01*
G01*
M02*
