G04*
G04 #@! TF.GenerationSoftware,Altium Limited,Altium Designer,19.1.5 (86)*
G04*
G04 Layer_Color=128*
%FSLAX25Y25*%
%MOIN*%
G70*
G01*
G75*
%ADD65C,0.00200*%
D65*
X50353Y89867D02*
X54290D01*
X52321Y87898D02*
Y91835D01*
X40510Y89867D02*
X44447D01*
X42479Y87898D02*
Y91835D01*
X160496Y137207D02*
X166913D01*
X163705Y133998D02*
Y140416D01*
X98134Y137207D02*
X104551D01*
X101342Y133998D02*
Y140416D01*
X168154Y153900D02*
X174846D01*
X171500Y150554D02*
Y157246D01*
X152563Y153900D02*
X159256D01*
X155909Y150554D02*
Y157246D01*
X136972Y153900D02*
X143665D01*
X140319Y150554D02*
Y157246D01*
X121382Y153900D02*
X128075D01*
X124728Y150554D02*
Y157246D01*
X105791Y153900D02*
X112484D01*
X109138Y150554D02*
Y157246D01*
X90201Y153900D02*
X96894D01*
X93547Y150554D02*
Y157246D01*
X26635Y171500D02*
X30965D01*
X28800Y169335D02*
Y173665D01*
X46635Y171500D02*
X50965D01*
X48800Y169335D02*
Y173665D01*
X5284Y69708D02*
X7253D01*
X6268Y68724D02*
Y70692D01*
X5284Y95692D02*
X7253D01*
X6268Y94708D02*
Y96676D01*
X5284Y69708D02*
X7253D01*
X6268Y68724D02*
Y70692D01*
X5284Y95692D02*
X7253D01*
X6268Y94708D02*
Y96676D01*
X4263Y170200D02*
X12137D01*
X8200Y166263D02*
Y174137D01*
X244863Y170100D02*
X252737D01*
X248800Y166163D02*
Y174037D01*
X2863Y8100D02*
X10737D01*
X6800Y4163D02*
Y12037D01*
X244663Y7900D02*
X252537D01*
X248600Y3963D02*
Y11837D01*
X247834Y163431D02*
X249016D01*
X248425Y162840D02*
Y164021D01*
X241929Y151620D02*
X243110D01*
X242520Y151029D02*
Y152210D01*
X247834Y139809D02*
X249016D01*
X248425Y139218D02*
Y140399D01*
X241929Y127998D02*
X243110D01*
X242520Y127407D02*
Y128588D01*
X247834Y116186D02*
X249016D01*
X248425Y115596D02*
Y116777D01*
X241929Y104376D02*
X243110D01*
X242520Y103785D02*
Y104966D01*
X247834Y92564D02*
X249016D01*
X248425Y91974D02*
Y93155D01*
X241929Y57131D02*
X243110D01*
X242520Y56541D02*
Y57722D01*
X241929Y33509D02*
X243110D01*
X242520Y32919D02*
Y34100D01*
X241929Y9887D02*
X243110D01*
X242520Y9297D02*
Y10478D01*
X236023Y163431D02*
X237205D01*
X236614Y162840D02*
Y164021D01*
X230118Y151620D02*
X231299D01*
X230709Y151029D02*
Y152210D01*
X236023Y139809D02*
X237205D01*
X236614Y139218D02*
Y140399D01*
X236023Y116186D02*
X237205D01*
X236614Y115596D02*
Y116777D01*
X230118Y104376D02*
X231299D01*
X230709Y103785D02*
Y104966D01*
X236023Y92564D02*
X237205D01*
X236614Y91974D02*
Y93155D01*
X230118Y80753D02*
X231299D01*
X230709Y80163D02*
Y81344D01*
X236023Y68942D02*
X237205D01*
X236614Y68352D02*
Y69533D01*
X230118Y57131D02*
X231299D01*
X230709Y56541D02*
Y57722D01*
X236023Y45320D02*
X237205D01*
X236614Y44730D02*
Y45911D01*
X236023Y21698D02*
X237205D01*
X236614Y21108D02*
Y22289D01*
X218307Y151620D02*
X219488D01*
X218898Y151029D02*
Y152210D01*
X224213Y116186D02*
X225394D01*
X224803Y115596D02*
Y116777D01*
X224213Y92564D02*
X225394D01*
X224803Y91974D02*
Y93155D01*
X218307Y80753D02*
X219488D01*
X218898Y80163D02*
Y81344D01*
X224213Y68942D02*
X225394D01*
X224803Y68352D02*
Y69533D01*
X218307Y57131D02*
X219488D01*
X218898Y56541D02*
Y57722D01*
X224213Y45320D02*
X225394D01*
X224803Y44730D02*
Y45911D01*
X224213Y21698D02*
X225394D01*
X224803Y21108D02*
Y22289D01*
X218307Y9887D02*
X219488D01*
X218898Y9297D02*
Y10478D01*
X212402Y163431D02*
X213583D01*
X212992Y162840D02*
Y164021D01*
X206496Y151620D02*
X207677D01*
X207086Y151029D02*
Y152210D01*
X212402Y139809D02*
X213583D01*
X212992Y139218D02*
Y140399D01*
X212402Y116186D02*
X213583D01*
X212992Y115596D02*
Y116777D01*
X212402Y92564D02*
X213583D01*
X212992Y91974D02*
Y93155D01*
X212402Y68942D02*
X213583D01*
X212992Y68352D02*
Y69533D01*
X212402Y45320D02*
X213583D01*
X212992Y44730D02*
Y45911D01*
X212402Y21698D02*
X213583D01*
X212992Y21108D02*
Y22289D01*
X206496Y9887D02*
X207677D01*
X207086Y9297D02*
Y10478D01*
X200590Y163431D02*
X201772D01*
X201181Y162840D02*
Y164021D01*
X200590Y116186D02*
X201772D01*
X201181Y115596D02*
Y116777D01*
X194685Y104376D02*
X195866D01*
X195275Y103785D02*
Y104966D01*
X200590Y92564D02*
X201772D01*
X201181Y91974D02*
Y93155D01*
X194685Y80753D02*
X195866D01*
X195275Y80163D02*
Y81344D01*
X194685Y57131D02*
X195866D01*
X195275Y56541D02*
Y57722D01*
X194685Y33509D02*
X195866D01*
X195275Y32919D02*
Y34100D01*
X200590Y21698D02*
X201772D01*
X201181Y21108D02*
Y22289D01*
X188779Y163431D02*
X189961D01*
X189370Y162840D02*
Y164021D01*
X182874Y151620D02*
X184055D01*
X183465Y151029D02*
Y152210D01*
X188779Y139809D02*
X189961D01*
X189370Y139218D02*
Y140399D01*
X182874Y104376D02*
X184055D01*
X183465Y103785D02*
Y104966D01*
X188779Y92564D02*
X189961D01*
X189370Y91974D02*
Y93155D01*
X182874Y80753D02*
X184055D01*
X183465Y80163D02*
Y81344D01*
X188779Y68942D02*
X189961D01*
X189370Y68352D02*
Y69533D01*
X182874Y57131D02*
X184055D01*
X183465Y56541D02*
Y57722D01*
X182874Y33509D02*
X184055D01*
X183465Y32919D02*
Y34100D01*
X188779Y21698D02*
X189961D01*
X189370Y21108D02*
Y22289D01*
X176968Y163431D02*
X178149D01*
X177559Y162840D02*
Y164021D01*
X176968Y139809D02*
X178149D01*
X177559Y139218D02*
Y140399D01*
X171063Y127998D02*
X172244D01*
X171653Y127407D02*
Y128588D01*
X176968Y116186D02*
X178149D01*
X177559Y115596D02*
Y116777D01*
X171063Y104376D02*
X172244D01*
X171653Y103785D02*
Y104966D01*
X176968Y92564D02*
X178149D01*
X177559Y91974D02*
Y93155D01*
X171063Y80753D02*
X172244D01*
X171653Y80163D02*
Y81344D01*
X171063Y57131D02*
X172244D01*
X171653Y56541D02*
Y57722D01*
X176968Y45320D02*
X178149D01*
X177559Y44730D02*
Y45911D01*
X171063Y33509D02*
X172244D01*
X171653Y32919D02*
Y34100D01*
X176968Y21698D02*
X178149D01*
X177559Y21108D02*
Y22289D01*
X165157Y163431D02*
X166339D01*
X165748Y162840D02*
Y164021D01*
X159252Y127998D02*
X160433D01*
X159842Y127407D02*
Y128588D01*
X165157Y21698D02*
X166339D01*
X165748Y21108D02*
Y22289D01*
X147441Y151620D02*
X148622D01*
X148031Y151029D02*
Y152210D01*
X153346Y139809D02*
X154527D01*
X153937Y139218D02*
Y140399D01*
X153346Y116186D02*
X154527D01*
X153937Y115596D02*
Y116777D01*
X147441Y80753D02*
X148622D01*
X148031Y80163D02*
Y81344D01*
X153346Y68942D02*
X154527D01*
X153937Y68352D02*
Y69533D01*
X147441Y57131D02*
X148622D01*
X148031Y56541D02*
Y57722D01*
X153346Y21698D02*
X154527D01*
X153937Y21108D02*
Y22289D01*
X135630Y104376D02*
X136811D01*
X136220Y103785D02*
Y104966D01*
X135630Y80753D02*
X136811D01*
X136220Y80163D02*
Y81344D01*
X141535Y68942D02*
X142717D01*
X142126Y68352D02*
Y69533D01*
X135630Y33509D02*
X136811D01*
X136220Y32919D02*
Y34100D01*
X129724Y139809D02*
X130905D01*
X130315Y139218D02*
Y140399D01*
X129724Y116186D02*
X130905D01*
X130315Y115596D02*
Y116777D01*
X129724Y92564D02*
X130905D01*
X130315Y91974D02*
Y93155D01*
X129724Y21698D02*
X130905D01*
X130315Y21108D02*
Y22289D01*
X117913Y139809D02*
X119094D01*
X118504Y139218D02*
Y140399D01*
X112008Y127998D02*
X113189D01*
X112598Y127407D02*
Y128588D01*
X117913Y116186D02*
X119094D01*
X118504Y115596D02*
Y116777D01*
X112008Y104376D02*
X113189D01*
X112598Y103785D02*
Y104966D01*
X117913Y92564D02*
X119094D01*
X118504Y91974D02*
Y93155D01*
X117913Y21698D02*
X119094D01*
X118504Y21108D02*
Y22289D01*
X100197Y127998D02*
X101378D01*
X100787Y127407D02*
Y128588D01*
X106102Y45320D02*
X107283D01*
X106693Y44730D02*
Y45911D01*
X106102Y21698D02*
X107283D01*
X106693Y21108D02*
Y22289D01*
X94291Y139809D02*
X95472D01*
X94882Y139218D02*
Y140399D01*
X88386Y127998D02*
X89567D01*
X88976Y127407D02*
Y128588D01*
X88386Y104376D02*
X89567D01*
X88976Y103785D02*
Y104966D01*
X88386Y80753D02*
X89567D01*
X88976Y80163D02*
Y81344D01*
X94291Y68942D02*
X95472D01*
X94882Y68352D02*
Y69533D01*
X88386Y33509D02*
X89567D01*
X88976Y32919D02*
Y34100D01*
X82480Y163431D02*
X83661D01*
X83071Y162840D02*
Y164021D01*
X76575Y151620D02*
X77756D01*
X77165Y151029D02*
Y152210D01*
X82480Y139809D02*
X83661D01*
X83071Y139218D02*
Y140399D01*
X76575Y127998D02*
X77756D01*
X77165Y127407D02*
Y128588D01*
X76575Y104376D02*
X77756D01*
X77165Y103785D02*
Y104966D01*
X82480Y92564D02*
X83661D01*
X83071Y91974D02*
Y93155D01*
X82480Y68942D02*
X83661D01*
X83071Y68352D02*
Y69533D01*
X76575Y33509D02*
X77756D01*
X77165Y32919D02*
Y34100D01*
X82480Y21698D02*
X83661D01*
X83071Y21108D02*
Y22289D01*
X70669Y163431D02*
X71850D01*
X71260Y162840D02*
Y164021D01*
X64764Y127998D02*
X65945D01*
X65354Y127407D02*
Y128588D01*
X64764Y104376D02*
X65945D01*
X65354Y103785D02*
Y104966D01*
X70669Y92564D02*
X71850D01*
X71260Y91974D02*
Y93155D01*
X64764Y80753D02*
X65945D01*
X65354Y80163D02*
Y81344D01*
X70669Y45320D02*
X71850D01*
X71260Y44730D02*
Y45911D01*
X64764Y33509D02*
X65945D01*
X65354Y32919D02*
Y34100D01*
X70669Y21698D02*
X71850D01*
X71260Y21108D02*
Y22289D01*
X64764Y9887D02*
X65945D01*
X65354Y9297D02*
Y10478D01*
X52953Y151620D02*
X54134D01*
X53543Y151029D02*
Y152210D01*
X58858Y139809D02*
X60039D01*
X59449Y139218D02*
Y140399D01*
X52953Y127998D02*
X54134D01*
X53543Y127407D02*
Y128588D01*
X58858Y116186D02*
X60039D01*
X59449Y115596D02*
Y116777D01*
X52953Y104376D02*
X54134D01*
X53543Y103785D02*
Y104966D01*
X58858Y92564D02*
X60039D01*
X59449Y91974D02*
Y93155D01*
X58858Y45320D02*
X60039D01*
X59449Y44730D02*
Y45911D01*
X52953Y33509D02*
X54134D01*
X53543Y32919D02*
Y34100D01*
X52953Y9887D02*
X54134D01*
X53543Y9297D02*
Y10478D01*
X47047Y163431D02*
X48228D01*
X47638Y162840D02*
Y164021D01*
X47047Y139809D02*
X48228D01*
X47638Y139218D02*
Y140399D01*
X47047Y116186D02*
X48228D01*
X47638Y115596D02*
Y116777D01*
X41142Y80753D02*
X42323D01*
X41732Y80163D02*
Y81344D01*
X47047Y68942D02*
X48228D01*
X47638Y68352D02*
Y69533D01*
X41142Y57131D02*
X42323D01*
X41732Y56541D02*
Y57722D01*
X47047Y45320D02*
X48228D01*
X47638Y44730D02*
Y45911D01*
X41142Y33509D02*
X42323D01*
X41732Y32919D02*
Y34100D01*
X47047Y21698D02*
X48228D01*
X47638Y21108D02*
Y22289D01*
X41142Y9887D02*
X42323D01*
X41732Y9297D02*
Y10478D01*
X29331Y151620D02*
X30512D01*
X29921Y151029D02*
Y152210D01*
X35236Y139809D02*
X36417D01*
X35827Y139218D02*
Y140399D01*
X29331Y127998D02*
X30512D01*
X29921Y127407D02*
Y128588D01*
X35236Y116186D02*
X36417D01*
X35827Y115596D02*
Y116777D01*
X29331Y104376D02*
X30512D01*
X29921Y103785D02*
Y104966D01*
X29331Y57131D02*
X30512D01*
X29921Y56541D02*
Y57722D01*
X29331Y33509D02*
X30512D01*
X29921Y32919D02*
Y34100D01*
X35236Y21698D02*
X36417D01*
X35827Y21108D02*
Y22289D01*
X29331Y9887D02*
X30512D01*
X29921Y9297D02*
Y10478D01*
X23425Y163431D02*
X24606D01*
X24016Y162840D02*
Y164021D01*
X17520Y151620D02*
X18701D01*
X18110Y151029D02*
Y152210D01*
X23425Y139809D02*
X24606D01*
X24016Y139218D02*
Y140399D01*
X17520Y127998D02*
X18701D01*
X18110Y127407D02*
Y128588D01*
X23425Y116186D02*
X24606D01*
X24016Y115596D02*
Y116777D01*
X17520Y104376D02*
X18701D01*
X18110Y103785D02*
Y104966D01*
X23425Y68942D02*
X24606D01*
X24016Y68352D02*
Y69533D01*
X23425Y45320D02*
X24606D01*
X24016Y44730D02*
Y45911D01*
X17520Y33509D02*
X18701D01*
X18110Y32919D02*
Y34100D01*
X23425Y21698D02*
X24606D01*
X24016Y21108D02*
Y22289D01*
X17520Y9887D02*
X18701D01*
X18110Y9297D02*
Y10478D01*
X11614Y163431D02*
X12795D01*
X12205Y162840D02*
Y164021D01*
X5709Y151620D02*
X6890D01*
X6299Y151029D02*
Y152210D01*
X11614Y139809D02*
X12795D01*
X12205Y139218D02*
Y140399D01*
X5709Y127998D02*
X6890D01*
X6299Y127407D02*
Y128588D01*
X11614Y116186D02*
X12795D01*
X12205Y115596D02*
Y116777D01*
X5709Y104376D02*
X6890D01*
X6299Y103785D02*
Y104966D01*
X5709Y57131D02*
X6890D01*
X6299Y56541D02*
Y57722D01*
X11614Y45320D02*
X12795D01*
X12205Y44730D02*
Y45911D01*
X5709Y33509D02*
X6890D01*
X6299Y32919D02*
Y34100D01*
X11614Y21698D02*
X12795D01*
X12205Y21108D02*
Y22289D01*
X182200Y13400D02*
X185000D01*
X183600Y12000D02*
Y14800D01*
X228100Y37000D02*
X230900D01*
X229500Y35600D02*
Y38400D01*
X18500Y61800D02*
X21300D01*
X19900Y60400D02*
Y63200D01*
X196700Y125700D02*
X199500D01*
X198100Y124300D02*
Y127100D01*
X216200Y125800D02*
X219000D01*
X217600Y124400D02*
Y127200D01*
X148600Y32600D02*
X151400D01*
X150000Y31200D02*
Y34000D01*
X122600Y66600D02*
X125400D01*
X124000Y65200D02*
Y68000D01*
X166600Y30100D02*
X169400D01*
X168000Y28700D02*
Y31500D01*
X158600Y30100D02*
X161400D01*
X160000Y28700D02*
Y31500D01*
X100100Y81600D02*
X102900D01*
X101500Y80200D02*
Y83000D01*
X107100Y72100D02*
X109900D01*
X108500Y70700D02*
Y73500D01*
X107941Y56435D02*
X108728D01*
X108335Y56041D02*
Y56828D01*
X107941Y60765D02*
X108728D01*
X108335Y60372D02*
Y61159D01*
X112272Y56435D02*
X113059D01*
X112665Y56041D02*
Y56828D01*
X112272Y60765D02*
X113059D01*
X112665Y60372D02*
Y61159D01*
X123600Y55100D02*
X126400D01*
X125000Y53700D02*
Y56500D01*
X123600Y48600D02*
X126400D01*
X125000Y47200D02*
Y50000D01*
X106600Y39600D02*
X109400D01*
X108000Y38200D02*
Y41000D01*
X114100Y39600D02*
X116900D01*
X115500Y38200D02*
Y41000D01*
M02*
