G04*
G04 #@! TF.GenerationSoftware,Altium Limited,Altium Designer,19.1.5 (86)*
G04*
G04 Layer_Color=8388736*
%FSLAX25Y25*%
%MOIN*%
G70*
G01*
G75*
%ADD29R,0.04737X0.04343*%
%ADD30R,0.08083X0.13792*%
%ADD31R,0.04737X0.04737*%
%ADD32R,0.04737X0.04737*%
%ADD33R,0.04343X0.04737*%
%ADD34R,0.11627X0.11627*%
%ADD35O,0.03950X0.01784*%
%ADD36O,0.01784X0.03950*%
%ADD37R,0.08280X0.08280*%
%ADD38R,0.06312X0.07099*%
%ADD39R,0.06115X0.02375*%
%ADD40R,0.05524X0.02769*%
%ADD41R,0.02769X0.05524*%
%ADD42R,0.05131X0.04658*%
%ADD43O,0.06737X0.12674*%
%ADD44C,0.07217*%
%ADD45R,0.10839X0.10839*%
%ADD46C,0.10839*%
%ADD47R,0.08083X0.08083*%
%ADD48C,0.08083*%
%ADD49O,0.07887X0.04343*%
%ADD50C,0.02769*%
%ADD51C,0.06800*%
%ADD52C,0.05800*%
D29*
X178500Y75253D02*
D03*
Y81946D02*
D03*
X227300Y125753D02*
D03*
Y132447D02*
D03*
X204500Y42593D02*
D03*
Y35900D02*
D03*
X205000Y76793D02*
D03*
Y70100D02*
D03*
X241300Y78354D02*
D03*
Y85046D02*
D03*
X94000Y41447D02*
D03*
Y34754D02*
D03*
D30*
X75500Y58600D02*
D03*
X66248D02*
D03*
D31*
X145500Y110350D02*
D03*
Y116650D02*
D03*
X162100Y87250D02*
D03*
Y93550D02*
D03*
X135700Y86950D02*
D03*
Y93250D02*
D03*
X107000Y100250D02*
D03*
Y93950D02*
D03*
X85000Y112450D02*
D03*
Y106150D02*
D03*
X72400Y112150D02*
D03*
Y105850D02*
D03*
X207300Y131950D02*
D03*
Y125650D02*
D03*
X237500Y107450D02*
D03*
Y101150D02*
D03*
X207000Y101100D02*
D03*
Y107399D02*
D03*
X222200Y101150D02*
D03*
Y107450D02*
D03*
X196900Y7250D02*
D03*
Y13550D02*
D03*
X167500Y13299D02*
D03*
Y7000D02*
D03*
X141600Y7450D02*
D03*
Y13750D02*
D03*
X178500Y49950D02*
D03*
Y56250D02*
D03*
D32*
X216650Y160300D02*
D03*
X222950D02*
D03*
X98150Y115900D02*
D03*
X104450D02*
D03*
D33*
X215253Y36200D02*
D03*
X221947D02*
D03*
X29553Y48500D02*
D03*
X36246D02*
D03*
X122153Y26100D02*
D03*
X128847D02*
D03*
D34*
X110500Y58600D02*
D03*
D35*
X118276Y62537D02*
D03*
Y60568D02*
D03*
Y58600D02*
D03*
Y56631D02*
D03*
Y54663D02*
D03*
X102724D02*
D03*
Y56631D02*
D03*
Y58600D02*
D03*
Y60568D02*
D03*
Y62537D02*
D03*
D36*
X114437Y50824D02*
D03*
X112469D02*
D03*
X110500D02*
D03*
X108531D02*
D03*
X106563D02*
D03*
Y66376D02*
D03*
X108531D02*
D03*
X110500D02*
D03*
X112469D02*
D03*
X114437D02*
D03*
D37*
X6268Y77976D02*
D03*
Y87424D02*
D03*
D38*
X15914Y70102D02*
D03*
Y95298D02*
D03*
D39*
X16800Y77582D02*
D03*
Y80141D02*
D03*
Y82700D02*
D03*
Y85259D02*
D03*
Y87818D02*
D03*
D40*
X166732Y68470D02*
D03*
Y65793D02*
D03*
Y63116D02*
D03*
Y60439D02*
D03*
Y57761D02*
D03*
Y55084D02*
D03*
Y52407D02*
D03*
Y49730D02*
D03*
X133268D02*
D03*
Y52407D02*
D03*
Y55084D02*
D03*
Y57761D02*
D03*
Y60439D02*
D03*
Y63116D02*
D03*
Y65793D02*
D03*
Y68470D02*
D03*
D41*
X159370Y42368D02*
D03*
X156693D02*
D03*
X154016D02*
D03*
X151339D02*
D03*
X148661D02*
D03*
X145984D02*
D03*
X143307D02*
D03*
X140630D02*
D03*
Y75832D02*
D03*
X143307D02*
D03*
X145984D02*
D03*
X148661D02*
D03*
X151339D02*
D03*
X154016D02*
D03*
X156693D02*
D03*
X159370D02*
D03*
D42*
X144169Y86753D02*
D03*
X152831D02*
D03*
Y93446D02*
D03*
X144169D02*
D03*
D43*
X52321Y89867D02*
D03*
X42479D02*
D03*
D44*
X163705Y137207D02*
D03*
X101342D02*
D03*
D45*
X171500Y153900D02*
D03*
D46*
X155909D02*
D03*
X140319D02*
D03*
X124728D02*
D03*
X109138D02*
D03*
X93547D02*
D03*
D47*
X28800Y171500D02*
D03*
D48*
X48800D02*
D03*
D49*
X6268Y69708D02*
D03*
Y95692D02*
D03*
D50*
Y69708D02*
D03*
Y95692D02*
D03*
X108335Y56435D02*
D03*
Y60765D02*
D03*
X112665Y56435D02*
D03*
Y60765D02*
D03*
D51*
X8200Y170200D02*
D03*
X248800Y170100D02*
D03*
X6800Y8100D02*
D03*
X248600Y7900D02*
D03*
D52*
X183600Y13400D02*
D03*
X229500Y37000D02*
D03*
X19900Y61800D02*
D03*
X198100Y125700D02*
D03*
X217600Y125800D02*
D03*
X150000Y32600D02*
D03*
X124000Y66600D02*
D03*
X168000Y30100D02*
D03*
X160000D02*
D03*
X101500Y81600D02*
D03*
X108500Y72100D02*
D03*
X125000Y55100D02*
D03*
Y48600D02*
D03*
X108000Y39600D02*
D03*
X115500D02*
D03*
M02*
