G04 #@! TF.GenerationSoftware,KiCad,Pcbnew,(5.1.5)-3*
G04 #@! TF.CreationDate,2020-05-14T22:33:26-07:00*
G04 #@! TF.ProjectId,circuit_pj,63697263-7569-4745-9f70-6a2e6b696361,rev?*
G04 #@! TF.SameCoordinates,Original*
G04 #@! TF.FileFunction,Soldermask,Bot*
G04 #@! TF.FilePolarity,Negative*
%FSLAX46Y46*%
G04 Gerber Fmt 4.6, Leading zero omitted, Abs format (unit mm)*
G04 Created by KiCad (PCBNEW (5.1.5)-3) date 2020-05-14 22:33:26*
%MOMM*%
%LPD*%
G04 APERTURE LIST*
%ADD10C,1.500000*%
%ADD11O,1.600000X1.600000*%
%ADD12R,1.600000X1.600000*%
%ADD13R,1.700000X1.700000*%
%ADD14C,1.800000*%
%ADD15R,1.800000X1.800000*%
%ADD16C,2.000000*%
%ADD17R,2.000000X2.000000*%
%ADD18C,1.700000*%
%ADD19O,2.400000X2.400000*%
%ADD20C,2.400000*%
%ADD21C,2.100000*%
%ADD22R,2.100000X2.100000*%
%ADD23C,1.600000*%
%ADD24R,1.050000X1.500000*%
%ADD25O,1.050000X1.500000*%
%ADD26R,1.500000X1.050000*%
%ADD27O,1.500000X1.050000*%
%ADD28C,5.000000*%
G04 APERTURE END LIST*
D10*
X117348000Y-111332000D03*
X117348000Y-116332000D03*
D11*
X137864000Y-89138000D03*
X122624000Y-122158000D03*
X137864000Y-91678000D03*
X122624000Y-119618000D03*
X137864000Y-94218000D03*
X122624000Y-117078000D03*
X137864000Y-96758000D03*
X122624000Y-114538000D03*
X137864000Y-99298000D03*
X122624000Y-111998000D03*
X137864000Y-101838000D03*
X122624000Y-109458000D03*
X137864000Y-104378000D03*
X122624000Y-106918000D03*
X137864000Y-106918000D03*
X122624000Y-104378000D03*
X137864000Y-109458000D03*
X122624000Y-101838000D03*
X137864000Y-111998000D03*
X122624000Y-99298000D03*
X137864000Y-114538000D03*
X122624000Y-96758000D03*
X137864000Y-117078000D03*
X122624000Y-94218000D03*
X137864000Y-119618000D03*
X122624000Y-91678000D03*
X137864000Y-122158000D03*
D12*
X122624000Y-89138000D03*
D11*
X131572000Y-83312000D03*
D12*
X123952000Y-83312000D03*
D11*
X108712000Y-99060000D03*
D12*
X108712000Y-91440000D03*
D13*
X104394000Y-97282000D03*
X180340000Y-121412000D03*
D14*
X144272000Y-91440000D03*
D15*
X141732000Y-91440000D03*
D14*
X144272000Y-100076000D03*
D15*
X141732000Y-100076000D03*
D14*
X144272000Y-108204000D03*
D15*
X141732000Y-108204000D03*
D16*
X166604000Y-104648000D03*
D17*
X159004000Y-104648000D03*
D18*
X100076000Y-93472000D03*
X93576000Y-93472000D03*
X100076000Y-88972000D03*
X93576000Y-88972000D03*
D19*
X169164000Y-83058000D03*
D20*
X153924000Y-83058000D03*
D19*
X176276000Y-82804000D03*
D20*
X176276000Y-98044000D03*
D19*
X165100000Y-88900000D03*
D20*
X149860000Y-88900000D03*
D19*
X110236000Y-122428000D03*
D20*
X110236000Y-107188000D03*
D19*
X104648000Y-107188000D03*
D20*
X104648000Y-122428000D03*
D19*
X134874000Y-83058000D03*
D20*
X150114000Y-83058000D03*
D19*
X176276000Y-101600000D03*
D20*
X176276000Y-116840000D03*
D19*
X181864000Y-101600000D03*
D20*
X181864000Y-116840000D03*
D19*
X165100000Y-93980000D03*
D20*
X149860000Y-93980000D03*
D19*
X141224000Y-115316000D03*
D20*
X156464000Y-115316000D03*
D19*
X160020000Y-121412000D03*
D20*
X175260000Y-121412000D03*
X156464000Y-121158000D03*
D19*
X141224000Y-121158000D03*
D21*
X114300000Y-84328000D03*
X116840000Y-84328000D03*
D22*
X119380000Y-84328000D03*
D21*
X106680000Y-84328000D03*
D22*
X109220000Y-84328000D03*
D23*
X96560000Y-119380000D03*
X99060000Y-119380000D03*
X113832000Y-93472000D03*
X116332000Y-93472000D03*
X99020000Y-111760000D03*
X96520000Y-111760000D03*
D11*
X111894000Y-102108000D03*
D23*
X104394000Y-102108000D03*
D24*
X169164000Y-94488000D03*
D25*
X171704000Y-94488000D03*
X170434000Y-94488000D03*
D26*
X169672000Y-113792000D03*
D27*
X169672000Y-116332000D03*
X169672000Y-115062000D03*
D26*
X150368000Y-108204000D03*
D27*
X150368000Y-105664000D03*
X150368000Y-106934000D03*
D26*
X161036000Y-114300000D03*
D27*
X161036000Y-116840000D03*
X161036000Y-115570000D03*
D26*
X150368000Y-101600000D03*
D27*
X150368000Y-99060000D03*
X150368000Y-100330000D03*
D28*
X94234000Y-82804000D03*
X182118000Y-82804000D03*
M02*
