G04 #@! TF.GenerationSoftware,KiCad,Pcbnew,(5.1.5)-3*
G04 #@! TF.CreationDate,2020-05-14T22:33:26-07:00*
G04 #@! TF.ProjectId,circuit_pj,63697263-7569-4745-9f70-6a2e6b696361,rev?*
G04 #@! TF.SameCoordinates,Original*
G04 #@! TF.FileFunction,Soldermask,Top*
G04 #@! TF.FilePolarity,Negative*
%FSLAX46Y46*%
G04 Gerber Fmt 4.6, Leading zero omitted, Abs format (unit mm)*
G04 Created by KiCad (PCBNEW (5.1.5)-3) date 2020-05-14 22:33:26*
%MOMM*%
%LPD*%
G04 APERTURE LIST*
%ADD10C,1.500000*%
%ADD11O,1.600000X1.600000*%
%ADD12R,1.600000X1.600000*%
%ADD13R,1.700000X1.700000*%
%ADD14C,1.800000*%
%ADD15R,1.800000X1.800000*%
%ADD16C,2.000000*%
%ADD17R,2.000000X2.000000*%
%ADD18R,1.500000X2.000000*%
%ADD19R,3.800000X2.000000*%
%ADD20C,1.700000*%
%ADD21O,2.400000X2.400000*%
%ADD22C,2.400000*%
%ADD23C,0.100000*%
%ADD24C,2.100000*%
%ADD25R,2.100000X2.100000*%
%ADD26C,1.600000*%
%ADD27R,1.050000X1.500000*%
%ADD28O,1.050000X1.500000*%
%ADD29R,1.500000X1.050000*%
%ADD30O,1.500000X1.050000*%
%ADD31C,5.000000*%
G04 APERTURE END LIST*
D10*
X117348000Y-111332000D03*
X117348000Y-116332000D03*
D11*
X137864000Y-89138000D03*
X122624000Y-122158000D03*
X137864000Y-91678000D03*
X122624000Y-119618000D03*
X137864000Y-94218000D03*
X122624000Y-117078000D03*
X137864000Y-96758000D03*
X122624000Y-114538000D03*
X137864000Y-99298000D03*
X122624000Y-111998000D03*
X137864000Y-101838000D03*
X122624000Y-109458000D03*
X137864000Y-104378000D03*
X122624000Y-106918000D03*
X137864000Y-106918000D03*
X122624000Y-104378000D03*
X137864000Y-109458000D03*
X122624000Y-101838000D03*
X137864000Y-111998000D03*
X122624000Y-99298000D03*
X137864000Y-114538000D03*
X122624000Y-96758000D03*
X137864000Y-117078000D03*
X122624000Y-94218000D03*
X137864000Y-119618000D03*
X122624000Y-91678000D03*
X137864000Y-122158000D03*
D12*
X122624000Y-89138000D03*
D11*
X131572000Y-83312000D03*
D12*
X123952000Y-83312000D03*
D11*
X108712000Y-99060000D03*
D12*
X108712000Y-91440000D03*
D13*
X104394000Y-97282000D03*
X180340000Y-121412000D03*
D14*
X144272000Y-91440000D03*
D15*
X141732000Y-91440000D03*
D14*
X144272000Y-100076000D03*
D15*
X141732000Y-100076000D03*
D14*
X144272000Y-108204000D03*
D15*
X141732000Y-108204000D03*
D16*
X166604000Y-104648000D03*
D17*
X159004000Y-104648000D03*
D18*
X100344000Y-98450000D03*
X95744000Y-98450000D03*
X98044000Y-98450000D03*
D19*
X98044000Y-104750000D03*
D20*
X100076000Y-93472000D03*
X93576000Y-93472000D03*
X100076000Y-88972000D03*
X93576000Y-88972000D03*
D21*
X169164000Y-83058000D03*
D22*
X153924000Y-83058000D03*
D21*
X176276000Y-82804000D03*
D22*
X176276000Y-98044000D03*
D21*
X165100000Y-88900000D03*
D22*
X149860000Y-88900000D03*
D21*
X110236000Y-122428000D03*
D22*
X110236000Y-107188000D03*
D21*
X104648000Y-107188000D03*
D22*
X104648000Y-122428000D03*
D21*
X134874000Y-83058000D03*
D22*
X150114000Y-83058000D03*
D21*
X176276000Y-101600000D03*
D22*
X176276000Y-116840000D03*
D21*
X181864000Y-101600000D03*
D22*
X181864000Y-116840000D03*
D21*
X165100000Y-93980000D03*
D22*
X149860000Y-93980000D03*
D21*
X141224000Y-115316000D03*
D22*
X156464000Y-115316000D03*
D21*
X160020000Y-121412000D03*
D22*
X175260000Y-121412000D03*
X156464000Y-121158000D03*
D21*
X141224000Y-121158000D03*
D23*
G36*
X117601756Y-102585806D02*
G01*
X117638159Y-102591206D01*
X117673857Y-102600147D01*
X117708506Y-102612545D01*
X117741774Y-102628280D01*
X117773339Y-102647199D01*
X117802897Y-102669121D01*
X117830165Y-102693835D01*
X117854879Y-102721103D01*
X117876801Y-102750661D01*
X117895720Y-102782226D01*
X117911455Y-102815494D01*
X117923853Y-102850143D01*
X117932794Y-102885841D01*
X117938194Y-102922244D01*
X117940000Y-102959000D01*
X117940000Y-103709000D01*
X117938194Y-103745756D01*
X117932794Y-103782159D01*
X117923853Y-103817857D01*
X117911455Y-103852506D01*
X117895720Y-103885774D01*
X117876801Y-103917339D01*
X117854879Y-103946897D01*
X117830165Y-103974165D01*
X117802897Y-103998879D01*
X117773339Y-104020801D01*
X117741774Y-104039720D01*
X117708506Y-104055455D01*
X117673857Y-104067853D01*
X117638159Y-104076794D01*
X117601756Y-104082194D01*
X117565000Y-104084000D01*
X116115000Y-104084000D01*
X116078244Y-104082194D01*
X116041841Y-104076794D01*
X116006143Y-104067853D01*
X115971494Y-104055455D01*
X115938226Y-104039720D01*
X115906661Y-104020801D01*
X115877103Y-103998879D01*
X115849835Y-103974165D01*
X115825121Y-103946897D01*
X115803199Y-103917339D01*
X115784280Y-103885774D01*
X115768545Y-103852506D01*
X115756147Y-103817857D01*
X115747206Y-103782159D01*
X115741806Y-103745756D01*
X115740000Y-103709000D01*
X115740000Y-102959000D01*
X115741806Y-102922244D01*
X115747206Y-102885841D01*
X115756147Y-102850143D01*
X115768545Y-102815494D01*
X115784280Y-102782226D01*
X115803199Y-102750661D01*
X115825121Y-102721103D01*
X115849835Y-102693835D01*
X115877103Y-102669121D01*
X115906661Y-102647199D01*
X115938226Y-102628280D01*
X115971494Y-102612545D01*
X116006143Y-102600147D01*
X116041841Y-102591206D01*
X116078244Y-102585806D01*
X116115000Y-102584000D01*
X117565000Y-102584000D01*
X117601756Y-102585806D01*
G37*
G36*
X117601756Y-97085806D02*
G01*
X117638159Y-97091206D01*
X117673857Y-97100147D01*
X117708506Y-97112545D01*
X117741774Y-97128280D01*
X117773339Y-97147199D01*
X117802897Y-97169121D01*
X117830165Y-97193835D01*
X117854879Y-97221103D01*
X117876801Y-97250661D01*
X117895720Y-97282226D01*
X117911455Y-97315494D01*
X117923853Y-97350143D01*
X117932794Y-97385841D01*
X117938194Y-97422244D01*
X117940000Y-97459000D01*
X117940000Y-98209000D01*
X117938194Y-98245756D01*
X117932794Y-98282159D01*
X117923853Y-98317857D01*
X117911455Y-98352506D01*
X117895720Y-98385774D01*
X117876801Y-98417339D01*
X117854879Y-98446897D01*
X117830165Y-98474165D01*
X117802897Y-98498879D01*
X117773339Y-98520801D01*
X117741774Y-98539720D01*
X117708506Y-98555455D01*
X117673857Y-98567853D01*
X117638159Y-98576794D01*
X117601756Y-98582194D01*
X117565000Y-98584000D01*
X116115000Y-98584000D01*
X116078244Y-98582194D01*
X116041841Y-98576794D01*
X116006143Y-98567853D01*
X115971494Y-98555455D01*
X115938226Y-98539720D01*
X115906661Y-98520801D01*
X115877103Y-98498879D01*
X115849835Y-98474165D01*
X115825121Y-98446897D01*
X115803199Y-98417339D01*
X115784280Y-98385774D01*
X115768545Y-98352506D01*
X115756147Y-98317857D01*
X115747206Y-98282159D01*
X115741806Y-98245756D01*
X115740000Y-98209000D01*
X115740000Y-97459000D01*
X115741806Y-97422244D01*
X115747206Y-97385841D01*
X115756147Y-97350143D01*
X115768545Y-97315494D01*
X115784280Y-97282226D01*
X115803199Y-97250661D01*
X115825121Y-97221103D01*
X115849835Y-97193835D01*
X115877103Y-97169121D01*
X115906661Y-97147199D01*
X115938226Y-97128280D01*
X115971494Y-97112545D01*
X116006143Y-97100147D01*
X116041841Y-97091206D01*
X116078244Y-97085806D01*
X116115000Y-97084000D01*
X117565000Y-97084000D01*
X117601756Y-97085806D01*
G37*
D24*
X114300000Y-84328000D03*
X116840000Y-84328000D03*
D25*
X119380000Y-84328000D03*
D24*
X106680000Y-84328000D03*
D25*
X109220000Y-84328000D03*
D23*
G36*
X119322504Y-120088204D02*
G01*
X119346773Y-120091804D01*
X119370571Y-120097765D01*
X119393671Y-120106030D01*
X119415849Y-120116520D01*
X119436893Y-120129133D01*
X119456598Y-120143747D01*
X119474777Y-120160223D01*
X119491253Y-120178402D01*
X119505867Y-120198107D01*
X119518480Y-120219151D01*
X119528970Y-120241329D01*
X119537235Y-120264429D01*
X119543196Y-120288227D01*
X119546796Y-120312496D01*
X119548000Y-120337000D01*
X119548000Y-122487000D01*
X119546796Y-122511504D01*
X119543196Y-122535773D01*
X119537235Y-122559571D01*
X119528970Y-122582671D01*
X119518480Y-122604849D01*
X119505867Y-122625893D01*
X119491253Y-122645598D01*
X119474777Y-122663777D01*
X119456598Y-122680253D01*
X119436893Y-122694867D01*
X119415849Y-122707480D01*
X119393671Y-122717970D01*
X119370571Y-122726235D01*
X119346773Y-122732196D01*
X119322504Y-122735796D01*
X119298000Y-122737000D01*
X118373000Y-122737000D01*
X118348496Y-122735796D01*
X118324227Y-122732196D01*
X118300429Y-122726235D01*
X118277329Y-122717970D01*
X118255151Y-122707480D01*
X118234107Y-122694867D01*
X118214402Y-122680253D01*
X118196223Y-122663777D01*
X118179747Y-122645598D01*
X118165133Y-122625893D01*
X118152520Y-122604849D01*
X118142030Y-122582671D01*
X118133765Y-122559571D01*
X118127804Y-122535773D01*
X118124204Y-122511504D01*
X118123000Y-122487000D01*
X118123000Y-120337000D01*
X118124204Y-120312496D01*
X118127804Y-120288227D01*
X118133765Y-120264429D01*
X118142030Y-120241329D01*
X118152520Y-120219151D01*
X118165133Y-120198107D01*
X118179747Y-120178402D01*
X118196223Y-120160223D01*
X118214402Y-120143747D01*
X118234107Y-120129133D01*
X118255151Y-120116520D01*
X118277329Y-120106030D01*
X118300429Y-120097765D01*
X118324227Y-120091804D01*
X118348496Y-120088204D01*
X118373000Y-120087000D01*
X119298000Y-120087000D01*
X119322504Y-120088204D01*
G37*
G36*
X116347504Y-120088204D02*
G01*
X116371773Y-120091804D01*
X116395571Y-120097765D01*
X116418671Y-120106030D01*
X116440849Y-120116520D01*
X116461893Y-120129133D01*
X116481598Y-120143747D01*
X116499777Y-120160223D01*
X116516253Y-120178402D01*
X116530867Y-120198107D01*
X116543480Y-120219151D01*
X116553970Y-120241329D01*
X116562235Y-120264429D01*
X116568196Y-120288227D01*
X116571796Y-120312496D01*
X116573000Y-120337000D01*
X116573000Y-122487000D01*
X116571796Y-122511504D01*
X116568196Y-122535773D01*
X116562235Y-122559571D01*
X116553970Y-122582671D01*
X116543480Y-122604849D01*
X116530867Y-122625893D01*
X116516253Y-122645598D01*
X116499777Y-122663777D01*
X116481598Y-122680253D01*
X116461893Y-122694867D01*
X116440849Y-122707480D01*
X116418671Y-122717970D01*
X116395571Y-122726235D01*
X116371773Y-122732196D01*
X116347504Y-122735796D01*
X116323000Y-122737000D01*
X115398000Y-122737000D01*
X115373496Y-122735796D01*
X115349227Y-122732196D01*
X115325429Y-122726235D01*
X115302329Y-122717970D01*
X115280151Y-122707480D01*
X115259107Y-122694867D01*
X115239402Y-122680253D01*
X115221223Y-122663777D01*
X115204747Y-122645598D01*
X115190133Y-122625893D01*
X115177520Y-122604849D01*
X115167030Y-122582671D01*
X115158765Y-122559571D01*
X115152804Y-122535773D01*
X115149204Y-122511504D01*
X115148000Y-122487000D01*
X115148000Y-120337000D01*
X115149204Y-120312496D01*
X115152804Y-120288227D01*
X115158765Y-120264429D01*
X115167030Y-120241329D01*
X115177520Y-120219151D01*
X115190133Y-120198107D01*
X115204747Y-120178402D01*
X115221223Y-120160223D01*
X115239402Y-120143747D01*
X115259107Y-120129133D01*
X115280151Y-120116520D01*
X115302329Y-120106030D01*
X115325429Y-120097765D01*
X115349227Y-120091804D01*
X115373496Y-120088204D01*
X115398000Y-120087000D01*
X116323000Y-120087000D01*
X116347504Y-120088204D01*
G37*
G36*
X116347504Y-105356204D02*
G01*
X116371773Y-105359804D01*
X116395571Y-105365765D01*
X116418671Y-105374030D01*
X116440849Y-105384520D01*
X116461893Y-105397133D01*
X116481598Y-105411747D01*
X116499777Y-105428223D01*
X116516253Y-105446402D01*
X116530867Y-105466107D01*
X116543480Y-105487151D01*
X116553970Y-105509329D01*
X116562235Y-105532429D01*
X116568196Y-105556227D01*
X116571796Y-105580496D01*
X116573000Y-105605000D01*
X116573000Y-107755000D01*
X116571796Y-107779504D01*
X116568196Y-107803773D01*
X116562235Y-107827571D01*
X116553970Y-107850671D01*
X116543480Y-107872849D01*
X116530867Y-107893893D01*
X116516253Y-107913598D01*
X116499777Y-107931777D01*
X116481598Y-107948253D01*
X116461893Y-107962867D01*
X116440849Y-107975480D01*
X116418671Y-107985970D01*
X116395571Y-107994235D01*
X116371773Y-108000196D01*
X116347504Y-108003796D01*
X116323000Y-108005000D01*
X115398000Y-108005000D01*
X115373496Y-108003796D01*
X115349227Y-108000196D01*
X115325429Y-107994235D01*
X115302329Y-107985970D01*
X115280151Y-107975480D01*
X115259107Y-107962867D01*
X115239402Y-107948253D01*
X115221223Y-107931777D01*
X115204747Y-107913598D01*
X115190133Y-107893893D01*
X115177520Y-107872849D01*
X115167030Y-107850671D01*
X115158765Y-107827571D01*
X115152804Y-107803773D01*
X115149204Y-107779504D01*
X115148000Y-107755000D01*
X115148000Y-105605000D01*
X115149204Y-105580496D01*
X115152804Y-105556227D01*
X115158765Y-105532429D01*
X115167030Y-105509329D01*
X115177520Y-105487151D01*
X115190133Y-105466107D01*
X115204747Y-105446402D01*
X115221223Y-105428223D01*
X115239402Y-105411747D01*
X115259107Y-105397133D01*
X115280151Y-105384520D01*
X115302329Y-105374030D01*
X115325429Y-105365765D01*
X115349227Y-105359804D01*
X115373496Y-105356204D01*
X115398000Y-105355000D01*
X116323000Y-105355000D01*
X116347504Y-105356204D01*
G37*
G36*
X119322504Y-105356204D02*
G01*
X119346773Y-105359804D01*
X119370571Y-105365765D01*
X119393671Y-105374030D01*
X119415849Y-105384520D01*
X119436893Y-105397133D01*
X119456598Y-105411747D01*
X119474777Y-105428223D01*
X119491253Y-105446402D01*
X119505867Y-105466107D01*
X119518480Y-105487151D01*
X119528970Y-105509329D01*
X119537235Y-105532429D01*
X119543196Y-105556227D01*
X119546796Y-105580496D01*
X119548000Y-105605000D01*
X119548000Y-107755000D01*
X119546796Y-107779504D01*
X119543196Y-107803773D01*
X119537235Y-107827571D01*
X119528970Y-107850671D01*
X119518480Y-107872849D01*
X119505867Y-107893893D01*
X119491253Y-107913598D01*
X119474777Y-107931777D01*
X119456598Y-107948253D01*
X119436893Y-107962867D01*
X119415849Y-107975480D01*
X119393671Y-107985970D01*
X119370571Y-107994235D01*
X119346773Y-108000196D01*
X119322504Y-108003796D01*
X119298000Y-108005000D01*
X118373000Y-108005000D01*
X118348496Y-108003796D01*
X118324227Y-108000196D01*
X118300429Y-107994235D01*
X118277329Y-107985970D01*
X118255151Y-107975480D01*
X118234107Y-107962867D01*
X118214402Y-107948253D01*
X118196223Y-107931777D01*
X118179747Y-107913598D01*
X118165133Y-107893893D01*
X118152520Y-107872849D01*
X118142030Y-107850671D01*
X118133765Y-107827571D01*
X118127804Y-107803773D01*
X118124204Y-107779504D01*
X118123000Y-107755000D01*
X118123000Y-105605000D01*
X118124204Y-105580496D01*
X118127804Y-105556227D01*
X118133765Y-105532429D01*
X118142030Y-105509329D01*
X118152520Y-105487151D01*
X118165133Y-105466107D01*
X118179747Y-105446402D01*
X118196223Y-105428223D01*
X118214402Y-105411747D01*
X118234107Y-105397133D01*
X118255151Y-105384520D01*
X118277329Y-105374030D01*
X118300429Y-105365765D01*
X118324227Y-105359804D01*
X118348496Y-105356204D01*
X118373000Y-105355000D01*
X119298000Y-105355000D01*
X119322504Y-105356204D01*
G37*
D26*
X96560000Y-119380000D03*
X99060000Y-119380000D03*
X113832000Y-93472000D03*
X116332000Y-93472000D03*
X99020000Y-111760000D03*
X96520000Y-111760000D03*
D11*
X111894000Y-102108000D03*
D26*
X104394000Y-102108000D03*
D27*
X169164000Y-94488000D03*
D28*
X171704000Y-94488000D03*
X170434000Y-94488000D03*
D29*
X169672000Y-113792000D03*
D30*
X169672000Y-116332000D03*
X169672000Y-115062000D03*
D29*
X150368000Y-108204000D03*
D30*
X150368000Y-105664000D03*
X150368000Y-106934000D03*
D29*
X161036000Y-114300000D03*
D30*
X161036000Y-116840000D03*
X161036000Y-115570000D03*
D29*
X150368000Y-101600000D03*
D30*
X150368000Y-99060000D03*
X150368000Y-100330000D03*
D31*
X94234000Y-82804000D03*
X182118000Y-82804000D03*
M02*
