M48
; DRILL file {KiCad (5.1.5)-3} date 14/05/20 10:34:03 PM
; FORMAT={-:-/ absolute / inch / decimal}
; #@! TF.CreationDate,2020-05-14T22:34:03-07:00
; #@! TF.GenerationSoftware,Kicad,Pcbnew,(5.1.5)-3
; #@! TF.FileFunction,Plated,1,2,PTH
FMAT,2
INCH
T1C0.0157
T2C0.0295
T3C0.0315
T4C0.0354
T5C0.0394
T6C0.0433
T7C0.0472
T8C0.1260
%
G90
G05
T1
X3.68Y-3.82
X4.12Y-3.68
X4.66Y-4.5
X4.72Y-4.06
X5.8Y-3.82
X6.78Y-4.76
T2
X5.92Y-4.16
X5.92Y-4.21
X5.92Y-4.26
X6.68Y-4.48
X6.68Y-4.53
X6.68Y-4.58
X5.92Y-3.9
X5.92Y-3.95
X5.92Y-4.0
X6.34Y-4.5
X6.34Y-4.55
X6.34Y-4.6
X6.66Y-3.72
X6.71Y-3.72
X6.76Y-3.72
T3
X3.8Y-4.4
X3.8984Y-4.4
X4.11Y-4.02
X4.4053Y-4.02
X4.4816Y-3.68
X4.58Y-3.68
X4.88Y-3.28
X5.18Y-3.28
X4.8277Y-3.5094
X4.8277Y-3.6094
X4.8277Y-3.7094
X4.8277Y-3.8094
X4.8277Y-3.9094
X4.8277Y-4.0094
X4.8277Y-4.1094
X4.8277Y-4.2094
X4.8277Y-4.3094
X4.8277Y-4.4094
X4.8277Y-4.5094
X4.8277Y-4.6094
X4.8277Y-4.7094
X4.8277Y-4.8094
X5.4277Y-3.5094
X5.4277Y-3.6094
X5.4277Y-3.7094
X5.4277Y-3.8094
X5.4277Y-3.9094
X5.4277Y-4.0094
X5.4277Y-4.1094
X5.4277Y-4.2094
X5.4277Y-4.3094
X5.4277Y-4.4094
X5.4277Y-4.5094
X5.4277Y-4.6094
X5.4277Y-4.7094
X5.4277Y-4.8094
X4.28Y-3.6
X4.28Y-3.9
X4.62Y-4.3831
X4.62Y-4.58
X3.8016Y-4.7
X3.9Y-4.7
T4
X5.58Y-3.6
X5.68Y-3.6
X5.58Y-4.26
X5.68Y-4.26
X5.58Y-3.94
X5.68Y-3.94
T5
X3.6841Y-3.5028
X3.6841Y-3.68
X3.94Y-3.5028
X3.94Y-3.68
X6.26Y-4.12
X6.5592Y-4.12
X4.11Y-3.83
X7.1Y-4.78
T6
X4.2Y-3.32
X4.3Y-3.32
X4.5Y-3.32
X4.6Y-3.32
X4.7Y-3.32
T7
X6.94Y-3.26
X6.94Y-3.86
X4.34Y-4.22
X4.34Y-4.82
X6.3Y-4.78
X6.9Y-4.78
X5.9Y-3.5
X6.5Y-3.5
X5.56Y-4.54
X6.16Y-4.54
X4.12Y-4.22
X4.12Y-4.82
X6.06Y-3.27
X6.66Y-3.27
X5.56Y-4.77
X6.16Y-4.77
X5.9Y-3.7
X6.5Y-3.7
X5.31Y-3.27
X5.91Y-3.27
X7.16Y-4.0
X7.16Y-4.6
X6.94Y-4.0
X6.94Y-4.6
T8
X7.17Y-3.26
X3.71Y-3.26
T0
M30
