G04*
G04 #@! TF.GenerationSoftware,Altium Limited,Altium Designer,19.1.5 (86)*
G04*
G04 Layer_Color=8421504*
%FSLAX25Y25*%
%MOIN*%
G70*
G01*
G75*
%ADD15R,0.03543X0.03937*%
%ADD16R,0.08858X0.07677*%
%ADD17R,0.07756X0.02244*%
%ADD18R,0.03937X0.03543*%
%ADD19R,0.01575X0.01968*%
%ADD20R,0.09843X0.07874*%
%ADD21R,0.09055X0.01968*%
%ADD22R,0.02800X0.03900*%
%ADD23R,0.05906X0.05118*%
%ADD24R,0.03937X0.03937*%
%ADD25R,0.07480X0.07480*%
%ADD26R,0.05512X0.06299*%
%ADD27R,0.05315X0.01575*%
%ADD28R,0.03937X0.03937*%
D15*
X37000Y128500D02*
D03*
X30307D02*
D03*
X68154Y79500D02*
D03*
X74847D02*
D03*
X48154Y43000D02*
D03*
X54847D02*
D03*
X89846Y31000D02*
D03*
X83153D02*
D03*
X59346Y16500D02*
D03*
X52653D02*
D03*
X55500Y79500D02*
D03*
X48807D02*
D03*
D16*
X117852Y46118D02*
D03*
Y30173D02*
D03*
D17*
X107744Y73000D02*
D03*
Y68000D02*
D03*
Y63000D02*
D03*
Y58000D02*
D03*
X88256D02*
D03*
Y63000D02*
D03*
Y68000D02*
D03*
Y73000D02*
D03*
D18*
X142500Y36654D02*
D03*
Y43347D02*
D03*
D19*
X72122Y47862D02*
D03*
X74878D02*
D03*
Y43138D02*
D03*
X72122D02*
D03*
D20*
X11689Y50819D02*
D03*
X33342D02*
D03*
Y85858D02*
D03*
X11689D02*
D03*
D21*
X33736Y62039D02*
D03*
Y65189D02*
D03*
Y74638D02*
D03*
Y71488D02*
D03*
Y68339D02*
D03*
D22*
X76900Y114000D02*
D03*
X73200D02*
D03*
X69500D02*
D03*
X69450Y103800D02*
D03*
X76950D02*
D03*
D23*
X77000Y130154D02*
D03*
Y136846D02*
D03*
D24*
X34650Y17000D02*
D03*
X28350D02*
D03*
X119000Y132500D02*
D03*
X112701D02*
D03*
X119000Y120000D02*
D03*
X112701D02*
D03*
X119150Y107500D02*
D03*
X112850D02*
D03*
D25*
X144000Y79000D02*
D03*
Y69551D02*
D03*
D26*
X134354Y86874D02*
D03*
Y61677D02*
D03*
D27*
X133468Y79394D02*
D03*
Y76835D02*
D03*
Y74276D02*
D03*
Y71716D02*
D03*
Y69157D02*
D03*
D28*
X96000Y136650D02*
D03*
Y130350D02*
D03*
M02*
