G04*
G04 #@! TF.GenerationSoftware,Altium Limited,Altium Designer,19.1.5 (86)*
G04*
G04 Layer_Color=128*
%FSLAX25Y25*%
%MOIN*%
G70*
G01*
G75*
%ADD52C,0.00200*%
D52*
X21728Y59677D02*
X25272D01*
X23500Y57906D02*
Y61449D01*
X21728Y77000D02*
X25272D01*
X23500Y75228D02*
Y78772D01*
X143016Y87268D02*
X144984D01*
X144000Y86283D02*
Y88252D01*
X143016Y61283D02*
X144984D01*
X144000Y60299D02*
Y62268D01*
X143016Y87268D02*
X144984D01*
X144000Y86283D02*
Y88252D01*
X143016Y61283D02*
X144984D01*
X144000Y60299D02*
Y62268D01*
X3563Y7500D02*
X11437D01*
X7500Y3563D02*
Y11437D01*
X3563Y143000D02*
X11437D01*
X7500Y139063D02*
Y146937D01*
X139063Y143000D02*
X146937D01*
X143000Y139063D02*
Y146937D01*
X139063Y7500D02*
X146937D01*
X143000Y3563D02*
Y11437D01*
X141535Y136220D02*
X142717D01*
X142126Y135630D02*
Y136811D01*
X135630Y124409D02*
X136811D01*
X136220Y123819D02*
Y125000D01*
X141535Y112598D02*
X142717D01*
X142126Y112008D02*
Y113189D01*
X135630Y100787D02*
X136811D01*
X136220Y100197D02*
Y101378D01*
X135630Y53543D02*
X136811D01*
X136220Y52953D02*
Y54134D01*
X135630Y29921D02*
X136811D01*
X136220Y29331D02*
Y30512D01*
X141535Y18110D02*
X142717D01*
X142126Y17520D02*
Y18701D01*
X135630Y6299D02*
X136811D01*
X136220Y5709D02*
Y6890D01*
X129724Y136220D02*
X130905D01*
X130315Y135630D02*
Y136811D01*
X123819Y124409D02*
X125000D01*
X124409Y123819D02*
Y125000D01*
X129724Y112598D02*
X130905D01*
X130315Y112008D02*
Y113189D01*
X123819Y100787D02*
X125000D01*
X124409Y100197D02*
Y101378D01*
X123819Y77165D02*
X125000D01*
X124409Y76575D02*
Y77756D01*
X129724Y41732D02*
X130905D01*
X130315Y41142D02*
Y42323D01*
X129724Y18110D02*
X130905D01*
X130315Y17520D02*
Y18701D01*
X123819Y6299D02*
X125000D01*
X124409Y5709D02*
Y6890D01*
X117913Y136220D02*
X119094D01*
X118504Y135630D02*
Y136811D01*
X112008Y124409D02*
X113189D01*
X112598Y123819D02*
Y125000D01*
X112008Y100787D02*
X113189D01*
X112598Y100197D02*
Y101378D01*
X117913Y88976D02*
X119094D01*
X118504Y88386D02*
Y89567D01*
X112008Y77165D02*
X113189D01*
X112598Y76575D02*
Y77756D01*
X112008Y53543D02*
X113189D01*
X112598Y52953D02*
Y54134D01*
X117913Y18110D02*
X119094D01*
X118504Y17520D02*
Y18701D01*
X112008Y6299D02*
X113189D01*
X112598Y5709D02*
Y6890D01*
X100197Y124409D02*
X101378D01*
X100787Y123819D02*
Y125000D01*
X106102Y112598D02*
X107283D01*
X106693Y112008D02*
Y113189D01*
X100197Y100787D02*
X101378D01*
X100787Y100197D02*
Y101378D01*
X106102Y88976D02*
X107283D01*
X106693Y88386D02*
Y89567D01*
X100197Y53543D02*
X101378D01*
X100787Y52953D02*
Y54134D01*
X100197Y29921D02*
X101378D01*
X100787Y29331D02*
Y30512D01*
X106102Y18110D02*
X107283D01*
X106693Y17520D02*
Y18701D01*
X100197Y6299D02*
X101378D01*
X100787Y5709D02*
Y6890D01*
X88386Y124409D02*
X89567D01*
X88976Y123819D02*
Y125000D01*
X94291Y112598D02*
X95472D01*
X94882Y112008D02*
Y113189D01*
X88386Y100787D02*
X89567D01*
X88976Y100197D02*
Y101378D01*
X94291Y88976D02*
X95472D01*
X94882Y88386D02*
Y89567D01*
X94291Y65354D02*
X95472D01*
X94882Y64764D02*
Y65945D01*
X88386Y53543D02*
X89567D01*
X88976Y52953D02*
Y54134D01*
X94291Y41732D02*
X95472D01*
X94882Y41142D02*
Y42323D01*
X94291Y18110D02*
X95472D01*
X94882Y17520D02*
Y18701D01*
X88386Y6299D02*
X89567D01*
X88976Y5709D02*
Y6890D01*
X76575Y124409D02*
X77756D01*
X77165Y123819D02*
Y125000D01*
X82480Y112598D02*
X83661D01*
X83071Y112008D02*
Y113189D01*
X82480Y88976D02*
X83661D01*
X83071Y88386D02*
Y89567D01*
X82480Y41732D02*
X83661D01*
X83071Y41142D02*
Y42323D01*
X76575Y29921D02*
X77756D01*
X77165Y29331D02*
Y30512D01*
X82480Y18110D02*
X83661D01*
X83071Y17520D02*
Y18701D01*
X76575Y6299D02*
X77756D01*
X77165Y5709D02*
Y6890D01*
X70669Y88976D02*
X71850D01*
X71260Y88386D02*
Y89567D01*
X70669Y65354D02*
X71850D01*
X71260Y64764D02*
Y65945D01*
X64764Y53543D02*
X65945D01*
X65354Y52953D02*
Y54134D01*
X70669Y18110D02*
X71850D01*
X71260Y17520D02*
Y18701D01*
X64764Y6299D02*
X65945D01*
X65354Y5709D02*
Y6890D01*
X58858Y136220D02*
X60039D01*
X59449Y135630D02*
Y136811D01*
X52953Y124409D02*
X54134D01*
X53543Y123819D02*
Y125000D01*
X58858Y112598D02*
X60039D01*
X59449Y112008D02*
Y113189D01*
X58858Y65354D02*
X60039D01*
X59449Y64764D02*
Y65945D01*
X58858Y41732D02*
X60039D01*
X59449Y41142D02*
Y42323D01*
X52953Y29921D02*
X54134D01*
X53543Y29331D02*
Y30512D01*
X47047Y136220D02*
X48228D01*
X47638Y135630D02*
Y136811D01*
X47047Y65354D02*
X48228D01*
X47638Y64764D02*
Y65945D01*
X41142Y53543D02*
X42323D01*
X41732Y52953D02*
Y54134D01*
X47047Y18110D02*
X48228D01*
X47638Y17520D02*
Y18701D01*
X41142Y6299D02*
X42323D01*
X41732Y5709D02*
Y6890D01*
X35236Y136220D02*
X36417D01*
X35827Y135630D02*
Y136811D01*
X29331Y124409D02*
X30512D01*
X29921Y123819D02*
Y125000D01*
X35236Y112598D02*
X36417D01*
X35827Y112008D02*
Y113189D01*
X29331Y100787D02*
X30512D01*
X29921Y100197D02*
Y101378D01*
X35236Y41732D02*
X36417D01*
X35827Y41142D02*
Y42323D01*
X29331Y29921D02*
X30512D01*
X29921Y29331D02*
Y30512D01*
X29331Y6299D02*
X30512D01*
X29921Y5709D02*
Y6890D01*
X23425Y136220D02*
X24606D01*
X24016Y135630D02*
Y136811D01*
X17520Y124409D02*
X18701D01*
X18110Y123819D02*
Y125000D01*
X23425Y112598D02*
X24606D01*
X24016Y112008D02*
Y113189D01*
X17520Y100787D02*
X18701D01*
X18110Y100197D02*
Y101378D01*
X23425Y88976D02*
X24606D01*
X24016Y88386D02*
Y89567D01*
X17520Y77165D02*
X18701D01*
X18110Y76575D02*
Y77756D01*
X23425Y65354D02*
X24606D01*
X24016Y64764D02*
Y65945D01*
X23425Y41732D02*
X24606D01*
X24016Y41142D02*
Y42323D01*
X23425Y18110D02*
X24606D01*
X24016Y17520D02*
Y18701D01*
X17520Y6299D02*
X18701D01*
X18110Y5709D02*
Y6890D01*
X11614Y136220D02*
X12795D01*
X12205Y135630D02*
Y136811D01*
X5709Y124409D02*
X6890D01*
X6299Y123819D02*
Y125000D01*
X11614Y112598D02*
X12795D01*
X12205Y112008D02*
Y113189D01*
X5709Y100787D02*
X6890D01*
X6299Y100197D02*
Y101378D01*
X5709Y77165D02*
X6890D01*
X6299Y76575D02*
Y77756D01*
X11614Y65354D02*
X12795D01*
X12205Y64764D02*
Y65945D01*
X11614Y41732D02*
X12795D01*
X12205Y41142D02*
Y42323D01*
X5709Y29921D02*
X6890D01*
X6299Y29331D02*
Y30512D01*
X11614Y18110D02*
X12795D01*
X12205Y17520D02*
Y18701D01*
M02*
