G04*
G04 #@! TF.GenerationSoftware,Altium Limited,Altium Designer,19.1.5 (86)*
G04*
G04 Layer_Color=8388736*
%FSLAX25Y25*%
%MOIN*%
G70*
G01*
G75*
%ADD29R,0.04343X0.04737*%
%ADD30R,0.09658X0.08477*%
%ADD31R,0.08556X0.03044*%
%ADD32R,0.04737X0.04343*%
%ADD33R,0.02375X0.02769*%
%ADD34R,0.10642X0.08674*%
%ADD35R,0.09855X0.02769*%
%ADD36R,0.03600X0.04700*%
%ADD37R,0.06706X0.05918*%
%ADD38R,0.04737X0.04737*%
%ADD39R,0.08280X0.08280*%
%ADD40R,0.06312X0.07099*%
%ADD41R,0.06115X0.02375*%
%ADD42R,0.04737X0.04737*%
%ADD43C,0.04343*%
%ADD44O,0.07887X0.04343*%
%ADD45C,0.02769*%
%ADD46C,0.06800*%
D29*
X37000Y128500D02*
D03*
X30307D02*
D03*
X68154Y79500D02*
D03*
X74847D02*
D03*
X48154Y43000D02*
D03*
X54847D02*
D03*
X89846Y31000D02*
D03*
X83153D02*
D03*
X59346Y16500D02*
D03*
X52653D02*
D03*
X55500Y79500D02*
D03*
X48807D02*
D03*
D30*
X117852Y46118D02*
D03*
Y30173D02*
D03*
D31*
X107744Y73000D02*
D03*
Y68000D02*
D03*
Y63000D02*
D03*
Y58000D02*
D03*
X88256D02*
D03*
Y63000D02*
D03*
Y68000D02*
D03*
Y73000D02*
D03*
D32*
X142500Y36654D02*
D03*
Y43347D02*
D03*
D33*
X72122Y47862D02*
D03*
X74878D02*
D03*
Y43138D02*
D03*
X72122D02*
D03*
D34*
X11689Y50819D02*
D03*
X33342D02*
D03*
Y85858D02*
D03*
X11689D02*
D03*
D35*
X33736Y62039D02*
D03*
Y65189D02*
D03*
Y74638D02*
D03*
Y71488D02*
D03*
Y68339D02*
D03*
D36*
X76900Y114000D02*
D03*
X73200D02*
D03*
X69500D02*
D03*
X69450Y103800D02*
D03*
X76950D02*
D03*
D37*
X77000Y130154D02*
D03*
Y136846D02*
D03*
D38*
X34650Y17000D02*
D03*
X28350D02*
D03*
X119000Y132500D02*
D03*
X112701D02*
D03*
X119000Y120000D02*
D03*
X112701D02*
D03*
X119150Y107500D02*
D03*
X112850D02*
D03*
D39*
X144000Y79000D02*
D03*
Y69551D02*
D03*
D40*
X134354Y86874D02*
D03*
Y61677D02*
D03*
D41*
X133468Y79394D02*
D03*
Y76835D02*
D03*
Y74276D02*
D03*
Y71716D02*
D03*
Y69157D02*
D03*
D42*
X96000Y136650D02*
D03*
Y130350D02*
D03*
D43*
X23500Y59677D02*
D03*
Y77000D02*
D03*
D44*
X144000Y87268D02*
D03*
Y61283D02*
D03*
D45*
Y87268D02*
D03*
Y61283D02*
D03*
D46*
X7500Y7500D02*
D03*
Y143000D02*
D03*
X143000D02*
D03*
Y7500D02*
D03*
M02*
