G04*
G04 #@! TF.GenerationSoftware,Altium Limited,Altium Designer,19.1.5 (86)*
G04*
G04 Layer_Color=65535*
%FSLAX25Y25*%
%MOIN*%
G70*
G01*
G75*
%ADD10C,0.00984*%
%ADD11C,0.00787*%
%ADD12C,0.01575*%
%ADD13C,0.01000*%
%ADD14C,0.00500*%
D10*
X124939Y49760D02*
G03*
X124939Y49760I-492J0D01*
G01*
D11*
X82252Y73000D02*
G03*
X82252Y73000I-394J0D01*
G01*
X130614Y66402D02*
G03*
X130614Y66402I-394J0D01*
G01*
X32866Y126925D02*
X34441D01*
X32866Y130075D02*
X34441D01*
X125726Y29091D02*
Y47201D01*
X109978Y29091D02*
Y47201D01*
X123856D02*
X125726D01*
X123856Y29091D02*
X125726D01*
X109978Y47201D02*
X111848D01*
X109978Y29091D02*
X111848D01*
X70713Y81075D02*
X72287D01*
X70713Y77925D02*
X72287D01*
X50713Y44575D02*
X52287D01*
X50713Y41425D02*
X52287D01*
X140925Y39213D02*
Y40787D01*
X144075Y39213D02*
Y40787D01*
X85713Y29425D02*
X87287D01*
X85713Y32575D02*
X87287D01*
X71925Y50224D02*
X75075D01*
X74441Y140587D02*
X79559D01*
X25201Y15425D02*
Y18575D01*
X55213Y14925D02*
X56787D01*
X55213Y18075D02*
X56787D01*
X51366Y77925D02*
X52941D01*
X51366Y81075D02*
X52941D01*
X94425Y139799D02*
X97575D01*
X122150Y130925D02*
Y134075D01*
Y118425D02*
Y121575D01*
X122299Y105925D02*
Y109075D01*
D12*
X41748Y75839D02*
G03*
X41748Y75839I-315J0D01*
G01*
D13*
X77000Y110800D02*
G03*
X77000Y110800I-100J0D01*
G01*
X71900Y102000D02*
X74500D01*
X71000Y17500D02*
Y20166D01*
X72333Y21499D01*
X73666Y20166D01*
Y17500D01*
Y19499D01*
X71000D01*
X74999Y21499D02*
Y18167D01*
X75665Y17500D01*
X76998D01*
X77665Y18167D01*
Y21499D01*
X78997D02*
Y18833D01*
X80330Y17500D01*
X81663Y18833D01*
Y21499D01*
X82996D02*
X84329D01*
X83663D01*
Y17500D01*
X82996D01*
X84329D01*
X88994Y20832D02*
X88328Y21499D01*
X86995D01*
X86328Y20832D01*
Y18167D01*
X86995Y17500D01*
X88328D01*
X88994Y18167D01*
X96992Y20832D02*
X96325Y21499D01*
X94992D01*
X94326Y20832D01*
Y20166D01*
X94992Y19499D01*
X96325D01*
X96992Y18833D01*
Y18167D01*
X96325Y17500D01*
X94992D01*
X94326Y18167D01*
X98325Y20166D02*
Y18167D01*
X98991Y17500D01*
X100990D01*
Y20166D01*
X102323Y17500D02*
Y20166D01*
X102990D01*
X103656Y19499D01*
Y17500D01*
Y19499D01*
X104323Y20166D01*
X104989Y19499D01*
Y17500D01*
X106322D02*
Y20166D01*
X106988D01*
X107655Y19499D01*
Y17500D01*
Y19499D01*
X108321Y20166D01*
X108988Y19499D01*
Y17500D01*
X112320D02*
X110987D01*
X110321Y18167D01*
Y19499D01*
X110987Y20166D01*
X112320D01*
X112986Y19499D01*
Y18833D01*
X110321D01*
X114319Y20166D02*
Y17500D01*
Y18833D01*
X114986Y19499D01*
X115652Y20166D01*
X116319D01*
X124983Y17500D02*
X122317D01*
X124983Y20166D01*
Y20832D01*
X124316Y21499D01*
X122983D01*
X122317Y20832D01*
X126315D02*
X126982Y21499D01*
X128315D01*
X128981Y20832D01*
Y18167D01*
X128315Y17500D01*
X126982D01*
X126315Y18167D01*
Y20832D01*
X130314Y17500D02*
X131647D01*
X130981D01*
Y21499D01*
X130314Y20832D01*
X133647Y18167D02*
X134313Y17500D01*
X135646D01*
X136312Y18167D01*
Y20832D01*
X135646Y21499D01*
X134313D01*
X133647Y20832D01*
Y20166D01*
X134313Y19499D01*
X136312D01*
X71500Y10500D02*
Y14499D01*
X72833Y13166D01*
X74166Y14499D01*
Y10500D01*
X75499D02*
X76832D01*
X76165D01*
Y13166D01*
X75499D01*
X80164Y9167D02*
X80830D01*
X81497Y9833D01*
Y13166D01*
X79497D01*
X78831Y12499D01*
Y11167D01*
X79497Y10500D01*
X81497D01*
X82830Y13166D02*
Y11167D01*
X83496Y10500D01*
X85496D01*
Y13166D01*
X88828Y10500D02*
X87495D01*
X86828Y11167D01*
Y12499D01*
X87495Y13166D01*
X88828D01*
X89494Y12499D01*
Y11833D01*
X86828D01*
X90827Y10500D02*
X92160D01*
X91494D01*
Y14499D01*
X90827D01*
X98158Y10500D02*
Y14499D01*
X99491Y13166D01*
X100824Y14499D01*
Y10500D01*
X102823Y13166D02*
X104156D01*
X104823Y12499D01*
Y10500D01*
X102823D01*
X102157Y11167D01*
X102823Y11833D01*
X104823D01*
X106156Y10500D02*
Y13166D01*
X108155D01*
X108821Y12499D01*
Y10500D01*
X111487Y9167D02*
X112153D01*
X112820Y9833D01*
Y13166D01*
X110821D01*
X110154Y12499D01*
Y11167D01*
X110821Y10500D01*
X112820D01*
X114153Y13166D02*
Y11167D01*
X114819Y10500D01*
X116819D01*
Y13166D01*
X120151Y10500D02*
X118818D01*
X118152Y11167D01*
Y12499D01*
X118818Y13166D01*
X120151D01*
X120817Y12499D01*
Y11833D01*
X118152D01*
X122150Y13166D02*
Y10500D01*
Y11833D01*
X122817Y12499D01*
X123483Y13166D01*
X124150D01*
X126149D02*
Y10500D01*
Y11833D01*
X126815Y12499D01*
X127482Y13166D01*
X128148D01*
X130814D02*
X132147D01*
X132814Y12499D01*
Y10500D01*
X130814D01*
X130148Y11167D01*
X130814Y11833D01*
X132814D01*
X71000Y3000D02*
Y5666D01*
X72333Y6999D01*
X73666Y5666D01*
Y3000D01*
Y4999D01*
X71000D01*
X74999Y3000D02*
Y5666D01*
X75665D01*
X76332Y4999D01*
Y3000D01*
Y4999D01*
X76998Y5666D01*
X77665Y4999D01*
Y3000D01*
X79664Y5666D02*
X80997D01*
X81663Y4999D01*
Y3000D01*
X79664D01*
X78997Y3666D01*
X79664Y4333D01*
X81663D01*
X82996Y3000D02*
Y5666D01*
X84996D01*
X85662Y4999D01*
Y3000D01*
X90994D02*
Y6999D01*
X93659Y3000D01*
Y6999D01*
X94992Y3000D02*
X96325D01*
X95659D01*
Y5666D01*
X94992D01*
X98325Y1667D02*
X98991D01*
X99657Y2334D01*
Y5666D01*
X102323Y1667D02*
X102990D01*
X103656Y2334D01*
Y5666D01*
X106988D02*
X108321D01*
X108988Y4999D01*
Y3000D01*
X106988D01*
X106322Y3666D01*
X106988Y4333D01*
X108988D01*
X110321Y5666D02*
Y3000D01*
Y4333D01*
X110987Y4999D01*
X111653Y5666D01*
X112320D01*
X114500Y58998D02*
Y53000D01*
X117499D01*
X118499Y54000D01*
Y57998D01*
X117499Y58998D01*
X114500D01*
X120498Y53000D02*
X122497D01*
X121498D01*
Y58998D01*
X120498Y57998D01*
X87499Y84498D02*
X85500D01*
X84500Y83498D01*
Y79500D01*
X85500Y78500D01*
X87499D01*
X88499Y79500D01*
Y83498D01*
X87499Y84498D01*
X90498Y76501D02*
Y82499D01*
X93497D01*
X94497Y81499D01*
Y79500D01*
X93497Y78500D01*
X90498D01*
X96496D02*
Y82499D01*
X98496Y84498D01*
X100495Y82499D01*
Y78500D01*
Y81499D01*
X96496D01*
X102494Y78500D02*
Y82499D01*
X103494D01*
X104493Y81499D01*
Y78500D01*
Y81499D01*
X105493Y82499D01*
X106493Y81499D01*
Y78500D01*
X108492Y76501D02*
Y82499D01*
X111491D01*
X112491Y81499D01*
Y79500D01*
X111491Y78500D01*
X108492D01*
X28500Y132500D02*
Y138498D01*
X31499D01*
X32499Y137498D01*
Y135499D01*
X31499Y134499D01*
X28500D01*
X30499D02*
X32499Y132500D01*
X34498Y137498D02*
X35498Y138498D01*
X37497D01*
X38497Y137498D01*
Y136499D01*
X37497Y135499D01*
X36497D01*
X37497D01*
X38497Y134499D01*
Y133500D01*
X37497Y132500D01*
X35498D01*
X34498Y133500D01*
X63000Y83500D02*
Y89498D01*
X65999D01*
X66999Y88498D01*
Y86499D01*
X65999Y85499D01*
X63000D01*
X64999D02*
X66999Y83500D01*
X71997D02*
Y89498D01*
X68998Y86499D01*
X72997D01*
X47000Y46500D02*
Y52498D01*
X49999D01*
X50999Y51498D01*
Y49499D01*
X49999Y48499D01*
X47000D01*
X48999D02*
X50999Y46500D01*
X56997Y52498D02*
X52998D01*
Y49499D01*
X54997Y50499D01*
X55997D01*
X56997Y49499D01*
Y47500D01*
X55997Y46500D01*
X53998D01*
X52998Y47500D01*
X136500Y47500D02*
Y53498D01*
X139499D01*
X140499Y52498D01*
Y50499D01*
X139499Y49499D01*
X136500D01*
X138499D02*
X140499Y47500D01*
X146497Y53498D02*
X144497Y52498D01*
X142498Y50499D01*
Y48500D01*
X143498Y47500D01*
X145497D01*
X146497Y48500D01*
Y49499D01*
X145497Y50499D01*
X142498D01*
X82500Y35500D02*
Y41498D01*
X85499D01*
X86499Y40498D01*
Y38499D01*
X85499Y37499D01*
X82500D01*
X84499D02*
X86499Y35500D01*
X88498Y41498D02*
X92497D01*
Y40498D01*
X88498Y36500D01*
Y35500D01*
X64000Y58498D02*
Y52500D01*
X67999D01*
X73997Y58498D02*
X69998D01*
Y52500D01*
X73997D01*
X69998Y55499D02*
X71997D01*
X75996Y58498D02*
Y52500D01*
X78995D01*
X79995Y53500D01*
Y57498D01*
X78995Y58498D01*
X75996D01*
X14500Y97998D02*
Y93000D01*
X15500Y92000D01*
X17499D01*
X18499Y93000D01*
Y97998D01*
X24497Y96998D02*
X23497Y97998D01*
X21498D01*
X20498Y96998D01*
Y95999D01*
X21498Y94999D01*
X23497D01*
X24497Y93999D01*
Y93000D01*
X23497Y92000D01*
X21498D01*
X20498Y93000D01*
X26496Y97998D02*
Y92000D01*
X29495D01*
X30495Y93000D01*
Y93999D01*
X29495Y94999D01*
X26496D01*
X29495D01*
X30495Y95999D01*
Y96998D01*
X29495Y97998D01*
X26496D01*
X61500Y123998D02*
Y119999D01*
X63499Y118000D01*
X65499Y119999D01*
Y123998D01*
X67498Y118000D02*
Y123998D01*
X70497D01*
X71497Y122998D01*
Y120999D01*
X70497Y119999D01*
X67498D01*
X69497D02*
X71497Y118000D01*
X76495D02*
X74496D01*
X73496Y119000D01*
Y120999D01*
X74496Y121999D01*
X76495D01*
X77495Y120999D01*
Y119999D01*
X73496D01*
X81494Y116001D02*
X82493D01*
X83493Y117000D01*
Y121999D01*
X80494D01*
X79494Y120999D01*
Y119000D01*
X80494Y118000D01*
X83493D01*
X30499Y25498D02*
X29499Y26498D01*
X27500D01*
X26500Y25498D01*
Y21500D01*
X27500Y20500D01*
X29499D01*
X30499Y21500D01*
X35497Y20500D02*
Y26498D01*
X32498Y23499D01*
X36497D01*
X75499Y146998D02*
X74499Y147998D01*
X72500D01*
X71500Y146998D01*
Y143000D01*
X72500Y142000D01*
X74499D01*
X75499Y143000D01*
X81497Y142000D02*
X77498D01*
X81497Y145999D01*
Y146998D01*
X80497Y147998D01*
X78498D01*
X77498Y146998D01*
X47500Y83500D02*
Y89498D01*
X50499D01*
X51499Y88498D01*
Y86499D01*
X50499Y85499D01*
X47500D01*
X49499D02*
X51499Y83500D01*
X57497D02*
X53498D01*
X57497Y87499D01*
Y88498D01*
X56497Y89498D01*
X54498D01*
X53498Y88498D01*
X52500Y21000D02*
Y26998D01*
X55499D01*
X56499Y25998D01*
Y23999D01*
X55499Y22999D01*
X52500D01*
X54499D02*
X56499Y21000D01*
X58498D02*
X60497D01*
X59498D01*
Y26998D01*
X58498Y25998D01*
X128648Y109998D02*
X127649Y110998D01*
X125649D01*
X124650Y109998D01*
Y106000D01*
X125649Y105000D01*
X127649D01*
X128648Y106000D01*
X134646Y110998D02*
X132647Y109998D01*
X130648Y107999D01*
Y106000D01*
X131647Y105000D01*
X133647D01*
X134646Y106000D01*
Y106999D01*
X133647Y107999D01*
X130648D01*
X128999Y122498D02*
X127999Y123498D01*
X126000D01*
X125000Y122498D01*
Y118500D01*
X126000Y117500D01*
X127999D01*
X128999Y118500D01*
X134997Y123498D02*
X130998D01*
Y120499D01*
X132997Y121499D01*
X133997D01*
X134997Y120499D01*
Y118500D01*
X133997Y117500D01*
X131998D01*
X130998Y118500D01*
X129349Y135498D02*
X128349Y136498D01*
X126350D01*
X125350Y135498D01*
Y131500D01*
X126350Y130500D01*
X128349D01*
X129349Y131500D01*
X131349Y135498D02*
X132348Y136498D01*
X134347D01*
X135347Y135498D01*
Y134499D01*
X134347Y133499D01*
X133348D01*
X134347D01*
X135347Y132499D01*
Y131500D01*
X134347Y130500D01*
X132348D01*
X131349Y131500D01*
X95999Y146998D02*
X94999Y147998D01*
X93000D01*
X92000Y146998D01*
Y143000D01*
X93000Y142000D01*
X94999D01*
X95999Y143000D01*
X97998Y142000D02*
X99997D01*
X98998D01*
Y147998D01*
X97998Y146998D01*
X132500Y98998D02*
Y93000D01*
X135499D01*
X136499Y94000D01*
Y94999D01*
X135499Y95999D01*
X132500D01*
X135499D01*
X136499Y96999D01*
Y97998D01*
X135499Y98998D01*
X132500D01*
X139498Y96999D02*
X141497D01*
X142497Y95999D01*
Y93000D01*
X139498D01*
X138498Y94000D01*
X139498Y94999D01*
X142497D01*
X145496Y97998D02*
Y96999D01*
X144496D01*
X146495D01*
X145496D01*
Y94000D01*
X146495Y93000D01*
D14*
X90323Y55854D02*
X105677D01*
X90323Y75146D02*
X105677D01*
X2831Y53181D02*
Y83496D01*
X17791D02*
X27240D01*
X2831D02*
X5980D01*
X2831Y53181D02*
X5980D01*
X17791D02*
X27240D01*
X79000Y101800D02*
Y115600D01*
X67400Y101800D02*
Y115900D01*
X148331Y89236D02*
X149512D01*
X148331Y59315D02*
X149512D01*
X138094Y89236D02*
X139669D01*
X138094Y59315D02*
X139669D01*
X149709D02*
Y89236D01*
M02*
