G04*
G04 #@! TF.GenerationSoftware,Altium Limited,Altium Designer,19.1.5 (86)*
G04*
G04 Layer_Physical_Order=1*
G04 Layer_Color=255*
%FSLAX25Y25*%
%MOIN*%
G70*
G01*
G75*
%ADD13C,0.01000*%
%ADD15R,0.03543X0.03937*%
%ADD16R,0.08858X0.07677*%
%ADD17R,0.07756X0.02244*%
%ADD18R,0.03937X0.03543*%
%ADD19R,0.01575X0.01968*%
%ADD20R,0.09843X0.07874*%
%ADD21R,0.09055X0.01968*%
%ADD22R,0.02800X0.03900*%
%ADD23R,0.05906X0.05118*%
%ADD24R,0.03937X0.03937*%
%ADD25R,0.07480X0.07480*%
%ADD26R,0.05512X0.06299*%
%ADD27R,0.05315X0.01575*%
%ADD28R,0.03937X0.03937*%
%ADD47C,0.03543*%
%ADD48O,0.07087X0.03543*%
%ADD49C,0.01968*%
%ADD50C,0.06000*%
%ADD51C,0.02362*%
G36*
X141754Y148821D02*
X142905Y148471D01*
X142864Y147962D01*
X141711Y147810D01*
X140510Y147312D01*
X139479Y146521D01*
X138688Y145490D01*
X138190Y144289D01*
X138020Y143000D01*
X138190Y141711D01*
X138688Y140510D01*
X139479Y139479D01*
X140510Y138688D01*
X141711Y138190D01*
X143000Y138020D01*
X144289Y138190D01*
X145490Y138688D01*
X146521Y139479D01*
X147312Y140510D01*
X147810Y141711D01*
X147962Y142864D01*
X148471Y142905D01*
X148821Y141754D01*
X148986Y140076D01*
X148971Y140000D01*
Y88033D01*
X148472Y87991D01*
X148193Y88665D01*
X147748Y89245D01*
X147169Y89689D01*
X146495Y89968D01*
X145772Y90063D01*
X142228D01*
X141505Y89968D01*
X140831Y89689D01*
X140252Y89245D01*
X139807Y88665D01*
X139528Y87991D01*
X139433Y87268D01*
X139528Y86544D01*
X139807Y85870D01*
X140252Y85291D01*
X140831Y84847D01*
X141505Y84567D01*
X142228Y84472D01*
X145772D01*
X146495Y84567D01*
X147169Y84847D01*
X147748Y85291D01*
X148193Y85870D01*
X148472Y86544D01*
X148971Y86502D01*
Y84145D01*
X148740Y83740D01*
X148471Y83740D01*
X139260D01*
Y74260D01*
Y64811D01*
X148471D01*
X148740Y64811D01*
X148971Y64407D01*
Y62049D01*
X148472Y62007D01*
X148193Y62681D01*
X147748Y63260D01*
X147169Y63705D01*
X146495Y63984D01*
X145772Y64079D01*
X142228D01*
X141505Y63984D01*
X140831Y63705D01*
X140252Y63260D01*
X139807Y62681D01*
X139528Y62007D01*
X139433Y61283D01*
X139528Y60560D01*
X139807Y59886D01*
X140252Y59307D01*
X140831Y58862D01*
X141505Y58583D01*
X142228Y58488D01*
X145772D01*
X146495Y58583D01*
X147169Y58862D01*
X147748Y59307D01*
X148193Y59886D01*
X148472Y60560D01*
X148971Y60518D01*
Y10000D01*
X148986Y9924D01*
X148821Y8246D01*
X148399Y6856D01*
X147909Y6962D01*
X147980Y7500D01*
X147810Y8789D01*
X147312Y9990D01*
X146521Y11021D01*
X145490Y11812D01*
X144289Y12310D01*
X143000Y12480D01*
X141711Y12310D01*
X140510Y11812D01*
X139479Y11021D01*
X138688Y9990D01*
X138190Y8789D01*
X138020Y7500D01*
X138190Y6211D01*
X138688Y5010D01*
X139479Y3979D01*
X140510Y3187D01*
X141711Y2690D01*
X143000Y2520D01*
X144289Y2690D01*
X144446Y2228D01*
X143442Y1691D01*
X141754Y1179D01*
X140076Y1014D01*
X140000Y1029D01*
X10000D01*
X9924Y1014D01*
X8246Y1179D01*
X6558Y1691D01*
X5003Y2522D01*
X4251Y3140D01*
X4562Y3532D01*
X5010Y3187D01*
X6211Y2690D01*
X7500Y2520D01*
X8789Y2690D01*
X9990Y3187D01*
X11021Y3979D01*
X11812Y5010D01*
X12310Y6211D01*
X12480Y7500D01*
X12310Y8789D01*
X11812Y9990D01*
X11021Y11021D01*
X9990Y11812D01*
X8789Y12310D01*
X7500Y12480D01*
X6211Y12310D01*
X5010Y11812D01*
X3979Y11021D01*
X3187Y9990D01*
X2690Y8789D01*
X2520Y7500D01*
X2690Y6211D01*
X3187Y5010D01*
X3532Y4562D01*
X3140Y4251D01*
X2522Y5003D01*
X1691Y6558D01*
X1179Y8246D01*
X1014Y9924D01*
X1029Y10000D01*
Y140000D01*
X1014Y140076D01*
X1179Y141754D01*
X1691Y143442D01*
X2228Y144446D01*
X2690Y144289D01*
X2520Y143000D01*
X2690Y141711D01*
X3187Y140510D01*
X3979Y139479D01*
X5010Y138688D01*
X6211Y138190D01*
X7500Y138020D01*
X8789Y138190D01*
X9990Y138688D01*
X11021Y139479D01*
X11812Y140510D01*
X12310Y141711D01*
X12480Y143000D01*
X12310Y144289D01*
X11812Y145490D01*
X11021Y146521D01*
X9990Y147312D01*
X8789Y147810D01*
X7500Y147980D01*
X6962Y147909D01*
X6856Y148399D01*
X8246Y148821D01*
X9924Y148986D01*
X10000Y148971D01*
X140000D01*
X140076Y148986D01*
X141754Y148821D01*
D02*
G37*
%LPC*%
G36*
X80953Y140405D02*
X73047D01*
Y138376D01*
X71060D01*
X70474Y138259D01*
X69978Y137928D01*
X66369Y134318D01*
X66313Y134273D01*
X66224Y134213D01*
X66134Y134162D01*
X66043Y134120D01*
X65948Y134085D01*
X65848Y134057D01*
X65742Y134037D01*
X65671Y134029D01*
X35138D01*
X34553Y133913D01*
X34057Y133581D01*
X32497Y132022D01*
X32166Y131526D01*
X32049Y130940D01*
Y119452D01*
X32166Y118867D01*
X32497Y118371D01*
X42471Y108398D01*
Y78633D01*
X40004Y76167D01*
X39264D01*
Y76622D01*
X38290D01*
X38252Y76630D01*
X38214Y76622D01*
X38154D01*
X38139Y76623D01*
X38135Y76622D01*
X28209D01*
Y75572D01*
X28183Y75567D01*
X27687Y75235D01*
X17029Y64577D01*
X16697Y64081D01*
X16581Y63495D01*
Y11890D01*
X16697Y11304D01*
X17029Y10808D01*
X25419Y2419D01*
X25915Y2087D01*
X26500Y1971D01*
X54500D01*
X55085Y2087D01*
X55581Y2419D01*
X68249Y15086D01*
X68580Y15582D01*
X68697Y16167D01*
Y37353D01*
X72497Y41154D01*
X73349D01*
Y39472D01*
X73465Y38887D01*
X73796Y38391D01*
X80382Y31806D01*
Y28032D01*
X85925D01*
Y33968D01*
X82545D01*
X76407Y40106D01*
Y41154D01*
X76665D01*
Y45122D01*
X72549D01*
X72339Y45599D01*
X72563Y45878D01*
X76665D01*
Y47382D01*
X76673Y47420D01*
X76665Y47458D01*
Y47645D01*
X76876Y47894D01*
X81103Y52121D01*
X81435Y52618D01*
X81551Y53203D01*
Y66888D01*
X82916Y68253D01*
X83378Y68062D01*
Y65878D01*
X93134D01*
Y67922D01*
X93341Y68166D01*
X94715Y69541D01*
X95047Y70037D01*
X95163Y70622D01*
Y74743D01*
X95047Y75329D01*
X94715Y75825D01*
X93837Y76704D01*
X93340Y77035D01*
X92755Y77151D01*
X77618D01*
Y77971D01*
X97855D01*
X102621Y73204D01*
X102770Y73045D01*
X102866Y72925D01*
Y70878D01*
X112622D01*
Y71471D01*
X115366D01*
X116323Y70514D01*
Y50957D01*
X112423D01*
Y41280D01*
X123281D01*
Y50957D01*
X119382D01*
Y71148D01*
X119265Y71733D01*
X118934Y72229D01*
X117081Y74081D01*
X116585Y74413D01*
X116000Y74529D01*
X112622D01*
Y75122D01*
X105066D01*
X104822Y75329D01*
X99570Y80581D01*
X99073Y80913D01*
X98488Y81029D01*
X77618D01*
Y82468D01*
X76376D01*
Y94213D01*
X78081Y95919D01*
X78413Y96415D01*
X78529Y97000D01*
Y100850D01*
X79350D01*
Y102271D01*
X115450D01*
X116035Y102387D01*
X116531Y102719D01*
X118095Y104282D01*
X118255Y104431D01*
X118376Y104528D01*
X118381Y104532D01*
X118569D01*
X118607Y104524D01*
X118646Y104532D01*
X122118D01*
Y110468D01*
X120529D01*
Y117032D01*
X121968D01*
Y122968D01*
X116032D01*
Y117032D01*
X117471D01*
Y110468D01*
X116181D01*
Y106996D01*
X116174Y106958D01*
X116181Y106920D01*
Y106733D01*
X115970Y106484D01*
X114816Y105329D01*
X79350D01*
Y106750D01*
X74550D01*
Y100850D01*
X74183Y100529D01*
X72217D01*
X71850Y100850D01*
Y106750D01*
X67050D01*
Y103222D01*
X50336D01*
Y116496D01*
X50220Y117081D01*
X49889Y117578D01*
X40021Y127445D01*
X39872Y127606D01*
X39775Y127726D01*
X39772Y127732D01*
Y127920D01*
X39779Y127958D01*
X39772Y127996D01*
Y130971D01*
X65184D01*
Y117337D01*
X65300Y116751D01*
X65632Y116255D01*
X66851Y115036D01*
X67000Y114876D01*
X67097Y114755D01*
X67100Y114750D01*
Y114562D01*
X67092Y114524D01*
X67100Y114486D01*
Y111050D01*
X67971D01*
Y110500D01*
X68087Y109915D01*
X68419Y109419D01*
X69919Y107919D01*
X70415Y107587D01*
X71000Y107471D01*
X75500D01*
X76085Y107587D01*
X76581Y107919D01*
X78081Y109419D01*
X78413Y109915D01*
X78529Y110500D01*
Y111050D01*
X79300D01*
Y116950D01*
X74500D01*
Y111050D01*
X74500D01*
X74439Y110575D01*
X74408Y110529D01*
X72092D01*
X72039Y110608D01*
X71900Y111050D01*
X71900D01*
Y116950D01*
X69564D01*
X69526Y116958D01*
X69488Y116950D01*
X69301D01*
X69052Y117161D01*
X68243Y117970D01*
Y131458D01*
X68251Y131529D01*
X68271Y131635D01*
X68298Y131735D01*
X68333Y131829D01*
X68375Y131921D01*
X68426Y132010D01*
X68487Y132099D01*
X68532Y132155D01*
X71693Y135317D01*
X73047D01*
Y133287D01*
X80953D01*
Y135317D01*
X93032D01*
Y133681D01*
X98968D01*
Y135471D01*
X107567D01*
X109483Y133555D01*
X109632Y133394D01*
X109729Y133273D01*
X109732Y133268D01*
Y133080D01*
X109725Y133042D01*
X109732Y133004D01*
Y129532D01*
X115669D01*
Y135468D01*
X112197D01*
X112159Y135476D01*
X112120Y135468D01*
X111934D01*
X111684Y135679D01*
X109282Y138081D01*
X108786Y138413D01*
X108201Y138529D01*
X98968D01*
Y139618D01*
X96306D01*
X96000Y139679D01*
X95694Y139618D01*
X93032D01*
Y138376D01*
X80953D01*
Y140405D01*
D02*
G37*
G36*
X29906Y90825D02*
X29320Y90708D01*
X28824Y90377D01*
X28493Y89881D01*
X28376Y89295D01*
X28493Y88710D01*
X28824Y88214D01*
X30887Y86151D01*
X30829Y85858D01*
X30945Y85273D01*
X31277Y84777D01*
X31773Y84445D01*
X32358Y84329D01*
X33342D01*
X33928Y84445D01*
X34424Y84777D01*
X34756Y85273D01*
X34872Y85858D01*
X34756Y86444D01*
X34424Y86940D01*
X30987Y90377D01*
X30491Y90708D01*
X29906Y90825D01*
D02*
G37*
G36*
X138110Y91024D02*
X130598D01*
Y82724D01*
X138110D01*
Y91024D01*
D02*
G37*
G36*
X23500Y79796D02*
X22776Y79700D01*
X22102Y79421D01*
X21523Y78977D01*
X21079Y78398D01*
X20800Y77724D01*
X20704Y77000D01*
X20800Y76276D01*
X21079Y75602D01*
X21523Y75023D01*
X22102Y74579D01*
X22776Y74300D01*
X23500Y74204D01*
X24224Y74300D01*
X24898Y74579D01*
X25477Y75023D01*
X25921Y75602D01*
X26200Y76276D01*
X26296Y77000D01*
X26200Y77724D01*
X25921Y78398D01*
X25477Y78977D01*
X24898Y79421D01*
X24224Y79700D01*
X23500Y79796D01*
D02*
G37*
G36*
X137126Y81181D02*
X129811D01*
Y77606D01*
Y75047D01*
Y72488D01*
X131624D01*
X131993Y71988D01*
X131939Y71716D01*
X131993Y71445D01*
X131624Y70945D01*
X129811D01*
Y70687D01*
X128022D01*
X127437Y70570D01*
X126941Y70239D01*
X125911Y69209D01*
X125579Y68713D01*
X125463Y68128D01*
Y53990D01*
X125579Y53405D01*
X125911Y52909D01*
X136554Y42265D01*
X137050Y41934D01*
X137636Y41817D01*
X139532D01*
Y40575D01*
X145468D01*
Y46118D01*
X139532D01*
Y44876D01*
X138269D01*
X128522Y54624D01*
Y67494D01*
X128656Y67628D01*
X129811D01*
Y67370D01*
X137126D01*
Y70945D01*
X135564D01*
X135247Y71331D01*
X135269Y71445D01*
X135215Y71716D01*
X135270Y71988D01*
X135247Y72102D01*
X135564Y72488D01*
X137126D01*
Y75047D01*
Y77606D01*
Y81181D01*
D02*
G37*
G36*
X112622Y70122D02*
X102866D01*
Y65878D01*
X112622D01*
Y70122D01*
D02*
G37*
G36*
Y65122D02*
X102866D01*
Y60878D01*
X112622D01*
Y65122D01*
D02*
G37*
G36*
X93134D02*
X83378D01*
Y60878D01*
X90670D01*
X90708Y60870D01*
X90746Y60878D01*
X90933D01*
X91182Y60667D01*
X92313Y59536D01*
X91994Y59148D01*
X91597Y59413D01*
X91012Y59529D01*
X88256D01*
X87671Y59413D01*
X87174Y59081D01*
X86843Y58585D01*
X86726Y58000D01*
X86843Y57415D01*
X87174Y56919D01*
X87671Y56587D01*
X88256Y56471D01*
X91012D01*
X91597Y56587D01*
X92093Y56919D01*
X92425Y57415D01*
X92541Y58000D01*
X92425Y58585D01*
X92159Y58982D01*
X92548Y59301D01*
X96193Y55656D01*
Y50304D01*
X96309Y49718D01*
X96640Y49222D01*
X112203Y33659D01*
X112378Y33473D01*
X112423Y33418D01*
Y25335D01*
X123281D01*
Y33412D01*
X123455Y33613D01*
X124840Y34998D01*
X139532D01*
Y33882D01*
X145468D01*
Y39425D01*
X139532D01*
Y38057D01*
X124206D01*
X123621Y37940D01*
X123125Y37609D01*
X120745Y35229D01*
X120676Y35168D01*
X120561Y35078D01*
X120469Y35015D01*
X120464Y35012D01*
X115241D01*
X115235Y35015D01*
X115155Y35070D01*
X114935Y35253D01*
X99251Y50937D01*
Y56290D01*
X99135Y56875D01*
X98803Y57371D01*
X93383Y62792D01*
X93234Y62952D01*
X93137Y63073D01*
X93134Y63078D01*
Y63266D01*
X93141Y63304D01*
X93134Y63342D01*
Y65122D01*
D02*
G37*
G36*
X138110Y65827D02*
X130598D01*
Y57528D01*
X138110D01*
Y65827D01*
D02*
G37*
G36*
X112622Y60122D02*
X102866D01*
Y55878D01*
X112622D01*
Y60122D01*
D02*
G37*
G36*
X12673Y52348D02*
X11689D01*
X11104Y52232D01*
X10607Y51900D01*
X9919Y51211D01*
X9587Y50715D01*
X9471Y50130D01*
X9587Y49545D01*
X9919Y49049D01*
X10415Y48717D01*
X11000Y48601D01*
X11585Y48717D01*
X12081Y49049D01*
X12323Y49290D01*
X12673D01*
X13259Y49406D01*
X13755Y49738D01*
X14086Y50234D01*
X14203Y50819D01*
X14086Y51404D01*
X13755Y51900D01*
X13259Y52232D01*
X12673Y52348D01*
D02*
G37*
G36*
X91118Y33998D02*
X90533Y33882D01*
X90037Y33550D01*
X88765Y32278D01*
X88433Y31782D01*
X88317Y31197D01*
Y31000D01*
X88433Y30415D01*
X88765Y29919D01*
X89261Y29587D01*
X89846Y29471D01*
X90432Y29587D01*
X90928Y29919D01*
X91259Y30415D01*
X91267Y30455D01*
X92199Y31387D01*
X92531Y31883D01*
X92647Y32469D01*
X92531Y33054D01*
X92199Y33550D01*
X91703Y33882D01*
X91118Y33998D01*
D02*
G37*
%LPD*%
G36*
X97955Y137905D02*
X97985Y137820D01*
X98036Y137745D01*
X98106Y137680D01*
X98198Y137625D01*
X98309Y137580D01*
X98440Y137545D01*
X98592Y137520D01*
X98764Y137505D01*
X98957Y137500D01*
Y136500D01*
X98764Y136495D01*
X98592Y136480D01*
X98440Y136455D01*
X98309Y136420D01*
X98198Y136375D01*
X98106Y136320D01*
X98036Y136255D01*
X97985Y136180D01*
X97955Y136095D01*
X97944Y136000D01*
Y138000D01*
X97955Y137905D01*
D02*
G37*
G36*
X94055Y135846D02*
X94045Y135942D01*
X94015Y136026D01*
X93964Y136101D01*
X93894Y136167D01*
X93802Y136222D01*
X93691Y136267D01*
X93560Y136301D01*
X93408Y136326D01*
X93236Y136342D01*
X93044Y136346D01*
Y137346D01*
X93236Y137351D01*
X93408Y137366D01*
X93560Y137391D01*
X93691Y137426D01*
X93802Y137471D01*
X93894Y137526D01*
X93964Y137592D01*
X94015Y137666D01*
X94045Y137751D01*
X94055Y137847D01*
Y135846D01*
D02*
G37*
G36*
X79939Y137751D02*
X79969Y137666D01*
X80020Y137592D01*
X80091Y137526D01*
X80182Y137471D01*
X80293Y137426D01*
X80425Y137391D01*
X80576Y137366D01*
X80748Y137351D01*
X80941Y137346D01*
Y136346D01*
X80748Y136342D01*
X80576Y136326D01*
X80425Y136301D01*
X80293Y136267D01*
X80182Y136222D01*
X80091Y136167D01*
X80020Y136101D01*
X79969Y136026D01*
X79939Y135942D01*
X79929Y135846D01*
Y137847D01*
X79939Y137751D01*
D02*
G37*
G36*
X74071Y135846D02*
X74061Y135942D01*
X74031Y136026D01*
X73980Y136101D01*
X73909Y136167D01*
X73818Y136222D01*
X73707Y136267D01*
X73575Y136301D01*
X73424Y136326D01*
X73251Y136342D01*
X73059Y136346D01*
Y137346D01*
X73251Y137351D01*
X73424Y137366D01*
X73575Y137391D01*
X73707Y137426D01*
X73818Y137471D01*
X73909Y137526D01*
X73980Y137592D01*
X74031Y137666D01*
X74061Y137751D01*
X74071Y137847D01*
Y135846D01*
D02*
G37*
G36*
X110949Y134966D02*
X111317Y134654D01*
X111480Y134541D01*
X111628Y134457D01*
X111762Y134400D01*
X111883Y134372D01*
X111989D01*
X112081Y134400D01*
X112159Y134457D01*
X110744Y133042D01*
X110801Y133120D01*
X110829Y133212D01*
Y133318D01*
X110801Y133438D01*
X110744Y133573D01*
X110659Y133721D01*
X110546Y133884D01*
X110405Y134061D01*
X110037Y134457D01*
X110744Y135164D01*
X110949Y134966D01*
D02*
G37*
G36*
X67920Y133000D02*
X67786Y132856D01*
X67666Y132705D01*
X67560Y132549D01*
X67468Y132387D01*
X67390Y132220D01*
X67326Y132046D01*
X67277Y131867D01*
X67242Y131681D01*
X67220Y131490D01*
X67213Y131293D01*
X66213Y131000D01*
X66203Y131190D01*
X66173Y131360D01*
X66123Y131510D01*
X66053Y131640D01*
X65963Y131750D01*
X65853Y131840D01*
X65723Y131910D01*
X65573Y131960D01*
X65403Y131990D01*
X65213Y132000D01*
X65506Y133000D01*
X65703Y133007D01*
X65895Y133028D01*
X66080Y133064D01*
X66259Y133113D01*
X66433Y133177D01*
X66601Y133255D01*
X66763Y133346D01*
X66919Y133452D01*
X67069Y133573D01*
X67213Y133707D01*
X67920Y133000D01*
D02*
G37*
G36*
X38703Y127880D02*
X38675Y127788D01*
Y127682D01*
X38703Y127562D01*
X38760Y127427D01*
X38844Y127279D01*
X38958Y127116D01*
X39099Y126939D01*
X39467Y126543D01*
X38760Y125836D01*
X38555Y126034D01*
X38187Y126346D01*
X38024Y126459D01*
X37876Y126543D01*
X37741Y126600D01*
X37621Y126628D01*
X37515D01*
X37423Y126600D01*
X37345Y126543D01*
X38760Y127958D01*
X38703Y127880D01*
D02*
G37*
G36*
X37819Y125321D02*
X47278Y115863D01*
Y101693D01*
Y82468D01*
X46035D01*
Y76531D01*
X49915D01*
X50183Y76032D01*
X50087Y75888D01*
X49971Y75303D01*
Y43881D01*
X49471Y43729D01*
X49235Y44081D01*
X48739Y44413D01*
X48154Y44529D01*
X47568Y44413D01*
X47072Y44081D01*
X46741Y43585D01*
X46624Y43000D01*
Y42803D01*
X46741Y42218D01*
X47072Y41722D01*
X47568Y41390D01*
X48154Y41274D01*
X48739Y41390D01*
X49235Y41722D01*
X49471Y42074D01*
X49971Y41923D01*
Y41118D01*
X35037Y26184D01*
X34705Y25688D01*
X34589Y25103D01*
Y19969D01*
X31681D01*
Y14031D01*
X37618D01*
Y18321D01*
X37648Y18469D01*
Y24470D01*
X52581Y39404D01*
X52913Y39900D01*
X52939Y40031D01*
X57618D01*
Y45968D01*
X56376D01*
Y52713D01*
X68052Y64389D01*
X68384Y64885D01*
X68500Y65471D01*
Y76066D01*
X68910Y76287D01*
X69000Y76294D01*
X70753Y74541D01*
X71249Y74209D01*
X71835Y74093D01*
X83378D01*
Y73342D01*
X83370Y73304D01*
X83378Y73266D01*
Y73079D01*
X83167Y72830D01*
X78940Y68603D01*
X78609Y68107D01*
X78492Y67522D01*
Y53836D01*
X74752Y50096D01*
X74591Y49947D01*
X74470Y49850D01*
X74465Y49846D01*
X74277D01*
X74239Y49854D01*
X74201Y49846D01*
X70335D01*
Y48041D01*
X58265Y35971D01*
X57933Y35475D01*
X57817Y34890D01*
Y19468D01*
X56575D01*
Y13532D01*
X61661D01*
X61869Y13032D01*
X53866Y5029D01*
X27134D01*
X19640Y12523D01*
Y62862D01*
X29402Y72624D01*
X33252D01*
X33400Y72654D01*
X38135D01*
X38139Y72652D01*
X38154Y72654D01*
X38214D01*
X38252Y72646D01*
X38290Y72654D01*
X39264D01*
Y73108D01*
X40638D01*
X41223Y73225D01*
X41719Y73556D01*
X45081Y76919D01*
X45413Y77415D01*
X45529Y78000D01*
Y109031D01*
X45413Y109616D01*
X45081Y110113D01*
X35108Y120086D01*
Y125531D01*
X37307D01*
X37345Y125524D01*
X37384Y125531D01*
X37570D01*
X37819Y125321D01*
D02*
G37*
G36*
X119905Y118045D02*
X119820Y118015D01*
X119745Y117964D01*
X119680Y117894D01*
X119625Y117803D01*
X119580Y117691D01*
X119545Y117560D01*
X119520Y117408D01*
X119505Y117236D01*
X119500Y117043D01*
X118500D01*
X118495Y117236D01*
X118480Y117408D01*
X118455Y117560D01*
X118420Y117691D01*
X118375Y117803D01*
X118320Y117894D01*
X118255Y117964D01*
X118180Y118015D01*
X118095Y118045D01*
X118000Y118055D01*
X120000D01*
X119905Y118045D01*
D02*
G37*
G36*
X68317Y116447D02*
X68685Y116136D01*
X68847Y116023D01*
X68996Y115938D01*
X69130Y115881D01*
X69250Y115853D01*
X69357D01*
X69448Y115881D01*
X69526Y115938D01*
X68112Y114524D01*
X68169Y114602D01*
X68197Y114693D01*
Y114800D01*
X68169Y114920D01*
X68112Y115054D01*
X68027Y115203D01*
X67914Y115365D01*
X67773Y115542D01*
X67405Y115938D01*
X68112Y116645D01*
X68317Y116447D01*
D02*
G37*
G36*
X70405Y112064D02*
X70320Y112033D01*
X70245Y111983D01*
X70180Y111912D01*
X70125Y111821D01*
X70080Y111710D01*
X70045Y111578D01*
X70020Y111426D01*
X70005Y111254D01*
X70000Y111062D01*
X69000D01*
X68995Y111254D01*
X68980Y111426D01*
X68955Y111578D01*
X68920Y111710D01*
X68875Y111821D01*
X68820Y111912D01*
X68755Y111983D01*
X68680Y112033D01*
X68595Y112064D01*
X68500Y112074D01*
X70500D01*
X70405Y112064D01*
D02*
G37*
G36*
X119505Y110264D02*
X119520Y110092D01*
X119545Y109940D01*
X119580Y109809D01*
X119625Y109697D01*
X119680Y109606D01*
X119745Y109536D01*
X119820Y109485D01*
X119905Y109455D01*
X120000Y109444D01*
X118000D01*
X118095Y109455D01*
X118180Y109485D01*
X118255Y109536D01*
X118320Y109606D01*
X118375Y109697D01*
X118420Y109809D01*
X118455Y109940D01*
X118480Y110092D01*
X118495Y110264D01*
X118500Y110457D01*
X119500D01*
X119505Y110264D01*
D02*
G37*
G36*
X118607Y105543D02*
X118529Y105600D01*
X118438Y105628D01*
X118332D01*
X118211Y105600D01*
X118077Y105543D01*
X117929Y105459D01*
X117766Y105345D01*
X117589Y105204D01*
X117193Y104836D01*
X116486Y105543D01*
X116684Y105749D01*
X116995Y106116D01*
X117108Y106279D01*
X117193Y106427D01*
X117250Y106562D01*
X117278Y106682D01*
Y106788D01*
X117250Y106880D01*
X117193Y106958D01*
X118607Y105543D01*
D02*
G37*
G36*
X78336Y104705D02*
X78367Y104620D01*
X78417Y104545D01*
X78488Y104480D01*
X78579Y104425D01*
X78690Y104380D01*
X78822Y104345D01*
X78974Y104320D01*
X79146Y104305D01*
X79338Y104300D01*
Y103300D01*
X79146Y103295D01*
X78974Y103280D01*
X78822Y103255D01*
X78690Y103220D01*
X78579Y103175D01*
X78488Y103120D01*
X78417Y103055D01*
X78367Y102980D01*
X78336Y102895D01*
X78326Y102800D01*
Y104800D01*
X78336Y104705D01*
D02*
G37*
G36*
X77905Y101864D02*
X77820Y101833D01*
X77745Y101783D01*
X77680Y101712D01*
X77625Y101621D01*
X77580Y101510D01*
X77545Y101378D01*
X77520Y101226D01*
X77505Y101054D01*
X77500Y100862D01*
X76500D01*
X76495Y101054D01*
X76480Y101226D01*
X76455Y101378D01*
X76420Y101510D01*
X76375Y101621D01*
X76320Y101712D01*
X76255Y101783D01*
X76180Y101833D01*
X76095Y101864D01*
X76000Y101874D01*
X78000D01*
X77905Y101864D01*
D02*
G37*
G36*
X49317Y103003D02*
X49347Y102833D01*
X49397Y102683D01*
X49467Y102553D01*
X49557Y102443D01*
X49667Y102353D01*
X49797Y102283D01*
X49947Y102233D01*
X50117Y102203D01*
X50307Y102193D01*
Y101193D01*
X50117Y101183D01*
X49947Y101153D01*
X49797Y101103D01*
X49667Y101033D01*
X49557Y100943D01*
X49467Y100833D01*
X49397Y100703D01*
X49347Y100553D01*
X49317Y100383D01*
X49307Y100193D01*
X48307Y101693D01*
X49307Y103193D01*
X49317Y103003D01*
D02*
G37*
G36*
X77500Y99000D02*
X76500Y97500D01*
X76490Y97690D01*
X76460Y97860D01*
X76410Y98010D01*
X76340Y98140D01*
X76250Y98250D01*
X76140Y98340D01*
X76010Y98410D01*
X75860Y98460D01*
X75690Y98490D01*
X75500Y98500D01*
Y99500D01*
X75690Y99510D01*
X75860Y99540D01*
X76010Y99590D01*
X76140Y99660D01*
X76250Y99750D01*
X76340Y99860D01*
X76410Y99990D01*
X76460Y100140D01*
X76490Y100310D01*
X76500Y100500D01*
X77500Y99000D01*
D02*
G37*
G36*
X75352Y82264D02*
X75366Y82092D01*
X75392Y81940D01*
X75427Y81809D01*
X75472Y81697D01*
X75526Y81606D01*
X75591Y81536D01*
X75666Y81485D01*
X75752Y81455D01*
X75846Y81445D01*
X73847D01*
X73941Y81455D01*
X74027Y81485D01*
X74102Y81536D01*
X74167Y81606D01*
X74221Y81697D01*
X74266Y81809D01*
X74301Y81940D01*
X74326Y82092D01*
X74341Y82264D01*
X74347Y82456D01*
X75346D01*
X75352Y82264D01*
D02*
G37*
G36*
X57003Y82266D02*
X57042Y81817D01*
X57065Y81707D01*
X57094Y81616D01*
X57127Y81546D01*
X57166Y81497D01*
X57210Y81467D01*
X57260Y81457D01*
X55500Y81445D01*
X55595Y81455D01*
X55680Y81486D01*
X55755Y81537D01*
X55820Y81608D01*
X55875Y81699D01*
X55920Y81810D01*
X55955Y81942D01*
X55980Y82093D01*
X55995Y82265D01*
X56000Y82456D01*
X57000D01*
X57003Y82266D01*
D02*
G37*
G36*
X49312Y82264D02*
X49327Y82092D01*
X49352Y81940D01*
X49387Y81809D01*
X49432Y81697D01*
X49487Y81606D01*
X49552Y81536D01*
X49627Y81485D01*
X49712Y81455D01*
X49807Y81445D01*
X47807D01*
X47902Y81455D01*
X47987Y81485D01*
X48062Y81536D01*
X48127Y81606D01*
X48182Y81697D01*
X48227Y81809D01*
X48262Y81940D01*
X48287Y82092D01*
X48302Y82264D01*
X48307Y82456D01*
X49307D01*
X49312Y82264D01*
D02*
G37*
G36*
X76616Y80405D02*
X76646Y80320D01*
X76696Y80245D01*
X76766Y80180D01*
X76856Y80125D01*
X76966Y80080D01*
X77096Y80045D01*
X77246Y80020D01*
X77416Y80005D01*
X77606Y80000D01*
Y79000D01*
X77416Y78995D01*
X77246Y78980D01*
X77096Y78955D01*
X76966Y78920D01*
X76856Y78875D01*
X76766Y78820D01*
X76696Y78755D01*
X76646Y78680D01*
X76616Y78595D01*
X76606Y78500D01*
Y80500D01*
X76616Y80405D01*
D02*
G37*
G36*
X67501Y99664D02*
X55419Y87581D01*
X55087Y87085D01*
X54971Y86500D01*
Y82468D01*
X52728D01*
Y78731D01*
X52521Y78487D01*
X52041Y78007D01*
X51579Y78198D01*
Y82468D01*
X50336D01*
Y100163D01*
X67294D01*
X67501Y99664D01*
D02*
G37*
G36*
X74846Y97009D02*
X73765Y95928D01*
X73434Y95432D01*
X73317Y94846D01*
Y82468D01*
X72075D01*
Y78198D01*
X71613Y78007D01*
X71175Y78445D01*
X71025Y78606D01*
X70929Y78727D01*
X70925Y78732D01*
Y78920D01*
X70933Y78958D01*
X70925Y78996D01*
Y82468D01*
X65382D01*
Y77575D01*
X65374Y77536D01*
X65382Y77499D01*
Y76531D01*
X65441D01*
Y66104D01*
X53765Y54428D01*
X53529Y54075D01*
X53029Y54227D01*
Y74670D01*
X54647Y76287D01*
X54806Y76435D01*
X54926Y76531D01*
X58272D01*
Y81424D01*
X58279Y81463D01*
X58272Y81500D01*
Y82468D01*
X58029D01*
Y85866D01*
X69634Y97471D01*
X74654D01*
X74846Y97009D01*
D02*
G37*
G36*
X55155Y77556D02*
X55078Y77611D01*
X54987Y77638D01*
X54881Y77637D01*
X54761Y77607D01*
X54627Y77549D01*
X54479Y77464D01*
X54316Y77349D01*
X54138Y77206D01*
X53740Y76836D01*
X53033Y77543D01*
X53232Y77750D01*
X53546Y78119D01*
X53660Y78282D01*
X53746Y78430D01*
X53804Y78565D01*
X53834Y78685D01*
X53835Y78790D01*
X53808Y78881D01*
X53752Y78958D01*
X55155Y77556D01*
D02*
G37*
G36*
X69857Y78880D02*
X69828Y78788D01*
Y78682D01*
X69857Y78562D01*
X69913Y78427D01*
X69998Y78279D01*
X70111Y78116D01*
X70253Y77939D01*
X70620Y77543D01*
X69913Y76836D01*
X69708Y77034D01*
X69340Y77346D01*
X69178Y77459D01*
X69029Y77543D01*
X68895Y77600D01*
X68775Y77628D01*
X68669D01*
X68577Y77600D01*
X68499Y77543D01*
X69913Y78958D01*
X69857Y78880D01*
D02*
G37*
G36*
X67876Y77545D02*
X67791Y77514D01*
X67716Y77463D01*
X67651Y77392D01*
X67596Y77301D01*
X67551Y77189D01*
X67516Y77058D01*
X67491Y76907D01*
X67476Y76735D01*
X67471Y76543D01*
X66471D01*
X66470Y76733D01*
X66422Y77504D01*
X66408Y77534D01*
X66394Y77543D01*
X67971Y77556D01*
X67876Y77545D01*
D02*
G37*
G36*
X38262Y75520D02*
X38292Y75440D01*
X38342Y75369D01*
X38412Y75308D01*
X38502Y75256D01*
X38612Y75213D01*
X38742Y75180D01*
X38892Y75157D01*
X39062Y75143D01*
X39252Y75138D01*
Y74138D01*
X39062Y74133D01*
X38892Y74119D01*
X38742Y74095D01*
X38612Y74062D01*
X38502Y74020D01*
X38412Y73968D01*
X38342Y73906D01*
X38292Y73836D01*
X38262Y73755D01*
X38252Y73665D01*
Y75610D01*
X38262Y75520D01*
D02*
G37*
G36*
X104084Y74618D02*
X104453Y74304D01*
X104616Y74190D01*
X104765Y74104D01*
X104899Y74046D01*
X105019Y74017D01*
X105125Y74016D01*
X105216Y74043D01*
X105292Y74098D01*
X103890Y72696D01*
X103946Y72773D01*
X103973Y72864D01*
X103971Y72969D01*
X103942Y73089D01*
X103884Y73223D01*
X103798Y73372D01*
X103684Y73535D01*
X103541Y73712D01*
X103171Y74110D01*
X103878Y74817D01*
X104084Y74618D01*
D02*
G37*
G36*
X111608Y73905D02*
X111638Y73820D01*
X111689Y73745D01*
X111760Y73680D01*
X111851Y73625D01*
X111962Y73580D01*
X112094Y73545D01*
X112246Y73520D01*
X112418Y73505D01*
X112610Y73500D01*
Y72500D01*
X112418Y72495D01*
X112246Y72480D01*
X112094Y72455D01*
X111962Y72420D01*
X111851Y72375D01*
X111760Y72320D01*
X111689Y72255D01*
X111638Y72180D01*
X111608Y72095D01*
X111598Y72000D01*
Y74000D01*
X111608Y73905D01*
D02*
G37*
G36*
X85804Y71890D02*
X85726Y71947D01*
X85634Y71975D01*
X85528D01*
X85408Y71947D01*
X85274Y71890D01*
X85125Y71805D01*
X84963Y71692D01*
X84786Y71551D01*
X84390Y71183D01*
X83683Y71890D01*
X83881Y72095D01*
X84192Y72463D01*
X84305Y72625D01*
X84390Y72774D01*
X84447Y72908D01*
X84475Y73028D01*
Y73134D01*
X84447Y73226D01*
X84390Y73304D01*
X85804Y71890D01*
D02*
G37*
G36*
X92829Y69110D02*
X92630Y68904D01*
X92316Y68535D01*
X92202Y68372D01*
X92116Y68223D01*
X92058Y68089D01*
X92029Y67969D01*
X92027Y67864D01*
X92054Y67773D01*
X92110Y67696D01*
X90708Y69098D01*
X90784Y69043D01*
X90875Y69016D01*
X90981Y69017D01*
X91101Y69046D01*
X91235Y69104D01*
X91384Y69190D01*
X91547Y69304D01*
X91724Y69447D01*
X92122Y69817D01*
X92829Y69110D01*
D02*
G37*
G36*
X118357Y50753D02*
X118372Y50581D01*
X118397Y50429D01*
X118432Y50297D01*
X118477Y50186D01*
X118532Y50095D01*
X118597Y50024D01*
X118672Y49973D01*
X118757Y49943D01*
X118852Y49933D01*
X116852D01*
X116947Y49943D01*
X117032Y49973D01*
X117107Y50024D01*
X117172Y50095D01*
X117227Y50186D01*
X117272Y50297D01*
X117307Y50429D01*
X117332Y50581D01*
X117347Y50753D01*
X117352Y50945D01*
X118352D01*
X118357Y50753D01*
D02*
G37*
G36*
X76360Y48834D02*
X76162Y48629D01*
X75851Y48262D01*
X75738Y48099D01*
X75653Y47951D01*
X75597Y47816D01*
X75568Y47696D01*
Y47590D01*
X75597Y47498D01*
X75653Y47420D01*
X74239Y48834D01*
X74317Y48778D01*
X74409Y48750D01*
X74515D01*
X74635Y48778D01*
X74770Y48834D01*
X74918Y48919D01*
X75081Y49032D01*
X75257Y49174D01*
X75653Y49542D01*
X76360Y48834D01*
D02*
G37*
G36*
X55352Y45764D02*
X55366Y45592D01*
X55392Y45440D01*
X55427Y45309D01*
X55471Y45197D01*
X55527Y45106D01*
X55591Y45036D01*
X55667Y44985D01*
X55752Y44955D01*
X55847Y44945D01*
X53847D01*
X53942Y44955D01*
X54027Y44985D01*
X54102Y45036D01*
X54167Y45106D01*
X54221Y45197D01*
X54267Y45309D01*
X54302Y45440D01*
X54326Y45592D01*
X54342Y45764D01*
X54347Y45957D01*
X55347D01*
X55352Y45764D01*
D02*
G37*
G36*
X36606Y18957D02*
X35118Y18945D01*
X35213Y18955D01*
X35298Y18986D01*
X35373Y19037D01*
X35438Y19108D01*
X35493Y19199D01*
X35538Y19311D01*
X35573Y19442D01*
X35598Y19593D01*
X35613Y19765D01*
X35618Y19956D01*
X36618D01*
X36606Y18957D01*
D02*
G37*
G36*
X65719Y38392D02*
X65638Y37986D01*
Y16801D01*
X62618Y13781D01*
X62118Y13988D01*
Y19468D01*
X60876D01*
Y34256D01*
X65258Y38638D01*
X65719Y38392D01*
D02*
G37*
%LPC*%
G36*
X33252Y64053D02*
X32667Y63937D01*
X32171Y63605D01*
X31839Y63109D01*
X31723Y62524D01*
X31839Y61938D01*
X31864Y61901D01*
X31813Y61646D01*
X31930Y61060D01*
X32261Y60564D01*
X32757Y60233D01*
X33342Y60116D01*
X33928Y60233D01*
X34424Y60564D01*
X34818Y60958D01*
X35149Y61454D01*
X35266Y62039D01*
X35149Y62625D01*
X34818Y63121D01*
X34333Y63605D01*
X33837Y63937D01*
X33252Y64053D01*
D02*
G37*
G36*
X23500Y62473D02*
X22776Y62378D01*
X22102Y62098D01*
X21523Y61654D01*
X21079Y61075D01*
X20800Y60401D01*
X20704Y59677D01*
X20800Y58954D01*
X21079Y58279D01*
X21523Y57700D01*
X22102Y57256D01*
X22776Y56977D01*
X23500Y56882D01*
X24224Y56977D01*
X24898Y57256D01*
X25477Y57700D01*
X25921Y58279D01*
X26200Y58954D01*
X26296Y59677D01*
X26200Y60401D01*
X25921Y61075D01*
X25477Y61654D01*
X24898Y62098D01*
X24224Y62378D01*
X23500Y62473D01*
D02*
G37*
G36*
X52653Y18029D02*
X52068Y17913D01*
X51572Y17581D01*
X51241Y17085D01*
X51124Y16500D01*
Y16303D01*
X51241Y15718D01*
X51572Y15222D01*
X52068Y14890D01*
X52653Y14774D01*
X53239Y14890D01*
X53735Y15222D01*
X54066Y15718D01*
X54183Y16303D01*
Y16500D01*
X54066Y17085D01*
X53735Y17581D01*
X53239Y17913D01*
X52653Y18029D01*
D02*
G37*
%LPD*%
G36*
X140556Y42347D02*
X140545Y42441D01*
X140515Y42527D01*
X140464Y42601D01*
X140394Y42667D01*
X140303Y42722D01*
X140191Y42766D01*
X140060Y42801D01*
X139908Y42827D01*
X139736Y42842D01*
X139543Y42847D01*
Y43846D01*
X139736Y43852D01*
X139908Y43867D01*
X140060Y43892D01*
X140191Y43927D01*
X140303Y43971D01*
X140394Y44026D01*
X140464Y44091D01*
X140515Y44166D01*
X140545Y44251D01*
X140556Y44346D01*
Y42347D01*
D02*
G37*
G36*
X92065Y63226D02*
X92037Y63134D01*
Y63028D01*
X92065Y62908D01*
X92122Y62774D01*
X92207Y62625D01*
X92320Y62463D01*
X92461Y62286D01*
X92829Y61890D01*
X92122Y61183D01*
X91917Y61381D01*
X91549Y61692D01*
X91386Y61805D01*
X91238Y61890D01*
X91104Y61946D01*
X90983Y61975D01*
X90877D01*
X90785Y61946D01*
X90708Y61890D01*
X92122Y63304D01*
X92065Y63226D01*
D02*
G37*
G36*
X140556Y35528D02*
X140545Y35623D01*
X140515Y35708D01*
X140464Y35783D01*
X140394Y35848D01*
X140303Y35903D01*
X140191Y35948D01*
X140060Y35983D01*
X139908Y36008D01*
X139736Y36023D01*
X139543Y36028D01*
Y37028D01*
X139736Y37033D01*
X139908Y37048D01*
X140060Y37073D01*
X140191Y37108D01*
X140303Y37153D01*
X140394Y37208D01*
X140464Y37273D01*
X140515Y37348D01*
X140545Y37433D01*
X140556Y37528D01*
Y35528D01*
D02*
G37*
G36*
X122976Y34591D02*
X122751Y34358D01*
X122402Y33954D01*
X122279Y33782D01*
X122190Y33630D01*
X122135Y33499D01*
X122115Y33388D01*
X122128Y33297D01*
X122176Y33227D01*
X122257Y33176D01*
X120265Y33988D01*
X120368Y33959D01*
X120479Y33952D01*
X120599Y33968D01*
X120728Y34006D01*
X120865Y34067D01*
X121011Y34150D01*
X121165Y34256D01*
X121328Y34384D01*
X121499Y34534D01*
X121679Y34707D01*
X122976Y34591D01*
D02*
G37*
G36*
X114205Y34534D02*
X114539Y34256D01*
X114694Y34150D01*
X114839Y34067D01*
X114977Y34006D01*
X115105Y33968D01*
X115225Y33952D01*
X115337Y33959D01*
X115440Y33988D01*
X113447Y33176D01*
X113529Y33227D01*
X113576Y33297D01*
X113590Y33388D01*
X113569Y33499D01*
X113514Y33630D01*
X113425Y33782D01*
X113302Y33954D01*
X113145Y34146D01*
X112728Y34591D01*
X114026Y34707D01*
X114205Y34534D01*
D02*
G37*
D13*
X33579Y119452D02*
Y130940D01*
Y119452D02*
X44000Y109031D01*
X96000Y138150D02*
X97150Y137000D01*
X26500Y3500D02*
X54500D01*
X18110Y11890D02*
X26500Y3500D01*
X18110Y11890D02*
Y63495D01*
X54500Y3500D02*
X67167Y16167D01*
X18110Y63495D02*
X28768Y74154D01*
X33252D01*
X33736Y74638D01*
X36118Y25103D02*
X51500Y40485D01*
X77000Y99000D02*
Y103750D01*
X51500Y40485D02*
Y75303D01*
X76950Y103250D02*
Y103800D01*
X36118Y18469D02*
Y25103D01*
X67167Y16167D02*
Y37986D01*
X72122Y42941D01*
Y43138D01*
X59346Y16500D02*
Y34890D01*
X72122Y47665D01*
Y47862D01*
X74878Y39472D02*
X83153Y31197D01*
Y31000D02*
Y31197D01*
X74878Y39472D02*
Y43138D01*
X67654Y79154D02*
X68500D01*
X66971Y78471D02*
X67654Y79154D01*
X66971Y65471D02*
Y78471D01*
X68154Y79500D02*
X68500Y79154D01*
X54847Y53347D02*
X66971Y65471D01*
X44000Y78000D02*
Y109031D01*
X128022Y69157D02*
X133468D01*
X126992Y68128D02*
X128022Y69157D01*
X116000Y73000D02*
X117852Y71148D01*
Y46118D02*
Y71148D01*
X97722Y50304D02*
X117852Y30173D01*
X97722Y50304D02*
Y56290D01*
X91012Y63000D02*
X97722Y56290D01*
X88256Y63000D02*
X91012D01*
X117852Y30173D02*
X124206Y36528D01*
X107744Y73000D02*
X116000D01*
X126992Y53990D02*
Y68128D01*
X137636Y43347D02*
X142500D01*
X126992Y53990D02*
X137636Y43347D01*
X48807Y79500D02*
Y101693D01*
X67893D01*
X69450Y103250D01*
X48807Y101693D02*
Y116496D01*
X40638Y74638D02*
X44000Y78000D01*
X35508Y74638D02*
X40638D01*
X77000Y110500D02*
Y112000D01*
X75500Y109000D02*
X77000Y110500D01*
X71000Y109000D02*
X75500D01*
X69500Y110500D02*
X71000Y109000D01*
X69500Y110500D02*
Y114000D01*
X66713Y117337D02*
X69500Y114550D01*
X66713Y117337D02*
Y132500D01*
X69500Y114000D02*
Y114550D01*
X35138Y132500D02*
X66713D01*
X71060Y136846D01*
X77000D01*
X108201Y137000D02*
X112701Y132500D01*
X97150Y137000D02*
X108201D01*
X77000Y136846D02*
X95697D01*
X69450Y103250D02*
Y103800D01*
X133468Y71716D02*
X133740Y71445D01*
X133468Y71716D02*
X133740Y71988D01*
X33579Y130940D02*
X35138Y132500D01*
X77000Y97000D02*
Y99000D01*
X69000D02*
X77000D01*
X56500Y86500D02*
X69000Y99000D01*
X56500Y80500D02*
Y86500D01*
X55500Y79500D02*
X56500Y80500D01*
X37000Y128303D02*
X48807Y116496D01*
X37000Y128303D02*
Y128500D01*
X88256Y58000D02*
X91012D01*
X142374Y36528D02*
X142500Y36654D01*
X124206Y36528D02*
X142374D01*
X68500Y78957D02*
X71835Y75622D01*
X54847Y43000D02*
Y53347D01*
X76950Y103800D02*
X77000Y103750D01*
X74847Y94846D02*
X77000Y97000D01*
X74847Y79500D02*
Y94846D01*
Y79500D02*
X98488D01*
X104988Y73000D01*
X107744D01*
X71835Y75622D02*
X92755D01*
X93634Y74743D01*
Y70622D02*
Y74743D01*
X91012Y68000D02*
X93634Y70622D01*
X88256Y68000D02*
X91012D01*
X85500Y73000D02*
X88256D01*
X80022Y67522D02*
X85500Y73000D01*
X80022Y53203D02*
Y67522D01*
X74878Y48059D02*
X80022Y53203D01*
X74878Y47862D02*
Y48059D01*
X11000Y50130D02*
X11689Y50819D01*
X83153Y30803D02*
Y31000D01*
X48154Y42803D02*
Y43000D01*
X89846Y31197D02*
X91118Y32469D01*
X89846Y31000D02*
Y31197D01*
X51500Y75303D02*
X55500Y79303D01*
Y79500D01*
X34650Y17000D02*
X36118Y18469D01*
X11689Y50819D02*
X12673D01*
X32358Y85858D02*
X33342D01*
X33252Y62524D02*
X33736Y62039D01*
X33342Y61646D02*
X33736Y62039D01*
X115450Y103800D02*
X119150Y107500D01*
X76950Y103800D02*
X115450D01*
X59346Y16303D02*
Y16500D01*
X29906Y89295D02*
X33342Y85858D01*
X52653Y16303D02*
Y16500D01*
X119000Y107650D02*
X119150Y107500D01*
X119000Y107650D02*
Y120000D01*
D15*
X37000Y128500D02*
D03*
X30307D02*
D03*
X68154Y79500D02*
D03*
X74847D02*
D03*
X48154Y43000D02*
D03*
X54847D02*
D03*
X89846Y31000D02*
D03*
X83153D02*
D03*
X59346Y16500D02*
D03*
X52653D02*
D03*
X55500Y79500D02*
D03*
X48807D02*
D03*
D16*
X117852Y46118D02*
D03*
Y30173D02*
D03*
D17*
X107744Y73000D02*
D03*
Y68000D02*
D03*
Y63000D02*
D03*
Y58000D02*
D03*
X88256D02*
D03*
Y63000D02*
D03*
Y68000D02*
D03*
Y73000D02*
D03*
D18*
X142500Y36654D02*
D03*
Y43347D02*
D03*
D19*
X72122Y47862D02*
D03*
X74878D02*
D03*
Y43138D02*
D03*
X72122D02*
D03*
D20*
X11689Y50819D02*
D03*
X33342D02*
D03*
Y85858D02*
D03*
X11689D02*
D03*
D21*
X33736Y62039D02*
D03*
Y65189D02*
D03*
Y74638D02*
D03*
Y71488D02*
D03*
Y68339D02*
D03*
D22*
X76900Y114000D02*
D03*
X73200D02*
D03*
X69500D02*
D03*
X69450Y103800D02*
D03*
X76950D02*
D03*
D23*
X77000Y130154D02*
D03*
Y136846D02*
D03*
D24*
X34650Y17000D02*
D03*
X28350D02*
D03*
X119000Y132500D02*
D03*
X112701D02*
D03*
X119000Y120000D02*
D03*
X112701D02*
D03*
X119150Y107500D02*
D03*
X112850D02*
D03*
D25*
X144000Y79000D02*
D03*
Y69551D02*
D03*
D26*
X134354Y86874D02*
D03*
Y61677D02*
D03*
D27*
X133468Y79394D02*
D03*
Y76835D02*
D03*
Y74276D02*
D03*
Y71716D02*
D03*
Y69157D02*
D03*
D28*
X96000Y136650D02*
D03*
Y130350D02*
D03*
D47*
X23500Y59677D02*
D03*
Y77000D02*
D03*
D48*
X144000Y87268D02*
D03*
Y61283D02*
D03*
D49*
Y87268D02*
D03*
Y61283D02*
D03*
D50*
X7500Y7500D02*
D03*
Y143000D02*
D03*
X143000D02*
D03*
Y7500D02*
D03*
D51*
X142126Y136220D02*
D03*
X136220Y124409D02*
D03*
X142126Y112598D02*
D03*
X136220Y100787D02*
D03*
Y53543D02*
D03*
Y29921D02*
D03*
X142126Y18110D02*
D03*
X136220Y6299D02*
D03*
X130315Y136220D02*
D03*
X124409Y124409D02*
D03*
X130315Y112598D02*
D03*
X124409Y100787D02*
D03*
Y77165D02*
D03*
X130315Y41732D02*
D03*
Y18110D02*
D03*
X124409Y6299D02*
D03*
X118504Y136220D02*
D03*
X112598Y124409D02*
D03*
Y100787D02*
D03*
X118504Y88976D02*
D03*
X112598Y77165D02*
D03*
Y53543D02*
D03*
X118504Y18110D02*
D03*
X112598Y6299D02*
D03*
X100787Y124409D02*
D03*
X106693Y112598D02*
D03*
X100787Y100787D02*
D03*
X106693Y88976D02*
D03*
X100787Y53543D02*
D03*
Y29921D02*
D03*
X106693Y18110D02*
D03*
X100787Y6299D02*
D03*
X88976Y124409D02*
D03*
X94882Y112598D02*
D03*
X88976Y100787D02*
D03*
X94882Y88976D02*
D03*
Y65354D02*
D03*
X88976Y53543D02*
D03*
X94882Y41732D02*
D03*
Y18110D02*
D03*
X88976Y6299D02*
D03*
X77165Y124409D02*
D03*
X83071Y112598D02*
D03*
Y88976D02*
D03*
Y41732D02*
D03*
X77165Y29921D02*
D03*
X83071Y18110D02*
D03*
X77165Y6299D02*
D03*
X71260Y88976D02*
D03*
Y65354D02*
D03*
X65354Y53543D02*
D03*
X71260Y18110D02*
D03*
X65354Y6299D02*
D03*
X59449Y136220D02*
D03*
X53543Y124409D02*
D03*
X59449Y112598D02*
D03*
Y65354D02*
D03*
Y41732D02*
D03*
X53543Y29921D02*
D03*
X47638Y136220D02*
D03*
Y65354D02*
D03*
X41732Y53543D02*
D03*
X47638Y18110D02*
D03*
X41732Y6299D02*
D03*
X35827Y136220D02*
D03*
X29921Y124409D02*
D03*
X35827Y112598D02*
D03*
X29921Y100787D02*
D03*
X35827Y41732D02*
D03*
X29921Y29921D02*
D03*
Y6299D02*
D03*
X24016Y136220D02*
D03*
X18110Y124409D02*
D03*
X24016Y112598D02*
D03*
X18110Y100787D02*
D03*
X24016Y88976D02*
D03*
X18110Y77165D02*
D03*
X24016Y65354D02*
D03*
Y41732D02*
D03*
Y18110D02*
D03*
X18110Y6299D02*
D03*
X12205Y136220D02*
D03*
X6299Y124409D02*
D03*
X12205Y112598D02*
D03*
X6299Y100787D02*
D03*
Y77165D02*
D03*
X12205Y65354D02*
D03*
Y41732D02*
D03*
X6299Y29921D02*
D03*
X12205Y18110D02*
D03*
M02*
