G04*
G04 #@! TF.GenerationSoftware,Altium Limited,Altium Designer,19.1.5 (86)*
G04*
G04 Layer_Color=32768*
%FSLAX25Y25*%
%MOIN*%
G70*
G01*
G75*
%ADD53C,0.00394*%
%ADD55C,0.00197*%
D53*
X31500Y15130D02*
Y18870D01*
X29630Y17000D02*
X33370D01*
X25398Y14047D02*
X37602D01*
X25398Y19953D02*
X37602D01*
Y14047D02*
Y19953D01*
X25398Y14047D02*
Y19953D01*
X75032Y133500D02*
X78969D01*
X77000Y131532D02*
Y135468D01*
X73063Y126610D02*
Y140390D01*
X80937Y126610D02*
Y140390D01*
X73063Y126610D02*
X80937D01*
X73063Y140390D02*
X80937D01*
X122031Y44500D02*
X125969D01*
X124000Y42531D02*
Y46468D01*
X13000Y104630D02*
Y108370D01*
X11130Y106500D02*
X14870D01*
X6898Y103547D02*
X19102D01*
X6898Y109453D02*
X19102D01*
Y103547D02*
Y109453D01*
X6898Y103547D02*
Y109453D01*
X29047Y110724D02*
X34953D01*
X29047Y101276D02*
X34953D01*
Y110724D01*
X29047Y101276D02*
Y110724D01*
X32000Y104130D02*
Y107870D01*
X30130Y106000D02*
X33870D01*
X71500Y77630D02*
Y81370D01*
X69630Y79500D02*
X73370D01*
X65398Y76547D02*
X77602D01*
X65398Y82453D02*
X77602D01*
Y76547D02*
Y82453D01*
X65398Y76547D02*
Y82453D01*
X52153Y77630D02*
Y81370D01*
X50283Y79500D02*
X54024D01*
X46051Y76547D02*
X58256D01*
X46051Y82453D02*
X58256D01*
Y76547D02*
Y82453D01*
X46051Y76547D02*
Y82453D01*
X51500Y41130D02*
Y44870D01*
X49630Y43000D02*
X53370D01*
X45398Y40047D02*
X57602D01*
X45398Y45953D02*
X57602D01*
Y40047D02*
Y45953D01*
X45398Y40047D02*
Y45953D01*
X55500Y15630D02*
Y19370D01*
X53630Y17500D02*
X57370D01*
X49398Y14547D02*
X61602D01*
X49398Y20453D02*
X61602D01*
Y14547D02*
Y20453D01*
X49398Y14547D02*
Y20453D01*
X93047Y139602D02*
X98953D01*
X93047Y127398D02*
X98953D01*
Y139602D01*
X93047Y127398D02*
Y139602D01*
X96000Y131630D02*
Y135370D01*
X94130Y133500D02*
X97870D01*
X140630Y40000D02*
X144370D01*
X142500Y38130D02*
Y41870D01*
X145453Y33898D02*
Y46102D01*
X139547Y33898D02*
Y46102D01*
X145453D01*
X139547Y33898D02*
X145453D01*
X70547Y40776D02*
X76453D01*
X70547Y50224D02*
X76453D01*
X70547Y40776D02*
Y50224D01*
X76453Y40776D02*
Y50224D01*
X73500Y43630D02*
Y47370D01*
X71630Y45500D02*
X75370D01*
X121953Y129547D02*
Y135453D01*
X109748Y129547D02*
Y135453D01*
Y129547D02*
X121953D01*
X109748Y135453D02*
X121953D01*
X113980Y132500D02*
X117720D01*
X115850Y130630D02*
Y134370D01*
X121953Y117047D02*
Y122953D01*
X109748Y117047D02*
Y122953D01*
Y117047D02*
X121953D01*
X109748Y122953D02*
X121953D01*
X113980Y120000D02*
X117720D01*
X115850Y118130D02*
Y121870D01*
X122102Y104547D02*
Y110453D01*
X109898Y104547D02*
Y110453D01*
Y104547D02*
X122102D01*
X109898Y110453D02*
X122102D01*
X114130Y107500D02*
X117870D01*
X116000Y105630D02*
Y109370D01*
X33654Y126630D02*
Y130370D01*
X31784Y128500D02*
X35524D01*
X27551Y125547D02*
X39756D01*
X27551Y131453D02*
X39756D01*
Y125547D02*
Y131453D01*
X27551Y125547D02*
Y131453D01*
D55*
X83394Y76327D02*
X112606D01*
Y54673D02*
Y76327D01*
X83394Y54673D02*
X112606D01*
X83394D02*
Y76327D01*
X115535Y32098D02*
Y56902D01*
X132465Y32098D02*
Y56902D01*
X115535Y32098D02*
X132465D01*
X115535Y56902D02*
X132465D01*
X5784Y45898D02*
X39445D01*
X5784D02*
Y52197D01*
X-713D02*
X5784D01*
X-713D02*
Y84480D01*
X5784D01*
Y90780D01*
X39445D01*
Y45898D02*
Y90780D01*
M02*
