G04*
G04 #@! TF.GenerationSoftware,Altium Limited,Altium Designer,19.1.5 (86)*
G04*
G04 Layer_Color=16711935*
%FSLAX25Y25*%
%MOIN*%
G70*
G01*
G75*
%ADD12C,0.01575*%
%ADD14C,0.00500*%
%ADD51C,0.00000*%
%ADD52C,0.00781*%
%ADD53C,0.00394*%
%ADD54C,0.00200*%
D12*
X34248Y74638D02*
G03*
X34248Y74638I-315J0D01*
G01*
D02*
G03*
X34248Y74638I-315J0D01*
G01*
D14*
X90323Y55854D02*
X105677D01*
Y75146D01*
X90323D02*
X105677D01*
X90323Y55854D02*
Y75146D01*
Y55854D02*
X105677D01*
Y75146D01*
X90323D02*
X105677D01*
X90323Y55854D02*
Y75146D01*
X2831Y53181D02*
X38461D01*
X272D02*
X2831D01*
X272D02*
Y83496D01*
X2831D01*
X38461D01*
Y53181D02*
Y83496D01*
X2831Y53181D02*
Y83496D01*
Y53181D02*
X38461D01*
X272D02*
X2831D01*
X272D02*
Y83496D01*
X2831D01*
X38461D01*
Y53181D02*
Y83496D01*
X2831Y53181D02*
Y83496D01*
X96666Y133633D02*
X97000Y133966D01*
Y134633D01*
X96666Y134966D01*
X95334D01*
X95000Y134633D01*
Y133966D01*
X95334Y133633D01*
X95000Y132967D02*
Y132300D01*
Y132633D01*
X97000D01*
X96666Y132967D01*
X116317Y131834D02*
X116650Y131500D01*
X117316D01*
X117650Y131834D01*
Y133167D01*
X117316Y133500D01*
X116650D01*
X116317Y133167D01*
X115650Y131834D02*
X115317Y131500D01*
X114651D01*
X114317Y131834D01*
Y132167D01*
X114651Y132500D01*
X114984D01*
X114651D01*
X114317Y132833D01*
Y133167D01*
X114651Y133500D01*
X115317D01*
X115650Y133167D01*
X77531Y133966D02*
X77864Y134300D01*
Y134966D01*
X77531Y135299D01*
X76198D01*
X75865Y134966D01*
Y134300D01*
X76198Y133966D01*
X75865Y131967D02*
Y133300D01*
X77198Y131967D01*
X77531D01*
X77864Y132300D01*
Y132967D01*
X77531Y133300D01*
X31034Y17666D02*
X30700Y18000D01*
X30034D01*
X29701Y17666D01*
Y16333D01*
X30034Y16000D01*
X30700D01*
X31034Y16333D01*
X32700Y16000D02*
Y18000D01*
X31700Y17000D01*
X33033D01*
X116317Y119334D02*
X116650Y119000D01*
X117316D01*
X117650Y119334D01*
Y120667D01*
X117316Y121000D01*
X116650D01*
X116317Y120667D01*
X114317Y119000D02*
X115650D01*
Y120000D01*
X114984Y119667D01*
X114651D01*
X114317Y120000D01*
Y120667D01*
X114651Y121000D01*
X115317D01*
X115650Y120667D01*
X116466Y106834D02*
X116800Y106500D01*
X117466D01*
X117799Y106834D01*
Y108167D01*
X117466Y108500D01*
X116800D01*
X116466Y108167D01*
X114467Y106500D02*
X115134Y106834D01*
X115800Y107500D01*
Y108167D01*
X115467Y108500D01*
X114800D01*
X114467Y108167D01*
Y107833D01*
X114800Y107500D01*
X115800D01*
D51*
X90100Y72000D02*
Y74000D01*
X85800D02*
X90100D01*
X85800Y72000D02*
Y74000D01*
Y72000D02*
X90100D01*
Y67000D02*
Y69000D01*
X85800D02*
X90100D01*
X85800Y67000D02*
Y69000D01*
Y67000D02*
X90100D01*
Y62000D02*
Y64000D01*
X85800D02*
X90100D01*
X85800Y62000D02*
Y64000D01*
Y62000D02*
X90100D01*
Y57000D02*
Y59000D01*
X85800D02*
X90100D01*
X85800Y57000D02*
Y59000D01*
Y57000D02*
X90100D01*
X105900D02*
Y59000D01*
Y57000D02*
X110200D01*
Y59000D01*
X105900D02*
X110200D01*
X105900Y62000D02*
Y64000D01*
Y62000D02*
X110200D01*
Y64000D01*
X105900D02*
X110200D01*
X105900Y67000D02*
Y69000D01*
Y67000D02*
X110200D01*
Y69000D01*
X105900D02*
X110200D01*
X105900Y72000D02*
Y74000D01*
Y72000D02*
X110200D01*
Y74000D01*
X105900D02*
X110200D01*
X90100Y72000D02*
Y74000D01*
X85800D02*
X90100D01*
X85800Y72000D02*
Y74000D01*
Y72000D02*
X90100D01*
Y67000D02*
Y69000D01*
X85800D02*
X90100D01*
X85800Y67000D02*
Y69000D01*
Y67000D02*
X90100D01*
Y62000D02*
Y64000D01*
X85800D02*
X90100D01*
X85800Y62000D02*
Y64000D01*
Y62000D02*
X90100D01*
Y57000D02*
Y59000D01*
X85800D02*
X90100D01*
X85800Y57000D02*
Y59000D01*
Y57000D02*
X90100D01*
X105900D02*
Y59000D01*
Y57000D02*
X110200D01*
Y59000D01*
X105900D02*
X110200D01*
X105900Y62000D02*
Y64000D01*
Y62000D02*
X110200D01*
Y64000D01*
X105900D02*
X110200D01*
X105900Y67000D02*
Y69000D01*
Y67000D02*
X110200D01*
Y69000D01*
X105900D02*
X110200D01*
X105900Y72000D02*
Y74000D01*
Y72000D02*
X110200D01*
Y74000D01*
X105900D02*
X110200D01*
D52*
X5753Y75032D02*
Y71869D01*
X6104Y70815D01*
X6456Y70463D01*
X7159Y70112D01*
X8213D01*
X8916Y70463D01*
X9268Y70815D01*
X9619Y71869D01*
Y75032D01*
X2239D01*
X7862Y63188D02*
X8565Y63540D01*
X9268Y64243D01*
X9619Y64946D01*
Y66351D01*
X9268Y67054D01*
X8565Y67757D01*
X7862Y68109D01*
X6807Y68460D01*
X5050D01*
X3996Y68109D01*
X3293Y67757D01*
X2590Y67054D01*
X2239Y66351D01*
Y64946D01*
X2590Y64243D01*
X3293Y63540D01*
X3996Y63188D01*
X9619Y61115D02*
X2239D01*
X9619D02*
Y57952D01*
X9268Y56898D01*
X8916Y56546D01*
X8213Y56195D01*
X7510D01*
X6807Y56546D01*
X6456Y56898D01*
X6104Y57952D01*
Y61115D02*
Y57952D01*
X5753Y56898D01*
X5402Y56546D01*
X4699Y56195D01*
X3644D01*
X2942Y56546D01*
X2590Y56898D01*
X2239Y57952D01*
Y61115D01*
X9619Y44175D02*
Y48744D01*
X2239D01*
Y44175D01*
X6104Y48744D02*
Y45933D01*
X9619Y42945D02*
X2239D01*
X9619D02*
Y40485D01*
X9268Y39431D01*
X8565Y38728D01*
X7862Y38377D01*
X6807Y38025D01*
X5050D01*
X3996Y38377D01*
X3293Y38728D01*
X2590Y39431D01*
X2239Y40485D01*
Y42945D01*
X7862Y31102D02*
X8565Y31453D01*
X9268Y32156D01*
X9619Y32859D01*
Y34265D01*
X9268Y34968D01*
X8565Y35671D01*
X7862Y36022D01*
X6807Y36373D01*
X5050D01*
X3996Y36022D01*
X3293Y35671D01*
X2590Y34968D01*
X2239Y34265D01*
Y32859D01*
X2590Y32156D01*
X3293Y31453D01*
X3996Y31102D01*
X5050D01*
Y32859D02*
Y31102D01*
X9619Y24846D02*
Y29415D01*
X2239D01*
Y24846D01*
X6104Y29415D02*
Y26603D01*
X5753Y75032D02*
Y71869D01*
X6104Y70815D01*
X6456Y70463D01*
X7159Y70112D01*
X8213D01*
X8916Y70463D01*
X9268Y70815D01*
X9619Y71869D01*
Y75032D01*
X2239D01*
X7862Y63188D02*
X8565Y63540D01*
X9268Y64243D01*
X9619Y64946D01*
Y66351D01*
X9268Y67054D01*
X8565Y67757D01*
X7862Y68109D01*
X6807Y68460D01*
X5050D01*
X3996Y68109D01*
X3293Y67757D01*
X2590Y67054D01*
X2239Y66351D01*
Y64946D01*
X2590Y64243D01*
X3293Y63540D01*
X3996Y63188D01*
X9619Y61115D02*
X2239D01*
X9619D02*
Y57952D01*
X9268Y56898D01*
X8916Y56546D01*
X8213Y56195D01*
X7510D01*
X6807Y56546D01*
X6456Y56898D01*
X6104Y57952D01*
Y61115D02*
Y57952D01*
X5753Y56898D01*
X5402Y56546D01*
X4699Y56195D01*
X3644D01*
X2942Y56546D01*
X2590Y56898D01*
X2239Y57952D01*
Y61115D01*
X9619Y44175D02*
Y48744D01*
X2239D01*
Y44175D01*
X6104Y48744D02*
Y45933D01*
X9619Y42945D02*
X2239D01*
X9619D02*
Y40485D01*
X9268Y39431D01*
X8565Y38728D01*
X7862Y38377D01*
X6807Y38025D01*
X5050D01*
X3996Y38377D01*
X3293Y38728D01*
X2590Y39431D01*
X2239Y40485D01*
Y42945D01*
X7862Y31102D02*
X8565Y31453D01*
X9268Y32156D01*
X9619Y32859D01*
Y34265D01*
X9268Y34968D01*
X8565Y35671D01*
X7862Y36022D01*
X6807Y36373D01*
X5050D01*
X3996Y36022D01*
X3293Y35671D01*
X2590Y34968D01*
X2239Y34265D01*
Y32859D01*
X2590Y32156D01*
X3293Y31453D01*
X3996Y31102D01*
X5050D01*
Y32859D02*
Y31102D01*
X9619Y24846D02*
Y29415D01*
X2239D01*
Y24846D01*
X6104Y29415D02*
Y26603D01*
D53*
X28055Y15130D02*
X34945D01*
X28055Y18870D02*
X34945D01*
Y15130D02*
Y18870D01*
X28055Y15130D02*
Y18870D01*
X74146Y129169D02*
Y137831D01*
X79854Y129169D02*
Y137831D01*
X74146Y129169D02*
X79854D01*
X74146Y137831D02*
X79854D01*
X116224Y35445D02*
Y53555D01*
X131776Y35445D02*
Y53555D01*
X116224Y35445D02*
X131776D01*
X116224Y53555D02*
X131776D01*
X9653Y104630D02*
X16346D01*
X9653Y108370D02*
X16346D01*
Y104630D02*
Y108370D01*
X9653Y104630D02*
Y108370D01*
X30130Y109445D02*
X33870D01*
X30130Y102555D02*
X33870D01*
Y109445D01*
X30130Y102555D02*
Y109445D01*
X68154Y77630D02*
X74847D01*
X68154Y81370D02*
X74847D01*
Y77630D02*
Y81370D01*
X68154Y77630D02*
Y81370D01*
X48807Y77630D02*
X55500D01*
X48807Y81370D02*
X55500D01*
Y77630D02*
Y81370D01*
X48807Y77630D02*
Y81370D01*
X48154Y41130D02*
X54847D01*
X48154Y44870D02*
X54847D01*
Y41130D02*
Y44870D01*
X48154Y41130D02*
Y44870D01*
X52153Y15630D02*
X58846D01*
X52153Y19370D02*
X58846D01*
Y15630D02*
Y19370D01*
X52153Y15630D02*
Y19370D01*
X94130Y136945D02*
X97870D01*
X94130Y130055D02*
X97870D01*
Y136945D01*
X94130Y130055D02*
Y136945D01*
X144370Y36654D02*
Y43347D01*
X140630Y36654D02*
Y43347D01*
X144370D01*
X140630Y36654D02*
X144370D01*
X71630Y42055D02*
X75370D01*
X71630Y48945D02*
X75370D01*
X71630Y42055D02*
Y48945D01*
X75370Y42055D02*
Y48945D01*
X119295Y130630D02*
Y134370D01*
X112406Y130630D02*
Y134370D01*
Y130630D02*
X119295D01*
X112406Y134370D02*
X119295D01*
Y118130D02*
Y121870D01*
X112406Y118130D02*
Y121870D01*
Y118130D02*
X119295D01*
X112406Y121870D02*
X119295D01*
X119445Y105630D02*
Y109370D01*
X112555Y105630D02*
Y109370D01*
Y105630D02*
X119445D01*
X112555Y109370D02*
X119445D01*
X30307Y126630D02*
X37000D01*
X30307Y130370D02*
X37000D01*
Y126630D02*
Y130370D01*
X30307Y126630D02*
Y130370D01*
X74278Y42125D02*
X72311D01*
Y43109D01*
X72638Y43437D01*
X73294D01*
X73622Y43109D01*
Y42125D01*
Y42781D02*
X74278Y43437D01*
X72311Y44093D02*
X74278D01*
Y45405D01*
X72311Y47373D02*
Y46061D01*
X74278D01*
Y47373D01*
X73294Y46061D02*
Y46717D01*
X72311Y48029D02*
X74278D01*
Y49013D01*
X73950Y49341D01*
X72638D01*
X72311Y49013D01*
Y48029D01*
X125180Y46078D02*
X122819D01*
Y44897D01*
X123213Y44504D01*
X124787D01*
X125180Y44897D01*
Y46078D01*
X122819Y43717D02*
Y42930D01*
Y43323D01*
X125180D01*
X124787Y43717D01*
X32862Y108063D02*
X33189Y108391D01*
Y109047D01*
X32862Y109375D01*
X31550D01*
X31222Y109047D01*
Y108391D01*
X31550Y108063D01*
X32206D01*
Y108719D01*
X33189Y107407D02*
X31222D01*
Y106095D01*
X33189Y104127D02*
Y105439D01*
X31222D01*
Y104127D01*
X32206Y105439D02*
Y104783D01*
X33189Y103471D02*
X31222D01*
Y102487D01*
X31550Y102159D01*
X32862D01*
X33189Y102487D01*
Y103471D01*
D54*
X143231Y38574D02*
X141732D01*
Y39324D01*
X141982Y39574D01*
X142481D01*
X142731Y39324D01*
Y38574D01*
Y39074D02*
X143231Y39574D01*
X141732Y41073D02*
X141982Y40573D01*
X142481Y40073D01*
X142981D01*
X143231Y40323D01*
Y40823D01*
X142981Y41073D01*
X142731D01*
X142481Y40823D01*
Y40073D01*
X70074Y78769D02*
Y80268D01*
X70824D01*
X71074Y80018D01*
Y79519D01*
X70824Y79269D01*
X70074D01*
X70574D02*
X71074Y78769D01*
X72323D02*
Y80268D01*
X71574Y79519D01*
X72573D01*
X11824Y105769D02*
Y107268D01*
X12574D01*
X12824Y107018D01*
Y106519D01*
X12574Y106269D01*
X11824D01*
X12324D02*
X12824Y105769D01*
X13323D02*
X13823D01*
X13573D01*
Y107268D01*
X13323Y107018D01*
X54074Y16769D02*
Y18268D01*
X54824D01*
X55074Y18018D01*
Y17519D01*
X54824Y17269D01*
X54074D01*
X54574D02*
X55074Y16769D01*
X55573Y18268D02*
X56573D01*
Y18018D01*
X55573Y17019D01*
Y16769D01*
X50074Y42269D02*
Y43768D01*
X50824D01*
X51074Y43518D01*
Y43019D01*
X50824Y42769D01*
X50074D01*
X50574D02*
X51074Y42269D01*
X52573Y43768D02*
X51573D01*
Y43019D01*
X52073Y43268D01*
X52323D01*
X52573Y43019D01*
Y42519D01*
X52323Y42269D01*
X51823D01*
X51573Y42519D01*
X50727Y78769D02*
Y80268D01*
X51477D01*
X51727Y80018D01*
Y79519D01*
X51477Y79269D01*
X50727D01*
X51227D02*
X51727Y78769D01*
X53227D02*
X52227D01*
X53227Y79769D01*
Y80018D01*
X52977Y80268D01*
X52477D01*
X52227Y80018D01*
X32228Y127769D02*
Y129268D01*
X32977D01*
X33227Y129018D01*
Y128519D01*
X32977Y128269D01*
X32228D01*
X32727D02*
X33227Y127769D01*
X33727Y129018D02*
X33977Y129268D01*
X34477D01*
X34727Y129018D01*
Y128769D01*
X34477Y128519D01*
X34227D01*
X34477D01*
X34727Y128269D01*
Y128019D01*
X34477Y127769D01*
X33977D01*
X33727Y128019D01*
M02*
