G04*
G04 #@! TF.GenerationSoftware,Altium Limited,Altium Designer,19.1.5 (86)*
G04*
G04 Layer_Color=65535*
%FSLAX25Y25*%
%MOIN*%
G70*
G01*
G75*
%ADD10C,0.00787*%
%ADD11C,0.00984*%
%ADD12C,0.01575*%
%ADD13C,0.01000*%
%ADD14C,0.00500*%
D10*
X130614Y66402D02*
G03*
X130614Y66402I-394J0D01*
G01*
X82252Y73000D02*
G03*
X82252Y73000I-394J0D01*
G01*
X25201Y15425D02*
Y18575D01*
X74441Y140587D02*
X79559D01*
X116126Y35445D02*
X117996D01*
X116126Y53555D02*
X117996D01*
X130004Y35445D02*
X131874D01*
X130004Y53555D02*
X131874D01*
X116126Y35445D02*
Y53555D01*
X131874Y35445D02*
Y53555D01*
X12213Y104925D02*
X13787D01*
X12213Y108075D02*
X13787D01*
X30425Y101276D02*
X33575D01*
X70713Y77925D02*
X72287D01*
X70713Y81075D02*
X72287D01*
X51366Y77925D02*
X52941D01*
X51366Y81075D02*
X52941D01*
X50713Y41425D02*
X52287D01*
X50713Y44575D02*
X52287D01*
X54713Y15925D02*
X56287D01*
X54713Y19075D02*
X56287D01*
X94425Y139799D02*
X97575D01*
X144075Y39213D02*
Y40787D01*
X140925Y39213D02*
Y40787D01*
X71925Y50224D02*
X75075D01*
X122150Y130925D02*
Y134075D01*
Y118425D02*
Y121575D01*
X122299Y105925D02*
Y109075D01*
X32866Y126925D02*
X34441D01*
X32866Y130075D02*
X34441D01*
D11*
X131087Y56114D02*
G03*
X131087Y56114I-492J0D01*
G01*
D12*
X41748Y75839D02*
G03*
X41748Y75839I-315J0D01*
G01*
D13*
X77000Y110800D02*
G03*
X77000Y110800I-100J0D01*
G01*
X71900Y102000D02*
X74500D01*
X71000Y17500D02*
Y20166D01*
X72333Y21499D01*
X73666Y20166D01*
Y17500D01*
Y19499D01*
X71000D01*
X74999Y21499D02*
Y18167D01*
X75665Y17500D01*
X76998D01*
X77665Y18167D01*
Y21499D01*
X78997D02*
Y18833D01*
X80330Y17500D01*
X81663Y18833D01*
Y21499D01*
X82996D02*
X84329D01*
X83663D01*
Y17500D01*
X82996D01*
X84329D01*
X88994Y20832D02*
X88328Y21499D01*
X86995D01*
X86328Y20832D01*
Y18167D01*
X86995Y17500D01*
X88328D01*
X88994Y18167D01*
X96992Y20832D02*
X96325Y21499D01*
X94992D01*
X94326Y20832D01*
Y20166D01*
X94992Y19499D01*
X96325D01*
X96992Y18833D01*
Y18167D01*
X96325Y17500D01*
X94992D01*
X94326Y18167D01*
X98325Y20166D02*
Y18167D01*
X98991Y17500D01*
X100990D01*
Y20166D01*
X102323Y17500D02*
Y20166D01*
X102990D01*
X103656Y19499D01*
Y17500D01*
Y19499D01*
X104323Y20166D01*
X104989Y19499D01*
Y17500D01*
X106322D02*
Y20166D01*
X106988D01*
X107655Y19499D01*
Y17500D01*
Y19499D01*
X108321Y20166D01*
X108988Y19499D01*
Y17500D01*
X112320D02*
X110987D01*
X110321Y18167D01*
Y19499D01*
X110987Y20166D01*
X112320D01*
X112986Y19499D01*
Y18833D01*
X110321D01*
X114319Y20166D02*
Y17500D01*
Y18833D01*
X114986Y19499D01*
X115652Y20166D01*
X116319D01*
X124983Y17500D02*
X122317D01*
X124983Y20166D01*
Y20832D01*
X124316Y21499D01*
X122983D01*
X122317Y20832D01*
X126315D02*
X126982Y21499D01*
X128315D01*
X128981Y20832D01*
Y18167D01*
X128315Y17500D01*
X126982D01*
X126315Y18167D01*
Y20832D01*
X130314Y17500D02*
X131647D01*
X130981D01*
Y21499D01*
X130314Y20832D01*
X133647Y18167D02*
X134313Y17500D01*
X135646D01*
X136312Y18167D01*
Y20832D01*
X135646Y21499D01*
X134313D01*
X133647Y20832D01*
Y20166D01*
X134313Y19499D01*
X136312D01*
X71500Y10500D02*
Y14499D01*
X72833Y13166D01*
X74166Y14499D01*
Y10500D01*
X75499D02*
X76832D01*
X76165D01*
Y13166D01*
X75499D01*
X80164Y9167D02*
X80830D01*
X81497Y9833D01*
Y13166D01*
X79497D01*
X78831Y12499D01*
Y11167D01*
X79497Y10500D01*
X81497D01*
X82830Y13166D02*
Y11167D01*
X83496Y10500D01*
X85496D01*
Y13166D01*
X88828Y10500D02*
X87495D01*
X86828Y11167D01*
Y12499D01*
X87495Y13166D01*
X88828D01*
X89494Y12499D01*
Y11833D01*
X86828D01*
X90827Y10500D02*
X92160D01*
X91494D01*
Y14499D01*
X90827D01*
X98158Y10500D02*
Y14499D01*
X99491Y13166D01*
X100824Y14499D01*
Y10500D01*
X102823Y13166D02*
X104156D01*
X104823Y12499D01*
Y10500D01*
X102823D01*
X102157Y11167D01*
X102823Y11833D01*
X104823D01*
X106156Y10500D02*
Y13166D01*
X108155D01*
X108821Y12499D01*
Y10500D01*
X111487Y9167D02*
X112153D01*
X112820Y9833D01*
Y13166D01*
X110821D01*
X110154Y12499D01*
Y11167D01*
X110821Y10500D01*
X112820D01*
X114153Y13166D02*
Y11167D01*
X114819Y10500D01*
X116819D01*
Y13166D01*
X120151Y10500D02*
X118818D01*
X118152Y11167D01*
Y12499D01*
X118818Y13166D01*
X120151D01*
X120817Y12499D01*
Y11833D01*
X118152D01*
X122150Y13166D02*
Y10500D01*
Y11833D01*
X122817Y12499D01*
X123483Y13166D01*
X124150D01*
X126149D02*
Y10500D01*
Y11833D01*
X126815Y12499D01*
X127482Y13166D01*
X128148D01*
X130814D02*
X132147D01*
X132814Y12499D01*
Y10500D01*
X130814D01*
X130148Y11167D01*
X130814Y11833D01*
X132814D01*
X71000Y3000D02*
Y5666D01*
X72333Y6999D01*
X73666Y5666D01*
Y3000D01*
Y4999D01*
X71000D01*
X74999Y3000D02*
Y5666D01*
X75665D01*
X76332Y4999D01*
Y3000D01*
Y4999D01*
X76998Y5666D01*
X77665Y4999D01*
Y3000D01*
X79664Y5666D02*
X80997D01*
X81663Y4999D01*
Y3000D01*
X79664D01*
X78997Y3666D01*
X79664Y4333D01*
X81663D01*
X82996Y3000D02*
Y5666D01*
X84996D01*
X85662Y4999D01*
Y3000D01*
X90994D02*
Y6999D01*
X93659Y3000D01*
Y6999D01*
X94992Y3000D02*
X96325D01*
X95659D01*
Y5666D01*
X94992D01*
X98325Y1667D02*
X98991D01*
X99657Y2334D01*
Y5666D01*
X102323Y1667D02*
X102990D01*
X103656Y2334D01*
Y5666D01*
X106988D02*
X108321D01*
X108988Y4999D01*
Y3000D01*
X106988D01*
X106322Y3666D01*
X106988Y4333D01*
X108988D01*
X110321Y5666D02*
Y3000D01*
Y4333D01*
X110987Y4999D01*
X111653Y5666D01*
X112320D01*
X20499Y26498D02*
X19499Y27498D01*
X17500D01*
X16500Y26498D01*
Y22500D01*
X17500Y21500D01*
X19499D01*
X20499Y22500D01*
X25497Y21500D02*
Y27498D01*
X22498Y24499D01*
X26497D01*
X75499Y146998D02*
X74499Y147998D01*
X72500D01*
X71500Y146998D01*
Y143000D01*
X72500Y142000D01*
X74499D01*
X75499Y143000D01*
X81497Y142000D02*
X77498D01*
X81497Y145999D01*
Y146998D01*
X80497Y147998D01*
X78498D01*
X77498Y146998D01*
X80000Y112998D02*
Y108999D01*
X81999Y107000D01*
X83999Y108999D01*
Y112998D01*
X85998Y107000D02*
Y112998D01*
X88997D01*
X89997Y111998D01*
Y109999D01*
X88997Y108999D01*
X85998D01*
X87997D02*
X89997Y107000D01*
X94995D02*
X92996D01*
X91996Y108000D01*
Y109999D01*
X92996Y110999D01*
X94995D01*
X95995Y109999D01*
Y108999D01*
X91996D01*
X99993Y105001D02*
X100993D01*
X101993Y106000D01*
Y110999D01*
X98994D01*
X97994Y109999D01*
Y108000D01*
X98994Y107000D01*
X101993D01*
X46498Y73500D02*
X41500D01*
X40500Y72500D01*
Y70501D01*
X41500Y69501D01*
X46498D01*
X45498Y63503D02*
X46498Y64503D01*
Y66502D01*
X45498Y67502D01*
X44499D01*
X43499Y66502D01*
Y64503D01*
X42499Y63503D01*
X41500D01*
X40500Y64503D01*
Y66502D01*
X41500Y67502D01*
X46498Y61504D02*
X40500D01*
Y58505D01*
X41500Y57505D01*
X42499D01*
X43499Y58505D01*
Y61504D01*
Y58505D01*
X44499Y57505D01*
X45498D01*
X46498Y58505D01*
Y61504D01*
X69000Y36000D02*
X63002D01*
Y38999D01*
X64002Y39999D01*
X66001D01*
X67001Y38999D01*
Y36000D01*
Y37999D02*
X69000Y39999D01*
X63002Y41998D02*
X69000D01*
Y45997D01*
X63002Y51995D02*
Y47996D01*
X69000D01*
Y51995D01*
X66001Y47996D02*
Y49995D01*
X63002Y53994D02*
X69000D01*
Y56993D01*
X68000Y57993D01*
X64002D01*
X63002Y56993D01*
Y53994D01*
X50500Y22000D02*
Y27998D01*
X53499D01*
X54499Y26998D01*
Y24999D01*
X53499Y23999D01*
X50500D01*
X52499D02*
X54499Y22000D01*
X56498Y27998D02*
X60497D01*
Y26998D01*
X56498Y23000D01*
Y22000D01*
X137000Y23500D02*
Y29498D01*
X139999D01*
X140999Y28498D01*
Y26499D01*
X139999Y25499D01*
X137000D01*
X138999D02*
X140999Y23500D01*
X146997Y29498D02*
X144997Y28498D01*
X142998Y26499D01*
Y24500D01*
X143998Y23500D01*
X145997D01*
X146997Y24500D01*
Y25499D01*
X145997Y26499D01*
X142998D01*
X40000Y47500D02*
Y53498D01*
X42999D01*
X43999Y52498D01*
Y50499D01*
X42999Y49499D01*
X40000D01*
X41999D02*
X43999Y47500D01*
X49997Y53498D02*
X45998D01*
Y50499D01*
X47997Y51499D01*
X48997D01*
X49997Y50499D01*
Y48500D01*
X48997Y47500D01*
X46998D01*
X45998Y48500D01*
X63000Y83500D02*
Y89498D01*
X65999D01*
X66999Y88498D01*
Y86499D01*
X65999Y85499D01*
X63000D01*
X64999D02*
X66999Y83500D01*
X71997D02*
Y89498D01*
X68998Y86499D01*
X72997D01*
X28403Y134650D02*
Y140648D01*
X31403D01*
X32402Y139648D01*
Y137649D01*
X31403Y136649D01*
X28403D01*
X30403D02*
X32402Y134650D01*
X34402Y139648D02*
X35401Y140648D01*
X37401D01*
X38400Y139648D01*
Y138649D01*
X37401Y137649D01*
X36401D01*
X37401D01*
X38400Y136649D01*
Y135650D01*
X37401Y134650D01*
X35401D01*
X34402Y135650D01*
X53500Y69500D02*
Y75498D01*
X56499D01*
X57499Y74498D01*
Y72499D01*
X56499Y71499D01*
X53500D01*
X55499D02*
X57499Y69500D01*
X63497D02*
X59498D01*
X63497Y73499D01*
Y74498D01*
X62497Y75498D01*
X60498D01*
X59498Y74498D01*
X9500Y111000D02*
Y116998D01*
X12499D01*
X13499Y115998D01*
Y113999D01*
X12499Y112999D01*
X9500D01*
X11499D02*
X13499Y111000D01*
X15498D02*
X17497D01*
X16498D01*
Y116998D01*
X15498Y115998D01*
X88999Y88498D02*
X87000D01*
X86000Y87498D01*
Y83500D01*
X87000Y82500D01*
X88999D01*
X89999Y83500D01*
Y87498D01*
X88999Y88498D01*
X91998Y80501D02*
Y86499D01*
X94997D01*
X95997Y85499D01*
Y83500D01*
X94997Y82500D01*
X91998D01*
X97996D02*
Y86499D01*
X99995Y88498D01*
X101995Y86499D01*
Y82500D01*
Y85499D01*
X97996D01*
X103994Y82500D02*
Y86499D01*
X104994D01*
X105993Y85499D01*
Y82500D01*
Y85499D01*
X106993Y86499D01*
X107993Y85499D01*
Y82500D01*
X109992Y80501D02*
Y86499D01*
X112991D01*
X113991Y85499D01*
Y83500D01*
X112991Y82500D01*
X109992D01*
X26999Y117498D02*
X25999Y118498D01*
X24000D01*
X23000Y117498D01*
Y113500D01*
X24000Y112500D01*
X25999D01*
X26999Y113500D01*
Y115499D01*
X24999D01*
X28998Y118498D02*
Y112500D01*
X32997D01*
X38995Y118498D02*
X34996D01*
Y112500D01*
X38995D01*
X34996Y115499D02*
X36996D01*
X40994Y118498D02*
Y112500D01*
X43993D01*
X44993Y113500D01*
Y117498D01*
X43993Y118498D01*
X40994D01*
X114500Y63998D02*
Y58000D01*
X117499D01*
X118499Y59000D01*
Y62998D01*
X117499Y63998D01*
X114500D01*
X120498Y58000D02*
X122497D01*
X121498D01*
Y63998D01*
X120498Y62998D01*
X128648Y109998D02*
X127649Y110998D01*
X125649D01*
X124650Y109998D01*
Y106000D01*
X125649Y105000D01*
X127649D01*
X128648Y106000D01*
X134646Y110998D02*
X132647Y109998D01*
X130648Y107999D01*
Y106000D01*
X131647Y105000D01*
X133647D01*
X134646Y106000D01*
Y106999D01*
X133647Y107999D01*
X130648D01*
X128999Y122498D02*
X127999Y123498D01*
X126000D01*
X125000Y122498D01*
Y118500D01*
X126000Y117500D01*
X127999D01*
X128999Y118500D01*
X134997Y123498D02*
X130998D01*
Y120499D01*
X132997Y121499D01*
X133997D01*
X134997Y120499D01*
Y118500D01*
X133997Y117500D01*
X131998D01*
X130998Y118500D01*
X129349Y135498D02*
X128349Y136498D01*
X126350D01*
X125350Y135498D01*
Y131500D01*
X126350Y130500D01*
X128349D01*
X129349Y131500D01*
X131349Y135498D02*
X132348Y136498D01*
X134347D01*
X135347Y135498D01*
Y134499D01*
X134347Y133499D01*
X133348D01*
X134347D01*
X135347Y132499D01*
Y131500D01*
X134347Y130500D01*
X132348D01*
X131349Y131500D01*
X95999Y146998D02*
X94999Y147998D01*
X93000D01*
X92000Y146998D01*
Y143000D01*
X93000Y142000D01*
X94999D01*
X95999Y143000D01*
X97998Y142000D02*
X99997D01*
X98998D01*
Y147998D01*
X97998Y146998D01*
X121502Y76500D02*
X127500D01*
Y79499D01*
X126500Y80499D01*
X125501D01*
X124501Y79499D01*
Y76500D01*
Y79499D01*
X123501Y80499D01*
X122502D01*
X121502Y79499D01*
Y76500D01*
X123501Y83498D02*
Y85497D01*
X124501Y86497D01*
X127500D01*
Y83498D01*
X126500Y82498D01*
X125501Y83498D01*
Y86497D01*
X122502Y89496D02*
X123501D01*
Y88496D01*
Y90496D01*
Y89496D01*
X126500D01*
X127500Y90496D01*
D14*
X148331Y89236D02*
X149512D01*
X148331Y59315D02*
X149512D01*
X138094Y89236D02*
X139669D01*
X138094Y59315D02*
X139669D01*
X149709D02*
Y89236D01*
X90323Y75146D02*
X105677D01*
X90323Y55854D02*
X105677D01*
X17791Y53181D02*
X27240D01*
X2831D02*
X5980D01*
X2831Y83496D02*
X5980D01*
X17791D02*
X27240D01*
X2831Y53181D02*
Y83496D01*
X67400Y101800D02*
Y115900D01*
X79000Y101800D02*
Y115600D01*
M02*
