G04*
G04 #@! TF.GenerationSoftware,Altium Limited,Altium Designer,19.1.5 (86)*
G04*
G04 Layer_Color=32896*
%FSLAX25Y25*%
%MOIN*%
G70*
G01*
G75*
%ADD10C,0.00787*%
%ADD13C,0.00500*%
%ADD14C,0.01000*%
%ADD65C,0.00781*%
D10*
X171894Y128979D02*
G03*
X171894Y128979I-394J0D01*
G01*
D02*
G03*
X171894Y128979I-394J0D01*
G01*
D13*
X-2385Y69312D02*
G03*
X-4753Y67945I-501J-1868D01*
G01*
X-1999Y67739D02*
G03*
X-3574Y67228I-532J-1043D01*
G01*
X-4555Y97449D02*
G03*
X-2378Y96089I1768J408D01*
G01*
X-3574Y98172D02*
G03*
X-1999Y97661I1043J532D01*
G01*
X-2385Y69312D02*
G03*
X-4753Y67945I-501J-1868D01*
G01*
X-1999Y67739D02*
G03*
X-3574Y67228I-532J-1043D01*
G01*
X-4555Y97449D02*
G03*
X-2378Y96089I1768J408D01*
G01*
X-3574Y98172D02*
G03*
X-1999Y97661I1043J532D01*
G01*
X186894Y132916D02*
Y175435D01*
X78154Y132916D02*
X186894D01*
X78154D02*
Y175435D01*
X186894D01*
Y132916D02*
Y175435D01*
X78154Y132916D02*
X186894D01*
X78154D02*
Y175435D01*
X186894D01*
X560Y58487D02*
Y67739D01*
X-4755Y67936D02*
X-3574Y67228D01*
X-4558Y70102D02*
X-2393D01*
X-4558D02*
Y95298D01*
X-2393D01*
X-4558Y97464D02*
X-3574Y98172D01*
X-1999Y97661D02*
X17686D01*
X-2196D02*
X-1999D01*
X-2196Y67739D02*
Y97661D01*
Y67739D02*
X560D01*
X17686D01*
Y97661D01*
X560Y58487D02*
Y67739D01*
X-4755Y67936D02*
X-3574Y67228D01*
X-4558Y70102D02*
X-2393D01*
X-4558D02*
Y95298D01*
X-2393D01*
X-4558Y97464D02*
X-3574Y98172D01*
X-1999Y97661D02*
X17686D01*
X-2196D02*
X-1999D01*
X-2196Y67739D02*
Y97661D01*
Y67739D02*
X560D01*
X17686D01*
Y97661D01*
D14*
X61967Y76481D02*
Y99119D01*
X32833Y76481D02*
X61967D01*
X32833D02*
Y99119D01*
X61967D01*
Y76481D02*
Y99119D01*
X32833Y76481D02*
X61967D01*
X32833D02*
Y99119D01*
X61967D01*
D65*
X3681Y63999D02*
Y60836D01*
X4032Y59782D01*
X4383Y59430D01*
X5086Y59079D01*
X6141D01*
X6844Y59430D01*
X7195Y59782D01*
X7547Y60836D01*
Y63999D01*
X166D01*
X5789Y52156D02*
X6492Y52507D01*
X7195Y53210D01*
X7547Y53913D01*
Y55319D01*
X7195Y56021D01*
X6492Y56724D01*
X5789Y57076D01*
X4735Y57427D01*
X2978D01*
X1923Y57076D01*
X1221Y56724D01*
X518Y56021D01*
X166Y55319D01*
Y53913D01*
X518Y53210D01*
X1221Y52507D01*
X1923Y52156D01*
X7547Y50082D02*
X166D01*
X7547D02*
Y46919D01*
X7195Y45865D01*
X6844Y45513D01*
X6141Y45162D01*
X5438D01*
X4735Y45513D01*
X4383Y45865D01*
X4032Y46919D01*
Y50082D02*
Y46919D01*
X3681Y45865D01*
X3329Y45513D01*
X2626Y45162D01*
X1572D01*
X869Y45513D01*
X518Y45865D01*
X166Y46919D01*
Y50082D01*
X7547Y33143D02*
Y37711D01*
X166D01*
Y33143D01*
X4032Y37711D02*
Y34900D01*
X7547Y31912D02*
X166D01*
X7547D02*
X166Y26992D01*
X7547D02*
X166D01*
X7547Y24954D02*
X166D01*
X7547D02*
Y22494D01*
X7195Y21439D01*
X6492Y20737D01*
X5789Y20385D01*
X4735Y20034D01*
X2978D01*
X1923Y20385D01*
X1221Y20737D01*
X518Y21439D01*
X166Y22494D01*
Y24954D01*
X3681Y63999D02*
Y60836D01*
X4032Y59782D01*
X4383Y59430D01*
X5086Y59079D01*
X6141D01*
X6844Y59430D01*
X7195Y59782D01*
X7547Y60836D01*
Y63999D01*
X166D01*
X5789Y52156D02*
X6492Y52507D01*
X7195Y53210D01*
X7547Y53913D01*
Y55319D01*
X7195Y56021D01*
X6492Y56724D01*
X5789Y57076D01*
X4735Y57427D01*
X2978D01*
X1923Y57076D01*
X1221Y56724D01*
X518Y56021D01*
X166Y55319D01*
Y53913D01*
X518Y53210D01*
X1221Y52507D01*
X1923Y52156D01*
X7547Y50082D02*
X166D01*
X7547D02*
Y46919D01*
X7195Y45865D01*
X6844Y45513D01*
X6141Y45162D01*
X5438D01*
X4735Y45513D01*
X4383Y45865D01*
X4032Y46919D01*
Y50082D02*
Y46919D01*
X3681Y45865D01*
X3329Y45513D01*
X2626Y45162D01*
X1572D01*
X869Y45513D01*
X518Y45865D01*
X166Y46919D01*
Y50082D01*
X7547Y33143D02*
Y37711D01*
X166D01*
Y33143D01*
X4032Y37711D02*
Y34900D01*
X7547Y31912D02*
X166D01*
X7547D02*
X166Y26992D01*
X7547D02*
X166D01*
X7547Y24954D02*
X166D01*
X7547D02*
Y22494D01*
X7195Y21439D01*
X6492Y20737D01*
X5789Y20385D01*
X4735Y20034D01*
X2978D01*
X1923Y20385D01*
X1221Y20737D01*
X518Y21439D01*
X166Y22494D01*
Y24954D01*
M02*
