G04*
G04 #@! TF.GenerationSoftware,Altium Limited,Altium Designer,19.1.5 (86)*
G04*
G04 Layer_Color=65535*
%FSLAX25Y25*%
%MOIN*%
G70*
G01*
G75*
%ADD10C,0.00787*%
%ADD11C,0.00984*%
%ADD12C,0.02362*%
%ADD13C,0.00500*%
%ADD14C,0.01000*%
D10*
X171894Y128979D02*
G03*
X171894Y128979I-394J0D01*
G01*
X20442Y90574D02*
G03*
X20442Y90574I-394J0D01*
G01*
X143925Y107201D02*
X147075D01*
X158525Y107001D02*
X161675D01*
X116325Y83801D02*
X119475D01*
X105425Y103399D02*
X108575D01*
X83425Y115599D02*
X86575D01*
X70825Y115299D02*
X73975D01*
X21950Y176500D02*
X55650D01*
Y166500D02*
Y176500D01*
X21950Y166500D02*
X55650D01*
X21950D02*
Y176500D01*
X213501Y158725D02*
Y161875D01*
X225725Y128313D02*
Y129887D01*
X228875Y128313D02*
Y129887D01*
X205725Y135099D02*
X208875D01*
X235925Y110599D02*
X239075D01*
X205425Y97950D02*
X208575D01*
X220625Y98001D02*
X223775D01*
X217813Y37775D02*
X219387D01*
X217813Y34625D02*
X219387D01*
X195325Y4101D02*
X198475D01*
X165925Y16449D02*
X169075D01*
X140025Y4301D02*
X143175D01*
X95001Y114325D02*
Y117475D01*
X32113Y50075D02*
X33687D01*
X32113Y46925D02*
X33687D01*
X124713Y27675D02*
X126287D01*
X124713Y24525D02*
X126287D01*
X101740Y64604D02*
Y67360D01*
X104496D01*
X101740Y49840D02*
Y52596D01*
Y49840D02*
X104496D01*
X116504D02*
X119260D01*
Y52596D01*
Y64604D02*
Y67360D01*
X116504D02*
X119260D01*
X206075Y38459D02*
Y40034D01*
X202925Y38459D02*
Y40034D01*
X206575Y72659D02*
Y74234D01*
X203425Y72659D02*
Y74234D01*
X239725Y80913D02*
Y82487D01*
X242875Y80913D02*
Y82487D01*
X176925Y59202D02*
X180075D01*
X95575Y37313D02*
Y38887D01*
X92425Y37313D02*
Y38887D01*
X137795Y46895D02*
Y71305D01*
X162205Y46895D02*
Y71305D01*
X137795Y46895D02*
X162205D01*
X137795Y71305D02*
X162205D01*
X180075Y77813D02*
Y79387D01*
X176925Y77813D02*
Y79387D01*
D11*
X20548Y171496D02*
G03*
X20548Y171496I-492J0D01*
G01*
X119161Y69919D02*
G03*
X119161Y69919I-492J0D01*
G01*
X163012Y75832D02*
G03*
X163012Y75832I-492J0D01*
G01*
D12*
X159449Y67368D02*
G03*
X159449Y67368I-1181J0D01*
G01*
D13*
X143917Y83210D02*
G03*
X143917Y83210I-339J0D01*
G01*
X186894Y132916D02*
Y175435D01*
X78154Y132916D02*
X186894D01*
X78154D02*
Y175435D01*
X186894D01*
X757Y67739D02*
X1938D01*
X757Y97661D02*
X1938D01*
X10599Y67739D02*
X12174D01*
X10599Y97661D02*
X12174D01*
X560Y67739D02*
Y97661D01*
D14*
X6700Y154198D02*
Y158196D01*
X8699Y160196D01*
X10699Y158196D01*
Y154198D01*
Y157197D01*
X6700D01*
X12698Y160196D02*
Y155197D01*
X13698Y154198D01*
X15697D01*
X16697Y155197D01*
Y160196D01*
X18696D02*
Y156197D01*
X20696Y154198D01*
X22695Y156197D01*
Y160196D01*
X24694D02*
X26693D01*
X25694D01*
Y154198D01*
X24694D01*
X26693D01*
X33691Y159196D02*
X32692Y160196D01*
X30692D01*
X29693Y159196D01*
Y155197D01*
X30692Y154198D01*
X32692D01*
X33691Y155197D01*
X10699Y149598D02*
X9699Y150598D01*
X7700D01*
X6700Y149598D01*
Y148599D01*
X7700Y147599D01*
X9699D01*
X10699Y146599D01*
Y145600D01*
X9699Y144600D01*
X7700D01*
X6700Y145600D01*
X12698Y148599D02*
Y145600D01*
X13698Y144600D01*
X16697D01*
Y148599D01*
X18696Y144600D02*
Y148599D01*
X19696D01*
X20696Y147599D01*
Y144600D01*
Y147599D01*
X21695Y148599D01*
X22695Y147599D01*
Y144600D01*
X24694D02*
Y148599D01*
X25694D01*
X26693Y147599D01*
Y144600D01*
Y147599D01*
X27693Y148599D01*
X28693Y147599D01*
Y144600D01*
X33691D02*
X31692D01*
X30692Y145600D01*
Y147599D01*
X31692Y148599D01*
X33691D01*
X34691Y147599D01*
Y146599D01*
X30692D01*
X36690Y148599D02*
Y144600D01*
Y146599D01*
X37690Y147599D01*
X38690Y148599D01*
X39689D01*
X52685Y144600D02*
X48686D01*
X52685Y148599D01*
Y149598D01*
X51686Y150598D01*
X49686D01*
X48686Y149598D01*
X54685D02*
X55684Y150598D01*
X57683D01*
X58683Y149598D01*
Y145600D01*
X57683Y144600D01*
X55684D01*
X54685Y145600D01*
Y149598D01*
X60682Y144600D02*
X62682D01*
X61682D01*
Y150598D01*
X60682Y149598D01*
X65681Y145600D02*
X66681Y144600D01*
X68680D01*
X69680Y145600D01*
Y149598D01*
X68680Y150598D01*
X66681D01*
X65681Y149598D01*
Y148599D01*
X66681Y147599D01*
X69680D01*
X14300Y3200D02*
Y9198D01*
X16299Y7199D01*
X18299Y9198D01*
Y3200D01*
X20298D02*
X22297D01*
X21298D01*
Y7199D01*
X20298D01*
X27296Y1201D02*
X28295D01*
X29295Y2200D01*
Y7199D01*
X26296D01*
X25296Y6199D01*
Y4200D01*
X26296Y3200D01*
X29295D01*
X31295Y7199D02*
Y4200D01*
X32294Y3200D01*
X35293D01*
Y7199D01*
X40292Y3200D02*
X38292D01*
X37293Y4200D01*
Y6199D01*
X38292Y7199D01*
X40292D01*
X41291Y6199D01*
Y5199D01*
X37293D01*
X43291Y3200D02*
X45290D01*
X44290D01*
Y9198D01*
X43291D01*
X54287Y3200D02*
Y9198D01*
X56286Y7199D01*
X58286Y9198D01*
Y3200D01*
X61285Y7199D02*
X63284D01*
X64284Y6199D01*
Y3200D01*
X61285D01*
X60285Y4200D01*
X61285Y5199D01*
X64284D01*
X66283Y3200D02*
Y7199D01*
X69282D01*
X70282Y6199D01*
Y3200D01*
X74281Y1201D02*
X75280D01*
X76280Y2200D01*
Y7199D01*
X73281D01*
X72281Y6199D01*
Y4200D01*
X73281Y3200D01*
X76280D01*
X78279Y7199D02*
Y4200D01*
X79279Y3200D01*
X82278D01*
Y7199D01*
X87276Y3200D02*
X85277D01*
X84277Y4200D01*
Y6199D01*
X85277Y7199D01*
X87276D01*
X88276Y6199D01*
Y5199D01*
X84277D01*
X90275Y7199D02*
Y3200D01*
Y5199D01*
X91275Y6199D01*
X92275Y7199D01*
X93274D01*
X96273D02*
Y3200D01*
Y5199D01*
X97273Y6199D01*
X98273Y7199D01*
X99273D01*
X103271D02*
X105271D01*
X106270Y6199D01*
Y3200D01*
X103271D01*
X102271Y4200D01*
X103271Y5199D01*
X106270D01*
X14100Y11600D02*
Y15599D01*
X16099Y17598D01*
X18099Y15599D01*
Y11600D01*
Y14599D01*
X14100D01*
X20098Y11600D02*
Y15599D01*
X21098D01*
X22097Y14599D01*
Y11600D01*
Y14599D01*
X23097Y15599D01*
X24097Y14599D01*
Y11600D01*
X27096Y15599D02*
X29095D01*
X30095Y14599D01*
Y11600D01*
X27096D01*
X26096Y12600D01*
X27096Y13599D01*
X30095D01*
X32094Y11600D02*
Y15599D01*
X35093D01*
X36093Y14599D01*
Y11600D01*
X44090D02*
Y17598D01*
X48089Y11600D01*
Y17598D01*
X50088Y11600D02*
X52088D01*
X51088D01*
Y15599D01*
X50088D01*
X55087Y9601D02*
X56086D01*
X57086Y10600D01*
Y15599D01*
X61085Y9601D02*
X62085D01*
X63084Y10600D01*
Y15599D01*
X68082D02*
X70082D01*
X71082Y14599D01*
Y11600D01*
X68082D01*
X67083Y12600D01*
X68082Y13599D01*
X71082D01*
X73081Y15599D02*
Y11600D01*
Y13599D01*
X74081Y14599D01*
X75080Y15599D01*
X76080D01*
X34800Y104000D02*
Y109998D01*
X37799D01*
X38799Y108998D01*
Y106999D01*
X37799Y105999D01*
X34800D01*
X40798Y104000D02*
X42797D01*
X41798D01*
Y107999D01*
X40798D01*
X45796Y104000D02*
Y107999D01*
X48796D01*
X49795Y106999D01*
Y104000D01*
X53794Y102001D02*
X54794D01*
X55793Y103000D01*
Y107999D01*
X52794D01*
X51794Y106999D01*
Y105000D01*
X52794Y104000D01*
X55793D01*
X60792D02*
X58792D01*
X57793Y105000D01*
Y106999D01*
X58792Y107999D01*
X60792D01*
X61791Y106999D01*
Y105999D01*
X57793D01*
X63791Y107999D02*
Y104000D01*
Y105999D01*
X64790Y106999D01*
X65790Y107999D01*
X66790D01*
X117819Y173398D02*
Y167400D01*
X120818D01*
X121818Y168400D01*
Y172398D01*
X120818Y173398D01*
X117819D01*
X127816D02*
X123817D01*
Y167400D01*
X127816D01*
X123817Y170399D02*
X125816D01*
X129815Y173398D02*
Y167400D01*
X132814D01*
X133814Y168400D01*
Y169399D01*
X132814Y170399D01*
X129815D01*
X132814D01*
X133814Y171399D01*
Y172398D01*
X132814Y173398D01*
X129815D01*
X135813D02*
Y168400D01*
X136813Y167400D01*
X138812D01*
X139812Y168400D01*
Y173398D01*
X145810Y172398D02*
X144810Y173398D01*
X142811D01*
X141811Y172398D01*
Y168400D01*
X142811Y167400D01*
X144810D01*
X145810Y168400D01*
Y170399D01*
X143810D01*
X127299Y84798D02*
X126299Y85798D01*
X124300D01*
X123300Y84798D01*
Y83799D01*
X124300Y82799D01*
X126299D01*
X127299Y81799D01*
Y80800D01*
X126299Y79800D01*
X124300D01*
X123300Y80800D01*
X129298Y85798D02*
X133297D01*
X131297D01*
Y79800D01*
X135296D02*
Y85798D01*
X137295Y83799D01*
X139295Y85798D01*
Y79800D01*
X62799Y172998D02*
X61799Y173998D01*
X59800D01*
X58800Y172998D01*
Y171999D01*
X59800Y170999D01*
X61799D01*
X62799Y169999D01*
Y169000D01*
X61799Y168000D01*
X59800D01*
X58800Y169000D01*
X64798Y168000D02*
X66797D01*
X65798D01*
Y173998D01*
X64798Y172998D01*
X89000Y17600D02*
X83002D01*
Y20599D01*
X84002Y21599D01*
X86001D01*
X87001Y20599D01*
Y17600D01*
Y19599D02*
X89000Y21599D01*
X83002Y33595D02*
Y29596D01*
X86001D01*
Y31596D01*
Y29596D01*
X89000D01*
X83002Y35594D02*
X89000D01*
Y38593D01*
X88000Y39593D01*
X87001D01*
X86001Y38593D01*
Y35594D01*
Y38593D01*
X85001Y39593D01*
X84002D01*
X83002Y38593D01*
Y35594D01*
X89000Y45591D02*
Y41592D01*
X85001Y45591D01*
X84002D01*
X83002Y44591D01*
Y42592D01*
X84002Y41592D01*
X89000Y47590D02*
X88000D01*
Y48590D01*
X89000D01*
Y47590D01*
X83002Y52589D02*
Y56587D01*
X84002D01*
X88000Y52589D01*
X89000D01*
X248000Y87200D02*
X253998D01*
Y84201D01*
X252998Y83201D01*
X250999D01*
X249999Y84201D01*
Y87200D01*
Y85201D02*
X248000Y83201D01*
X253998Y71205D02*
Y75204D01*
X250999D01*
Y73204D01*
Y75204D01*
X248000D01*
X253998Y69206D02*
X248000D01*
Y66207D01*
X249000Y65207D01*
X249999D01*
X250999Y66207D01*
Y69206D01*
Y66207D01*
X251999Y65207D01*
X252998D01*
X253998Y66207D01*
Y69206D01*
X248000Y59209D02*
Y63208D01*
X251999Y59209D01*
X252998D01*
X253998Y60209D01*
Y62208D01*
X252998Y63208D01*
X248000Y57210D02*
X249000D01*
Y56210D01*
X248000D01*
Y57210D01*
X253998Y48213D02*
X252998Y50212D01*
X250999Y52211D01*
X249000D01*
X248000Y51212D01*
Y49212D01*
X249000Y48213D01*
X249999D01*
X250999Y49212D01*
Y52211D01*
X197000Y80600D02*
Y86598D01*
X199999D01*
X200999Y85598D01*
Y83599D01*
X199999Y82599D01*
X197000D01*
X198999D02*
X200999Y80600D01*
X212995Y86598D02*
X208996D01*
Y83599D01*
X210996D01*
X208996D01*
Y80600D01*
X214994Y86598D02*
Y80600D01*
X217993D01*
X218993Y81600D01*
Y82599D01*
X217993Y83599D01*
X214994D01*
X217993D01*
X218993Y84599D01*
Y85598D01*
X217993Y86598D01*
X214994D01*
X224991Y80600D02*
X220992D01*
X224991Y84599D01*
Y85598D01*
X223991Y86598D01*
X221992D01*
X220992Y85598D01*
X226990Y80600D02*
Y81600D01*
X227990D01*
Y80600D01*
X226990D01*
X235987Y86598D02*
X231989D01*
Y83599D01*
X233988Y84599D01*
X234988D01*
X235987Y83599D01*
Y81600D01*
X234988Y80600D01*
X232988D01*
X231989Y81600D01*
X196700Y47400D02*
Y53398D01*
X199699D01*
X200699Y52398D01*
Y50399D01*
X199699Y49399D01*
X196700D01*
X198699D02*
X200699Y47400D01*
X212695Y53398D02*
X208696D01*
Y50399D01*
X210696D01*
X208696D01*
Y47400D01*
X214694Y53398D02*
Y47400D01*
X217693D01*
X218693Y48400D01*
Y49399D01*
X217693Y50399D01*
X214694D01*
X217693D01*
X218693Y51399D01*
Y52398D01*
X217693Y53398D01*
X214694D01*
X224691Y47400D02*
X220692D01*
X224691Y51399D01*
Y52398D01*
X223691Y53398D01*
X221692D01*
X220692Y52398D01*
X226690Y47400D02*
Y48400D01*
X227690D01*
Y47400D01*
X226690D01*
X234688D02*
Y53398D01*
X231689Y50399D01*
X235687D01*
X206900Y26200D02*
Y32198D01*
X209899D01*
X210899Y31198D01*
Y29199D01*
X209899Y28199D01*
X206900D01*
X208899D02*
X210899Y26200D01*
X222895Y32198D02*
X218896D01*
Y29199D01*
X220896D01*
X218896D01*
Y26200D01*
X224894Y32198D02*
Y26200D01*
X227893D01*
X228893Y27200D01*
Y28199D01*
X227893Y29199D01*
X224894D01*
X227893D01*
X228893Y30199D01*
Y31198D01*
X227893Y32198D01*
X224894D01*
X234891Y26200D02*
X230892D01*
X234891Y30199D01*
Y31198D01*
X233891Y32198D01*
X231892D01*
X230892Y31198D01*
X236890Y26200D02*
Y27200D01*
X237890D01*
Y26200D01*
X236890D01*
X241889Y31198D02*
X242888Y32198D01*
X244888D01*
X245887Y31198D01*
Y30199D01*
X244888Y29199D01*
X243888D01*
X244888D01*
X245887Y28199D01*
Y27200D01*
X244888Y26200D01*
X242888D01*
X241889Y27200D01*
X23900Y38500D02*
Y44498D01*
X26899D01*
X27899Y43498D01*
Y41499D01*
X26899Y40499D01*
X23900D01*
X25899D02*
X27899Y38500D01*
X39895Y44498D02*
X35896D01*
Y41499D01*
X37896D01*
X35896D01*
Y38500D01*
X41894Y44498D02*
Y38500D01*
X44893D01*
X45893Y39500D01*
Y40499D01*
X44893Y41499D01*
X41894D01*
X44893D01*
X45893Y42499D01*
Y43498D01*
X44893Y44498D01*
X41894D01*
X51891Y38500D02*
X47892D01*
X51891Y42499D01*
Y43498D01*
X50891Y44498D01*
X48892D01*
X47892Y43498D01*
X53890Y38500D02*
Y39500D01*
X54890D01*
Y38500D01*
X53890D01*
X58889D02*
X60888D01*
X59888D01*
Y44498D01*
X58889Y43498D01*
X96200Y15600D02*
Y21598D01*
X99199D01*
X100199Y20598D01*
Y18599D01*
X99199Y17599D01*
X96200D01*
X98199D02*
X100199Y15600D01*
X104197D02*
X102198Y17599D01*
Y19599D01*
X104197Y21598D01*
X107196Y15600D02*
Y19599D01*
X110196D01*
X111195Y18599D01*
Y15600D01*
X116193D02*
X114194D01*
X113195Y16600D01*
Y18599D01*
X114194Y19599D01*
X116193D01*
X117193Y18599D01*
Y17599D01*
X113195D01*
X119193Y19599D02*
X123191Y15600D01*
X121192Y17599D01*
X123191Y19599D01*
X119193Y15600D01*
X126190Y20598D02*
Y19599D01*
X125191D01*
X127190D01*
X126190D01*
Y16600D01*
X127190Y15600D01*
X130189D02*
X132188Y17599D01*
Y19599D01*
X130189Y21598D01*
X231400Y125600D02*
Y131598D01*
X234399D01*
X235399Y130598D01*
Y128599D01*
X234399Y127599D01*
X231400D01*
X233399D02*
X235399Y125600D01*
X241397D02*
X237398D01*
X241397Y129599D01*
Y130598D01*
X240397Y131598D01*
X238398D01*
X237398Y130598D01*
X176400Y87900D02*
Y93898D01*
X179399D01*
X180399Y92898D01*
Y90899D01*
X179399Y89899D01*
X176400D01*
X178399D02*
X180399Y87900D01*
X182398D02*
X184397D01*
X183398D01*
Y93898D01*
X182398Y92898D01*
X143499Y104098D02*
X141500D01*
X140500Y103098D01*
Y99100D01*
X141500Y98100D01*
X143499D01*
X144499Y99100D01*
Y103098D01*
X143499Y104098D01*
X150497Y103098D02*
X149497Y104098D01*
X147498D01*
X146498Y103098D01*
Y102099D01*
X147498Y101099D01*
X149497D01*
X150497Y100099D01*
Y99100D01*
X149497Y98100D01*
X147498D01*
X146498Y99100D01*
X156495Y103098D02*
X155495Y104098D01*
X153496D01*
X152496Y103098D01*
Y99100D01*
X153496Y98100D01*
X155495D01*
X156495Y99100D01*
X42000Y72898D02*
X43999D01*
X43000D01*
Y66900D01*
X42000D01*
X43999D01*
X46998D02*
Y70899D01*
X49997D01*
X50997Y69899D01*
Y66900D01*
X56995Y72898D02*
Y66900D01*
X53996D01*
X52996Y67900D01*
Y69899D01*
X53996Y70899D01*
X56995D01*
X58995D02*
Y67900D01*
X59994Y66900D01*
X62993D01*
Y70899D01*
X68991D02*
X65992D01*
X64993Y69899D01*
Y67900D01*
X65992Y66900D01*
X68991D01*
X71990Y71898D02*
Y70899D01*
X70991D01*
X72990D01*
X71990D01*
Y67900D01*
X72990Y66900D01*
X76989D02*
X78988D01*
X79988Y67900D01*
Y69899D01*
X78988Y70899D01*
X76989D01*
X75989Y69899D01*
Y67900D01*
X76989Y66900D01*
X81987Y70899D02*
Y66900D01*
Y68899D01*
X82987Y69899D01*
X83986Y70899D01*
X84986D01*
X89000Y75598D02*
Y69600D01*
X91999D01*
X92999Y70600D01*
Y74598D01*
X91999Y75598D01*
X89000D01*
X94998Y69600D02*
Y75598D01*
X97997D01*
X98997Y74598D01*
Y72599D01*
X97997Y71599D01*
X94998D01*
X96997D02*
X98997Y69600D01*
X100996Y75598D02*
Y71599D01*
X102996Y69600D01*
X104995Y71599D01*
Y75598D01*
X221699Y95498D02*
X220699Y96498D01*
X218700D01*
X217700Y95498D01*
Y91500D01*
X218700Y90500D01*
X220699D01*
X221699Y91500D01*
X223698D02*
X224698Y90500D01*
X226697D01*
X227697Y91500D01*
Y95498D01*
X226697Y96498D01*
X224698D01*
X223698Y95498D01*
Y94499D01*
X224698Y93499D01*
X227697D01*
X205799Y95698D02*
X204799Y96698D01*
X202800D01*
X201800Y95698D01*
Y91700D01*
X202800Y90700D01*
X204799D01*
X205799Y91700D01*
X207798Y95698D02*
X208798Y96698D01*
X210797D01*
X211797Y95698D01*
Y94699D01*
X210797Y93699D01*
X211797Y92699D01*
Y91700D01*
X210797Y90700D01*
X208798D01*
X207798Y91700D01*
Y92699D01*
X208798Y93699D01*
X207798Y94699D01*
Y95698D01*
X208798Y93699D02*
X210797D01*
X101699Y125198D02*
X100699Y126198D01*
X98700D01*
X97700Y125198D01*
Y121200D01*
X98700Y120200D01*
X100699D01*
X101699Y121200D01*
X103698Y126198D02*
X107697D01*
Y125198D01*
X103698Y121200D01*
Y120200D01*
X166499Y22798D02*
X165499Y23797D01*
X163500D01*
X162500Y22798D01*
Y18799D01*
X163500Y17799D01*
X165499D01*
X166499Y18799D01*
X172497Y23797D02*
X170497Y22798D01*
X168498Y20798D01*
Y18799D01*
X169498Y17799D01*
X171497D01*
X172497Y18799D01*
Y19799D01*
X171497Y20798D01*
X168498D01*
X247198Y120800D02*
X241200D01*
Y117801D01*
X242200Y116801D01*
X246198D01*
X247198Y117801D01*
Y120800D01*
Y114802D02*
X243199D01*
X241200Y112803D01*
X243199Y110803D01*
X247198D01*
X241200Y108804D02*
X247198D01*
Y105805D01*
X246198Y104805D01*
X244199D01*
X243199Y105805D01*
Y108804D01*
Y106805D02*
X241200Y104805D01*
X244199Y102806D02*
Y98807D01*
X246198Y92809D02*
X247198Y93809D01*
Y95808D01*
X246198Y96808D01*
X242200D01*
X241200Y95808D01*
Y93809D01*
X242200Y92809D01*
X241200Y90810D02*
Y88810D01*
Y89810D01*
X247198D01*
X246198Y90810D01*
X71399Y121998D02*
X70399Y122998D01*
X68400D01*
X67400Y121998D01*
Y118000D01*
X68400Y117000D01*
X70399D01*
X71399Y118000D01*
X77397Y122998D02*
X73398D01*
Y119999D01*
X75397Y120999D01*
X76397D01*
X77397Y119999D01*
Y118000D01*
X76397Y117000D01*
X74398D01*
X73398Y118000D01*
X102000Y111098D02*
Y105100D01*
X104999D01*
X105999Y106100D01*
Y110098D01*
X104999Y111098D01*
X102000D01*
X107998D02*
Y107099D01*
X109997Y105100D01*
X111997Y107099D01*
Y111098D01*
X113996Y105100D02*
Y111098D01*
X116995D01*
X117995Y110098D01*
Y108099D01*
X116995Y107099D01*
X113996D01*
X115996D02*
X117995Y105100D01*
X119994Y108099D02*
X123993D01*
X129991Y110098D02*
X128991Y111098D01*
X126992D01*
X125992Y110098D01*
Y106100D01*
X126992Y105100D01*
X128991D01*
X129991Y106100D01*
X135989Y105100D02*
X131990D01*
X135989Y109099D01*
Y110098D01*
X134989Y111098D01*
X132990D01*
X131990Y110098D01*
X83999Y122298D02*
X82999Y123298D01*
X81000D01*
X80000Y122298D01*
Y118300D01*
X81000Y117300D01*
X82999D01*
X83999Y118300D01*
X88997Y117300D02*
Y123298D01*
X85998Y120299D01*
X89997D01*
X185600Y23998D02*
Y18000D01*
X188599D01*
X189599Y19000D01*
Y22998D01*
X188599Y23998D01*
X185600D01*
X191598D02*
Y19999D01*
X193597Y18000D01*
X195597Y19999D01*
Y23998D01*
X197596Y18000D02*
Y23998D01*
X200595D01*
X201595Y22998D01*
Y20999D01*
X200595Y19999D01*
X197596D01*
X199595D02*
X201595Y18000D01*
X203594Y20999D02*
X207593D01*
X213591Y22998D02*
X212591Y23998D01*
X210592D01*
X209592Y22998D01*
Y19000D01*
X210592Y18000D01*
X212591D01*
X213591Y19000D01*
X219589Y23998D02*
X215590D01*
Y20999D01*
X217590Y21999D01*
X218589D01*
X219589Y20999D01*
Y19000D01*
X218589Y18000D01*
X216590D01*
X215590Y19000D01*
X134799Y118898D02*
X133799Y119898D01*
X131800D01*
X130800Y118898D01*
Y114900D01*
X131800Y113900D01*
X133799D01*
X134799Y114900D01*
X136798Y118898D02*
X137798Y119898D01*
X139797D01*
X140797Y118898D01*
Y117899D01*
X139797Y116899D01*
X138797D01*
X139797D01*
X140797Y115899D01*
Y114900D01*
X139797Y113900D01*
X137798D01*
X136798Y114900D01*
X191100Y144998D02*
Y139000D01*
X194099D01*
X195099Y140000D01*
Y143998D01*
X194099Y144998D01*
X191100D01*
X197098D02*
Y140999D01*
X199097Y139000D01*
X201097Y140999D01*
Y144998D01*
X203096Y139000D02*
Y144998D01*
X206095D01*
X207095Y143998D01*
Y141999D01*
X206095Y140999D01*
X203096D01*
X205096D02*
X207095Y139000D01*
X209094Y141999D02*
X213093D01*
X219091Y143998D02*
X218091Y144998D01*
X216092D01*
X215092Y143998D01*
Y140000D01*
X216092Y139000D01*
X218091D01*
X219091Y140000D01*
X224089Y139000D02*
Y144998D01*
X221090Y141999D01*
X225089D01*
X168299Y117698D02*
X167299Y118698D01*
X165300D01*
X164300Y117698D01*
Y113700D01*
X165300Y112700D01*
X167299D01*
X168299Y113700D01*
X174297Y112700D02*
X170298D01*
X174297Y116699D01*
Y117698D01*
X173297Y118698D01*
X171298D01*
X170298Y117698D01*
X199000Y171398D02*
Y165400D01*
X201999D01*
X202999Y166400D01*
Y170398D01*
X201999Y171398D01*
X199000D01*
X204998D02*
Y167399D01*
X206997Y165400D01*
X208997Y167399D01*
Y171398D01*
X210996Y165400D02*
Y171398D01*
X213995D01*
X214995Y170398D01*
Y168399D01*
X213995Y167399D01*
X210996D01*
X212996D02*
X214995Y165400D01*
X216994Y168399D02*
X220993D01*
X226991Y170398D02*
X225991Y171398D01*
X223992D01*
X222992Y170398D01*
Y166400D01*
X223992Y165400D01*
X225991D01*
X226991Y166400D01*
X228990Y170398D02*
X229990Y171398D01*
X231989D01*
X232989Y170398D01*
Y169399D01*
X231989Y168399D01*
X230990D01*
X231989D01*
X232989Y167399D01*
Y166400D01*
X231989Y165400D01*
X229990D01*
X228990Y166400D01*
X141599Y23098D02*
X140599Y24098D01*
X138600D01*
X137600Y23098D01*
Y19100D01*
X138600Y18100D01*
X140599D01*
X141599Y19100D01*
X143598Y18100D02*
X145597D01*
X144598D01*
Y24098D01*
X143598Y23098D01*
X117899Y102449D02*
X116899Y103448D01*
X114900D01*
X113900Y102449D01*
Y98450D01*
X114900Y97450D01*
X116899D01*
X117899Y98450D01*
X119898Y97450D02*
X121897D01*
X120898D01*
Y103448D01*
X119898Y102449D01*
X189998Y76100D02*
X184000D01*
Y73101D01*
X185000Y72101D01*
X185999D01*
X186999Y73101D01*
Y76100D01*
Y73101D01*
X187999Y72101D01*
X188998D01*
X189998Y73101D01*
Y76100D01*
X184000Y70102D02*
Y68103D01*
Y69102D01*
X189998D01*
Y70102D01*
X187999Y65104D02*
X185000D01*
X184000Y64104D01*
Y61105D01*
X187999D01*
X184000Y56107D02*
Y58106D01*
X185000Y59105D01*
X186999D01*
X187999Y58106D01*
Y56107D01*
X186999Y55107D01*
X185999D01*
Y59105D01*
X189998Y47109D02*
X184000D01*
Y43111D01*
X189998Y37113D02*
Y41111D01*
X184000D01*
Y37113D01*
X186999Y41111D02*
Y39112D01*
X189998Y35113D02*
X184000D01*
Y32114D01*
X185000Y31115D01*
X188998D01*
X189998Y32114D01*
Y35113D01*
X268Y106474D02*
Y100476D01*
X3268D01*
X4267Y101475D01*
Y102475D01*
X3268Y103475D01*
X268D01*
X3268D01*
X4267Y104474D01*
Y105474D01*
X3268Y106474D01*
X268D01*
X7266Y104474D02*
X9266D01*
X10265Y103475D01*
Y100476D01*
X7266D01*
X6267Y101475D01*
X7266Y102475D01*
X10265D01*
X13264Y105474D02*
Y104474D01*
X12265D01*
X14264D01*
X13264D01*
Y101475D01*
X14264Y100476D01*
M02*
