G04*
G04 #@! TF.GenerationSoftware,Altium Limited,Altium Designer,19.1.5 (86)*
G04*
G04 Layer_Color=16711935*
%FSLAX25Y25*%
%MOIN*%
G70*
G01*
G75*
%ADD43O,0.06737X0.12674*%
%ADD44C,0.07217*%
%ADD45R,0.10839X0.10839*%
%ADD46C,0.10839*%
%ADD47R,0.08083X0.08083*%
%ADD48C,0.08083*%
%ADD49O,0.07887X0.04343*%
%ADD50C,0.02769*%
%ADD51C,0.06800*%
%ADD52C,0.05800*%
D43*
X52321Y89867D02*
D03*
X42479D02*
D03*
D44*
X163705Y137207D02*
D03*
X101342D02*
D03*
D45*
X171500Y153900D02*
D03*
D46*
X155909D02*
D03*
X140319D02*
D03*
X124728D02*
D03*
X109138D02*
D03*
X93547D02*
D03*
D47*
X28800Y171500D02*
D03*
D48*
X48800D02*
D03*
D49*
X6268Y69708D02*
D03*
Y95692D02*
D03*
D50*
Y69708D02*
D03*
Y95692D02*
D03*
X108335Y56435D02*
D03*
Y60765D02*
D03*
X112665Y56435D02*
D03*
Y60765D02*
D03*
D51*
X8200Y170200D02*
D03*
X248800Y170100D02*
D03*
X6800Y8100D02*
D03*
X248600Y7900D02*
D03*
D52*
X95900Y63900D02*
D03*
X78800Y82300D02*
D03*
X183600Y13400D02*
D03*
X229500Y37000D02*
D03*
X19900Y61800D02*
D03*
X198100Y125700D02*
D03*
X217600Y125800D02*
D03*
X150000Y32600D02*
D03*
X124000Y66600D02*
D03*
X168000Y30100D02*
D03*
X160000D02*
D03*
X101500Y81600D02*
D03*
X108500Y72100D02*
D03*
X125000Y55100D02*
D03*
Y48600D02*
D03*
X108000Y39600D02*
D03*
X115500D02*
D03*
M02*
