G04*
G04 #@! TF.GenerationSoftware,Altium Limited,Altium Designer,19.1.5 (86)*
G04*
G04 Layer_Color=8421504*
%FSLAX25Y25*%
%MOIN*%
G70*
G01*
G75*
%ADD15R,0.07284X0.12992*%
%ADD16R,0.03937X0.03937*%
%ADD17R,0.03937X0.03937*%
%ADD18R,0.03937X0.03543*%
%ADD19R,0.03543X0.03937*%
%ADD20R,0.10827X0.10827*%
%ADD21O,0.03150X0.00984*%
%ADD22O,0.00984X0.03150*%
%ADD23R,0.07480X0.07480*%
%ADD24R,0.05512X0.06299*%
%ADD25R,0.05315X0.01575*%
%ADD26R,0.04724X0.01968*%
%ADD27R,0.01968X0.04724*%
%ADD28R,0.04331X0.03858*%
D15*
X75500Y58600D02*
D03*
X66248D02*
D03*
D16*
X145500Y110350D02*
D03*
Y116650D02*
D03*
X160100Y110150D02*
D03*
Y116450D02*
D03*
X117900Y86950D02*
D03*
Y93250D02*
D03*
X107000Y100250D02*
D03*
Y93950D02*
D03*
X85000Y112450D02*
D03*
Y106150D02*
D03*
X72400Y112150D02*
D03*
Y105850D02*
D03*
X207300Y131950D02*
D03*
Y125650D02*
D03*
X237500Y107450D02*
D03*
Y101150D02*
D03*
X207000Y101100D02*
D03*
Y107399D02*
D03*
X222200Y101150D02*
D03*
Y107450D02*
D03*
X196900Y7250D02*
D03*
Y13550D02*
D03*
X167500Y13299D02*
D03*
Y7000D02*
D03*
X141600Y7450D02*
D03*
Y13750D02*
D03*
X178500Y49950D02*
D03*
Y56250D02*
D03*
D17*
X216650Y160300D02*
D03*
X222950D02*
D03*
X98150Y115900D02*
D03*
X104450D02*
D03*
D18*
X227300Y125753D02*
D03*
Y132447D02*
D03*
X204500Y42593D02*
D03*
Y35900D02*
D03*
X205000Y76793D02*
D03*
Y70100D02*
D03*
X241300Y78354D02*
D03*
Y85046D02*
D03*
X94000Y41447D02*
D03*
Y34754D02*
D03*
X178500Y81946D02*
D03*
Y75253D02*
D03*
D19*
X215253Y36200D02*
D03*
X221947D02*
D03*
X29553Y48500D02*
D03*
X36246D02*
D03*
X122153Y26100D02*
D03*
X128847D02*
D03*
D20*
X110500Y58600D02*
D03*
D21*
X118276Y62537D02*
D03*
Y60568D02*
D03*
Y58600D02*
D03*
Y56631D02*
D03*
Y54663D02*
D03*
X102724D02*
D03*
Y56631D02*
D03*
Y58600D02*
D03*
Y60568D02*
D03*
Y62537D02*
D03*
D22*
X114437Y50824D02*
D03*
X112469D02*
D03*
X110500D02*
D03*
X108531D02*
D03*
X106563D02*
D03*
Y66376D02*
D03*
X108531D02*
D03*
X110500D02*
D03*
X112469D02*
D03*
X114437D02*
D03*
D23*
X6268Y77976D02*
D03*
Y87424D02*
D03*
D24*
X15914Y70102D02*
D03*
Y95298D02*
D03*
D25*
X16800Y77582D02*
D03*
Y80141D02*
D03*
Y82700D02*
D03*
Y85259D02*
D03*
Y87818D02*
D03*
D26*
X166732Y68470D02*
D03*
Y65793D02*
D03*
Y63116D02*
D03*
Y60439D02*
D03*
Y57761D02*
D03*
Y55084D02*
D03*
Y52407D02*
D03*
Y49730D02*
D03*
X133268D02*
D03*
Y52407D02*
D03*
Y55084D02*
D03*
Y57761D02*
D03*
Y60439D02*
D03*
Y63116D02*
D03*
Y65793D02*
D03*
Y68470D02*
D03*
D27*
X159370Y42368D02*
D03*
X156693D02*
D03*
X154016D02*
D03*
X151339D02*
D03*
X148661D02*
D03*
X145984D02*
D03*
X143307D02*
D03*
X140630D02*
D03*
Y75832D02*
D03*
X143307D02*
D03*
X145984D02*
D03*
X148661D02*
D03*
X151339D02*
D03*
X154016D02*
D03*
X156693D02*
D03*
X159370D02*
D03*
D28*
X144169Y86753D02*
D03*
X152831D02*
D03*
Y93446D02*
D03*
X144169D02*
D03*
M02*
