G04*
G04 #@! TF.GenerationSoftware,Altium Limited,Altium Designer,19.1.5 (86)*
G04*
G04 Layer_Physical_Order=2*
G04 Layer_Color=16711680*
%FSLAX25Y25*%
%MOIN*%
G70*
G01*
G75*
%ADD53C,0.00800*%
%ADD54O,0.05937X0.11874*%
%ADD55C,0.06417*%
%ADD56R,0.10039X0.10039*%
%ADD57C,0.10039*%
%ADD58R,0.07284X0.07284*%
%ADD59C,0.07284*%
%ADD60O,0.07087X0.03543*%
%ADD61C,0.01968*%
%ADD62C,0.06000*%
%ADD63C,0.05000*%
D53*
X78800Y82300D02*
X95900Y63900D01*
X195700Y9500D02*
X223200Y37000D01*
X72200Y9500D02*
X195700D01*
X19900Y61800D02*
X72200Y9500D01*
X130400Y33200D02*
X150200Y13400D01*
X183600D01*
X130400Y33200D02*
Y42715D01*
X125000Y48115D02*
X130400Y42715D01*
X125000Y48115D02*
Y48600D01*
X124000Y66600D02*
Y126000D01*
X102718Y147282D02*
X124000Y126000D01*
X102718Y147282D02*
Y159118D01*
X103920Y160320D01*
X183080D01*
X217600Y125800D01*
X223200Y37000D02*
X229500D01*
X19873Y61600D02*
Y89473D01*
X168000Y30100D02*
Y110628D01*
X124728Y153900D02*
X168000Y110628D01*
X160000Y30100D02*
Y103038D01*
X109138Y153900D02*
X160000Y103038D01*
X108500Y72100D02*
Y80115D01*
X91315Y97300D02*
X108500Y80115D01*
X27700Y97300D02*
X91315D01*
X19873Y89473D02*
X27700Y97300D01*
X171000Y26100D02*
X198100Y53200D01*
Y125700D01*
X42079Y84565D02*
X93043Y33600D01*
X42079Y84565D02*
Y87533D01*
X51821Y84865D02*
X96786Y39900D01*
X51821Y84865D02*
Y87833D01*
X150000Y32600D02*
Y33100D01*
X136156Y46944D02*
X150000Y33100D01*
X136156Y46944D02*
Y55944D01*
X134356Y40729D02*
X148985Y26100D01*
X134356Y40729D02*
Y45744D01*
X148985Y26100D02*
X171000D01*
X125000Y55100D02*
X134356Y45744D01*
X101500Y67600D02*
X105950Y63150D01*
X121935D01*
X122385Y62700D02*
Y62700D01*
X121935Y63150D02*
X122385Y62700D01*
Y62700D02*
X125242Y59842D01*
X132258D01*
X136156Y55944D01*
X101500Y67600D02*
Y81600D01*
X93043Y33600D02*
X109500D01*
X115500Y39600D01*
X96886D02*
X108000D01*
D54*
X52321Y89867D02*
D03*
X42479D02*
D03*
D55*
X163705Y137207D02*
D03*
X101342D02*
D03*
D56*
X171500Y153900D02*
D03*
D57*
X155909D02*
D03*
X140319D02*
D03*
X124728D02*
D03*
X109138D02*
D03*
X93547D02*
D03*
D58*
X28800Y171500D02*
D03*
D59*
X48800D02*
D03*
D60*
X6268Y69708D02*
D03*
Y95692D02*
D03*
D61*
Y69708D02*
D03*
Y95692D02*
D03*
X108335Y56435D02*
D03*
Y60765D02*
D03*
X112665Y56435D02*
D03*
Y60765D02*
D03*
D62*
X8200Y170200D02*
D03*
X248800Y170100D02*
D03*
X6800Y8100D02*
D03*
X248600Y7900D02*
D03*
D63*
X95900Y63900D02*
D03*
X78800Y82300D02*
D03*
X183600Y13400D02*
D03*
X229500Y37000D02*
D03*
X19900Y61800D02*
D03*
X198100Y125700D02*
D03*
X217600Y125800D02*
D03*
X150000Y32600D02*
D03*
X124000Y66600D02*
D03*
X168000Y30100D02*
D03*
X160000D02*
D03*
X101500Y81600D02*
D03*
X108500Y72100D02*
D03*
X125000Y55100D02*
D03*
Y48600D02*
D03*
X108000Y39600D02*
D03*
X115500D02*
D03*
M02*
