G04*
G04 #@! TF.GenerationSoftware,Altium Limited,Altium Designer,19.1.5 (86)*
G04*
G04 Layer_Color=16711935*
%FSLAX25Y25*%
%MOIN*%
G70*
G01*
G75*
%ADD13C,0.00500*%
%ADD66C,0.00394*%
%ADD67C,0.00200*%
D13*
X142201Y95021D02*
X154799D01*
Y85179D02*
Y95021D01*
X142201Y85179D02*
X154799D01*
X142201D02*
Y95021D01*
X154799D01*
Y85179D02*
Y95021D01*
X142201Y85179D02*
X154799D01*
X142201D02*
Y95021D01*
X159433Y112834D02*
X159100Y112500D01*
Y111834D01*
X159433Y111501D01*
X160766D01*
X161100Y111834D01*
Y112500D01*
X160766Y112834D01*
X161100Y114833D02*
Y113500D01*
X159767Y114833D01*
X159433D01*
X159100Y114500D01*
Y113833D01*
X159433Y113500D01*
X208168Y134268D02*
X206169D01*
Y133268D01*
X206502Y132935D01*
X207835D01*
X208168Y133268D01*
Y134268D01*
Y132269D02*
X206835D01*
X206169Y131602D01*
X206835Y130936D01*
X208168D01*
X206169Y130269D02*
X208168D01*
Y129270D01*
X207835Y128937D01*
X207169D01*
X206835Y129270D01*
Y130269D01*
Y129603D02*
X206169Y128937D01*
X207169Y128270D02*
Y126937D01*
X207835Y124938D02*
X208168Y125271D01*
Y125937D01*
X207835Y126271D01*
X206502D01*
X206169Y125937D01*
Y125271D01*
X206502Y124938D01*
X206169Y123272D02*
X208168D01*
X207169Y124271D01*
Y122938D01*
X144834Y113034D02*
X144500Y112700D01*
Y112034D01*
X144834Y111701D01*
X146167D01*
X146500Y112034D01*
Y112700D01*
X146167Y113034D01*
X144834Y113700D02*
X144500Y114033D01*
Y114700D01*
X144834Y115033D01*
X145167D01*
X145500Y114700D01*
Y114366D01*
Y114700D01*
X145833Y115033D01*
X146167D01*
X146500Y114700D01*
Y114033D01*
X146167Y113700D01*
X221534Y103834D02*
X221200Y103500D01*
Y102834D01*
X221534Y102501D01*
X222866D01*
X223200Y102834D01*
Y103500D01*
X222866Y103834D01*
Y104500D02*
X223200Y104833D01*
Y105500D01*
X222866Y105833D01*
X221534D01*
X221200Y105500D01*
Y104833D01*
X221534Y104500D01*
X221867D01*
X222200Y104833D01*
Y105833D01*
X238468Y110035D02*
X236469D01*
Y109035D01*
X236802Y108702D01*
X238135D01*
X238468Y109035D01*
Y110035D01*
Y108036D02*
X237135D01*
X236469Y107369D01*
X237135Y106703D01*
X238468D01*
X236469Y106036D02*
X238468D01*
Y105036D01*
X238135Y104703D01*
X237469D01*
X237135Y105036D01*
Y106036D01*
Y105370D02*
X236469Y104703D01*
X237469Y104037D02*
Y102704D01*
X238135Y100705D02*
X238468Y101038D01*
Y101704D01*
X238135Y102037D01*
X236802D01*
X236469Y101704D01*
Y101038D01*
X236802Y100705D01*
X236469Y100038D02*
Y99372D01*
Y99705D01*
X238468D01*
X238135Y100038D01*
X85666Y109766D02*
X86000Y110100D01*
Y110766D01*
X85666Y111099D01*
X84334D01*
X84000Y110766D01*
Y110100D01*
X84334Y109766D01*
X84000Y108100D02*
X86000D01*
X85000Y109100D01*
Y107767D01*
X206334Y103783D02*
X206000Y103450D01*
Y102784D01*
X206334Y102450D01*
X207666D01*
X208000Y102784D01*
Y103450D01*
X207666Y103783D01*
X206334Y104450D02*
X206000Y104783D01*
Y105449D01*
X206334Y105783D01*
X206667D01*
X207000Y105449D01*
X207333Y105783D01*
X207666D01*
X208000Y105449D01*
Y104783D01*
X207666Y104450D01*
X207333D01*
X207000Y104783D01*
X206667Y104450D01*
X206334D01*
X207000Y104783D02*
Y105449D01*
X73066Y109466D02*
X73400Y109800D01*
Y110466D01*
X73066Y110799D01*
X71734D01*
X71400Y110466D01*
Y109800D01*
X71734Y109466D01*
X73400Y107467D02*
Y108800D01*
X72400D01*
X72733Y108133D01*
Y107800D01*
X72400Y107467D01*
X71734D01*
X71400Y107800D01*
Y108467D01*
X71734Y108800D01*
X168166Y10616D02*
X168500Y10949D01*
Y11616D01*
X168166Y11949D01*
X166833D01*
X166500Y11616D01*
Y10949D01*
X166833Y10616D01*
X168500Y8617D02*
X168166Y9283D01*
X167500Y9950D01*
X166833D01*
X166500Y9616D01*
Y8950D01*
X166833Y8617D01*
X167167D01*
X167500Y8950D01*
Y9950D01*
X140934Y10467D02*
X140600Y10134D01*
Y9467D01*
X140934Y9134D01*
X142266D01*
X142600Y9467D01*
Y10134D01*
X142266Y10467D01*
X142600Y11133D02*
Y11800D01*
Y11467D01*
X140600D01*
X140934Y11133D01*
X107968Y102668D02*
X105969D01*
Y101668D01*
X106302Y101335D01*
X107635D01*
X107968Y101668D01*
Y102668D01*
Y100669D02*
X106635D01*
X105969Y100002D01*
X106635Y99336D01*
X107968D01*
X105969Y98669D02*
X107968D01*
Y97670D01*
X107635Y97337D01*
X106968D01*
X106635Y97670D01*
Y98669D01*
Y98003D02*
X105969Y97337D01*
X106968Y96670D02*
Y95337D01*
X107635Y93338D02*
X107968Y93671D01*
Y94337D01*
X107635Y94671D01*
X106302D01*
X105969Y94337D01*
Y93671D01*
X106302Y93338D01*
X105969Y91338D02*
Y92671D01*
X107302Y91338D01*
X107635D01*
X107968Y91672D01*
Y92338D01*
X107635Y92671D01*
X117234Y89967D02*
X116900Y89634D01*
Y88967D01*
X117234Y88634D01*
X118567D01*
X118900Y88967D01*
Y89634D01*
X118567Y89967D01*
X118900Y90633D02*
Y91300D01*
Y90966D01*
X116900D01*
X117234Y90633D01*
X100834Y116567D02*
X100500Y116900D01*
X99834D01*
X99501Y116567D01*
Y115234D01*
X99834Y114900D01*
X100500D01*
X100834Y115234D01*
X101500Y116900D02*
X102833D01*
Y116567D01*
X101500Y115234D01*
Y114900D01*
X195732Y4832D02*
X197731D01*
Y5832D01*
X197398Y6165D01*
X196065D01*
X195732Y5832D01*
Y4832D01*
Y6831D02*
X197065D01*
X197731Y7498D01*
X197065Y8164D01*
X195732D01*
X197731Y8831D02*
X195732D01*
Y9830D01*
X196065Y10164D01*
X196731D01*
X197065Y9830D01*
Y8831D01*
Y9497D02*
X197731Y10164D01*
X196731Y10830D02*
Y12163D01*
X196065Y14162D02*
X195732Y13829D01*
Y13163D01*
X196065Y12829D01*
X197398D01*
X197731Y13163D01*
Y13829D01*
X197398Y14162D01*
X195732Y16162D02*
Y14829D01*
X196731D01*
X196398Y15495D01*
Y15828D01*
X196731Y16162D01*
X197398D01*
X197731Y15828D01*
Y15162D01*
X197398Y14829D01*
X214002Y161300D02*
Y159300D01*
X215002D01*
X215335Y159634D01*
Y160967D01*
X215002Y161300D01*
X214002D01*
X216001D02*
Y159967D01*
X216668Y159300D01*
X217334Y159967D01*
Y161300D01*
X218001Y159300D02*
Y161300D01*
X219000D01*
X219334Y160967D01*
Y160300D01*
X219000Y159967D01*
X218001D01*
X218667D02*
X219334Y159300D01*
X220000Y160300D02*
X221333D01*
X223332Y160967D02*
X222999Y161300D01*
X222333D01*
X221999Y160967D01*
Y159634D01*
X222333Y159300D01*
X222999D01*
X223332Y159634D01*
X223999Y160967D02*
X224332Y161300D01*
X224998D01*
X225332Y160967D01*
Y160633D01*
X224998Y160300D01*
X224665D01*
X224998D01*
X225332Y159967D01*
Y159634D01*
X224998Y159300D01*
X224332D01*
X223999Y159634D01*
D66*
X117095Y63226D02*
G03*
X117095Y63226I-1969J0D01*
G01*
X162205Y69336D02*
G03*
X162205Y69336I-1969J0D01*
G01*
X76780Y52694D02*
Y64505D01*
X64969Y52694D02*
Y64505D01*
Y52694D02*
X76780D01*
X64969Y64505D02*
X76780D01*
X143630Y110055D02*
X147370D01*
X143630Y116945D02*
X147370D01*
X143630Y110055D02*
Y116945D01*
X147370Y110055D02*
Y116945D01*
X158230Y109855D02*
X161970D01*
X158230Y116745D02*
X161970D01*
X158230Y109855D02*
Y116745D01*
X161970Y109855D02*
Y116745D01*
X116030Y86655D02*
X119770D01*
X116030Y93545D02*
X119770D01*
X116030Y86655D02*
Y93545D01*
X119770Y86655D02*
Y93545D01*
X105130Y100545D02*
X108870D01*
X105130Y93655D02*
X108870D01*
Y100545D01*
X105130Y93655D02*
Y100545D01*
X83130Y112745D02*
X86870D01*
X83130Y105855D02*
X86870D01*
Y112745D01*
X83130Y105855D02*
Y112745D01*
X70530Y112445D02*
X74270D01*
X70530Y105555D02*
X74270D01*
Y112445D01*
X70530Y105555D02*
Y112445D01*
X216355Y158430D02*
Y162170D01*
X223245Y158430D02*
Y162170D01*
X216355D02*
X223245D01*
X216355Y158430D02*
X223245D01*
X225430Y125753D02*
Y132447D01*
X229170Y125753D02*
Y132447D01*
X225430Y125753D02*
X229170D01*
X225430Y132447D02*
X229170D01*
X205430Y132245D02*
X209170D01*
X205430Y125355D02*
X209170D01*
Y132245D01*
X205430Y125355D02*
Y132245D01*
X235630Y107745D02*
X239370D01*
X235630Y100855D02*
X239370D01*
Y107745D01*
X235630Y100855D02*
Y107745D01*
X205130Y100805D02*
X208870D01*
X205130Y107694D02*
X208870D01*
X205130Y100805D02*
Y107694D01*
X208870Y100805D02*
Y107694D01*
X220330Y100855D02*
X224070D01*
X220330Y107745D02*
X224070D01*
X220330Y100855D02*
Y107745D01*
X224070Y100855D02*
Y107745D01*
X215253Y38070D02*
X221947D01*
X215253Y34330D02*
X221947D01*
X215253D02*
Y38070D01*
X221947Y34330D02*
Y38070D01*
X195030Y6955D02*
X198770D01*
X195030Y13845D02*
X198770D01*
X195030Y6955D02*
Y13845D01*
X198770Y6955D02*
Y13845D01*
X165630Y13595D02*
X169370D01*
X165630Y6705D02*
X169370D01*
Y13595D01*
X165630Y6705D02*
Y13595D01*
X139730Y7155D02*
X143470D01*
X139730Y14045D02*
X143470D01*
X139730Y7155D02*
Y14045D01*
X143470Y7155D02*
Y14045D01*
X97855Y114030D02*
Y117770D01*
X104745Y114030D02*
Y117770D01*
X97855D02*
X104745D01*
X97855Y114030D02*
X104745D01*
X29553Y50370D02*
X36246D01*
X29553Y46630D02*
X36246D01*
X29553D02*
Y50370D01*
X36246Y46630D02*
Y50370D01*
X122153Y27970D02*
X128847D01*
X122153Y24230D02*
X128847D01*
X122153D02*
Y27970D01*
X128847Y24230D02*
Y27970D01*
X102331Y50431D02*
Y66769D01*
X118669Y50431D02*
Y66769D01*
X102331Y50431D02*
X118669D01*
X102331Y66769D02*
X118669D01*
X206370Y35900D02*
Y42593D01*
X202630Y35900D02*
Y42593D01*
X206370D01*
X202630Y35900D02*
X206370D01*
X206870Y70100D02*
Y76793D01*
X203130Y70100D02*
Y76793D01*
X206870D01*
X203130Y70100D02*
X206870D01*
X239430Y78354D02*
Y85046D01*
X243170Y78354D02*
Y85046D01*
X239430Y78354D02*
X243170D01*
X239430Y85046D02*
X243170D01*
X176630Y49655D02*
X180370D01*
X176630Y56545D02*
X180370D01*
X176630Y49655D02*
Y56545D01*
X180370Y49655D02*
Y56545D01*
X95870Y34754D02*
Y41447D01*
X92130Y34754D02*
Y41447D01*
X95870D01*
X92130Y34754D02*
X95870D01*
X136221Y45320D02*
Y72879D01*
X163779Y45320D02*
Y72879D01*
X136221Y45320D02*
X163779D01*
X136221Y72879D02*
X163779D01*
X180370Y75253D02*
Y81946D01*
X176630Y75253D02*
Y81946D01*
X180370D01*
X176630Y75253D02*
X180370D01*
X177647Y45717D02*
X179615D01*
Y46701D01*
X179287Y47029D01*
X178959D01*
X178631Y46701D01*
Y45717D01*
Y46701D01*
X178304Y47029D01*
X177975D01*
X177647Y46701D01*
Y45717D01*
X179615Y47685D02*
Y48341D01*
Y48013D01*
X177647D01*
Y47685D01*
X178304Y49325D02*
X179287D01*
X179615Y49653D01*
Y50637D01*
X178304D01*
X179615Y52277D02*
Y51621D01*
X179287Y51293D01*
X178631D01*
X178304Y51621D01*
Y52277D01*
X178631Y52605D01*
X178959D01*
Y51293D01*
X177647Y55229D02*
X179615D01*
Y56541D01*
X177647Y58508D02*
Y57196D01*
X179615D01*
Y58508D01*
X178631Y57196D02*
Y57852D01*
X177647Y59164D02*
X179615D01*
Y60148D01*
X179287Y60476D01*
X177975D01*
X177647Y60148D01*
Y59164D01*
D67*
X94731Y33050D02*
X93232D01*
Y33800D01*
X93482Y34050D01*
X93981D01*
X94231Y33800D01*
Y33050D01*
Y33550D02*
X94731Y34050D01*
X93232Y37049D02*
Y36049D01*
X93981D01*
Y36549D01*
Y36049D01*
X94731D01*
X93232Y37549D02*
X94731D01*
Y38298D01*
X94481Y38548D01*
X94231D01*
X93981Y38298D01*
Y37549D01*
Y38298D01*
X93731Y38548D01*
X93482D01*
X93232Y38298D01*
Y37549D01*
X94731Y40048D02*
Y39048D01*
X93731Y40048D01*
X93482D01*
X93232Y39798D01*
Y39298D01*
X93482Y39048D01*
X94731Y40548D02*
X94481D01*
Y40798D01*
X94731D01*
Y40548D01*
X93232Y41797D02*
Y42797D01*
X93482D01*
X94481Y41797D01*
X94731D01*
X114427Y24469D02*
Y22970D01*
X113677D01*
X113427Y23219D01*
Y23719D01*
X113677Y23969D01*
X114427D01*
X113927D02*
X113427Y24469D01*
X112428D02*
X112927Y23969D01*
Y23469D01*
X112428Y22970D01*
X111678Y24469D02*
Y23469D01*
X110928D01*
X110678Y23719D01*
Y24469D01*
X109429D02*
X109928D01*
X110178Y24219D01*
Y23719D01*
X109928Y23469D01*
X109429D01*
X109179Y23719D01*
Y23969D01*
X110178D01*
X108679Y23469D02*
X107679Y24469D01*
X108179Y23969D01*
X107679Y23469D01*
X108679Y24469D01*
X106929Y23219D02*
Y23469D01*
X107179D01*
X106679D01*
X106929D01*
Y24219D01*
X106679Y24469D01*
X105930D02*
X105430Y23969D01*
Y23469D01*
X105930Y22970D01*
X179231Y77424D02*
X177732D01*
Y78174D01*
X177982Y78424D01*
X178481D01*
X178731Y78174D01*
Y77424D01*
Y77924D02*
X179231Y78424D01*
Y78923D02*
Y79423D01*
Y79173D01*
X177732D01*
X177982Y78923D01*
X37700Y49231D02*
Y47732D01*
X36950D01*
X36700Y47982D01*
Y48481D01*
X36950Y48731D01*
X37700D01*
X37200D02*
X36700Y49231D01*
X33701Y47732D02*
X34701D01*
Y48481D01*
X34201D01*
X34701D01*
Y49231D01*
X33201Y47732D02*
Y49231D01*
X32452D01*
X32202Y48981D01*
Y48731D01*
X32452Y48481D01*
X33201D01*
X32452D01*
X32202Y48232D01*
Y47982D01*
X32452Y47732D01*
X33201D01*
X30702Y49231D02*
X31702D01*
X30702Y48232D01*
Y47982D01*
X30952Y47732D01*
X31452D01*
X31702Y47982D01*
X30202Y49231D02*
Y48981D01*
X29952D01*
Y49231D01*
X30202D01*
X28953D02*
X28453D01*
X28703D01*
Y47732D01*
X28953Y47982D01*
X226569Y130526D02*
X228068D01*
Y129776D01*
X227818Y129526D01*
X227319D01*
X227069Y129776D01*
Y130526D01*
Y130026D02*
X226569Y129526D01*
Y128027D02*
Y129026D01*
X227569Y128027D01*
X227818D01*
X228068Y128277D01*
Y128777D01*
X227818Y129026D01*
X205731Y68397D02*
X204232D01*
Y69146D01*
X204482Y69396D01*
X204981D01*
X205231Y69146D01*
Y68397D01*
Y68896D02*
X205731Y69396D01*
X204232Y72395D02*
Y71396D01*
X204981D01*
Y71895D01*
Y71396D01*
X205731D01*
X204232Y72895D02*
X205731D01*
Y73645D01*
X205481Y73895D01*
X205231D01*
X204981Y73645D01*
Y72895D01*
Y73645D01*
X204731Y73895D01*
X204482D01*
X204232Y73645D01*
Y72895D01*
X205731Y75394D02*
Y74395D01*
X204731Y75394D01*
X204482D01*
X204232Y75144D01*
Y74645D01*
X204482Y74395D01*
X205731Y75894D02*
X205481D01*
Y76144D01*
X205731D01*
Y75894D01*
X204232Y78144D02*
Y77144D01*
X204981D01*
X204731Y77644D01*
Y77894D01*
X204981Y78144D01*
X205481D01*
X205731Y77894D01*
Y77394D01*
X205481Y77144D01*
X205231Y34197D02*
X203732D01*
Y34946D01*
X203982Y35196D01*
X204481D01*
X204731Y34946D01*
Y34197D01*
Y34696D02*
X205231Y35196D01*
X203732Y38195D02*
Y37196D01*
X204481D01*
Y37696D01*
Y37196D01*
X205231D01*
X203732Y38695D02*
X205231D01*
Y39445D01*
X204981Y39695D01*
X204731D01*
X204481Y39445D01*
Y38695D01*
Y39445D01*
X204232Y39695D01*
X203982D01*
X203732Y39445D01*
Y38695D01*
X205231Y41194D02*
Y40195D01*
X204232Y41194D01*
X203982D01*
X203732Y40944D01*
Y40445D01*
X203982Y40195D01*
X205231Y41694D02*
X204981D01*
Y41944D01*
X205231D01*
Y41694D01*
Y43694D02*
X203732D01*
X204481Y42944D01*
Y43944D01*
X240569Y86750D02*
X242068D01*
Y86000D01*
X241818Y85750D01*
X241319D01*
X241069Y86000D01*
Y86750D01*
Y86250D02*
X240569Y85750D01*
X242068Y82751D02*
Y83751D01*
X241319D01*
Y83251D01*
Y83751D01*
X240569D01*
X242068Y82251D02*
X240569D01*
Y81502D01*
X240819Y81252D01*
X241069D01*
X241319Y81502D01*
Y82251D01*
Y81502D01*
X241568Y81252D01*
X241818D01*
X242068Y81502D01*
Y82251D01*
X240569Y79752D02*
Y80752D01*
X241568Y79752D01*
X241818D01*
X242068Y80002D01*
Y80502D01*
X241818Y80752D01*
X240569Y79252D02*
X240819D01*
Y79002D01*
X240569D01*
Y79252D01*
X242068Y77003D02*
X241818Y77503D01*
X241319Y78003D01*
X240819D01*
X240569Y77753D01*
Y77253D01*
X240819Y77003D01*
X241069D01*
X241319Y77253D01*
Y78003D01*
X223650Y36931D02*
Y35432D01*
X222900D01*
X222650Y35682D01*
Y36181D01*
X222900Y36431D01*
X223650D01*
X223150D02*
X222650Y36931D01*
X219651Y35432D02*
X220651D01*
Y36181D01*
X220151D01*
X220651D01*
Y36931D01*
X219151Y35432D02*
Y36931D01*
X218402D01*
X218152Y36681D01*
Y36431D01*
X218402Y36181D01*
X219151D01*
X218402D01*
X218152Y35932D01*
Y35682D01*
X218402Y35432D01*
X219151D01*
X216652Y36931D02*
X217652D01*
X216652Y35932D01*
Y35682D01*
X216902Y35432D01*
X217402D01*
X217652Y35682D01*
X216152Y36931D02*
Y36681D01*
X215902D01*
Y36931D01*
X216152D01*
X214903Y35682D02*
X214653Y35432D01*
X214153D01*
X213903Y35682D01*
Y35932D01*
X214153Y36181D01*
X214403D01*
X214153D01*
X213903Y36431D01*
Y36681D01*
X214153Y36931D01*
X214653D01*
X214903Y36681D01*
M02*
