G04*
G04 #@! TF.GenerationSoftware,Altium Limited,Altium Designer,19.1.5 (86)*
G04*
G04 Layer_Color=32768*
%FSLAX25Y25*%
%MOIN*%
G70*
G01*
G75*
%ADD66C,0.00394*%
%ADD68C,0.00197*%
D66*
X68906Y58600D02*
X72843D01*
X70874Y56631D02*
Y60568D01*
X142547Y107398D02*
X148453D01*
X142547Y119602D02*
X148453D01*
X142547Y107398D02*
Y119602D01*
X148453Y107398D02*
Y119602D01*
X145500Y111630D02*
Y115370D01*
X143630Y113500D02*
X147370D01*
X157147Y107198D02*
X163053D01*
X157147Y119402D02*
X163053D01*
X157147Y107198D02*
Y119402D01*
X163053Y107198D02*
Y119402D01*
X160100Y111430D02*
Y115170D01*
X158230Y113300D02*
X161970D01*
X114947Y83998D02*
X120853D01*
X114947Y96202D02*
X120853D01*
X114947Y83998D02*
Y96202D01*
X120853Y83998D02*
Y96202D01*
X117900Y88230D02*
Y91970D01*
X116030Y90100D02*
X119770D01*
X104047Y103202D02*
X109953D01*
X104047Y90998D02*
X109953D01*
Y103202D01*
X104047Y90998D02*
Y103202D01*
X107000Y95230D02*
Y98970D01*
X105130Y97100D02*
X108870D01*
X82047Y115402D02*
X87953D01*
X82047Y103198D02*
X87953D01*
Y115402D01*
X82047Y103198D02*
Y115402D01*
X85000Y107430D02*
Y111170D01*
X83130Y109300D02*
X86870D01*
X69447Y115102D02*
X75353D01*
X69447Y102898D02*
X75353D01*
Y115102D01*
X69447Y102898D02*
Y115102D01*
X72400Y107130D02*
Y110870D01*
X70530Y109000D02*
X74270D01*
X213698Y157347D02*
Y163253D01*
X225902Y157347D02*
Y163253D01*
X213698D02*
X225902D01*
X213698Y157347D02*
X225902D01*
X217930Y160300D02*
X221670D01*
X219800Y158430D02*
Y162170D01*
X225430Y129100D02*
X229170D01*
X227300Y127230D02*
Y130970D01*
X224347Y122998D02*
Y135202D01*
X230253Y122998D02*
Y135202D01*
X224347Y122998D02*
X230253D01*
X224347Y135202D02*
X230253D01*
X204347Y134902D02*
X210253D01*
X204347Y122698D02*
X210253D01*
Y134902D01*
X204347Y122698D02*
Y134902D01*
X207300Y126930D02*
Y130670D01*
X205430Y128800D02*
X209170D01*
X234547Y110402D02*
X240453D01*
X234547Y98198D02*
X240453D01*
Y110402D01*
X234547Y98198D02*
Y110402D01*
X237500Y102430D02*
Y106170D01*
X235630Y104300D02*
X239370D01*
X204047Y98147D02*
X209953D01*
X204047Y110352D02*
X209953D01*
X204047Y98147D02*
Y110352D01*
X209953Y98147D02*
Y110352D01*
X207000Y102380D02*
Y106120D01*
X205130Y104250D02*
X208870D01*
X219247Y98198D02*
X225153D01*
X219247Y110402D02*
X225153D01*
X219247Y98198D02*
Y110402D01*
X225153Y98198D02*
Y110402D01*
X222200Y102430D02*
Y106170D01*
X220330Y104300D02*
X224070D01*
X218600Y34330D02*
Y38070D01*
X216730Y36200D02*
X220470D01*
X212498Y39153D02*
X224702D01*
X212498Y33247D02*
X224702D01*
X212498D02*
Y39153D01*
X224702Y33247D02*
Y39153D01*
X193947Y4298D02*
X199853D01*
X193947Y16502D02*
X199853D01*
X193947Y4298D02*
Y16502D01*
X199853Y4298D02*
Y16502D01*
X196900Y8530D02*
Y12270D01*
X195030Y10400D02*
X198770D01*
X164547Y16252D02*
X170453D01*
X164547Y4047D02*
X170453D01*
Y16252D01*
X164547Y4047D02*
Y16252D01*
X167500Y8280D02*
Y12020D01*
X165630Y10150D02*
X169370D01*
X138647Y4498D02*
X144553D01*
X138647Y16702D02*
X144553D01*
X138647Y4498D02*
Y16702D01*
X144553Y4498D02*
Y16702D01*
X141600Y8730D02*
Y12470D01*
X139730Y10600D02*
X143470D01*
X95198Y112947D02*
Y118853D01*
X107402Y112947D02*
Y118853D01*
X95198D02*
X107402D01*
X95198Y112947D02*
X107402D01*
X99430Y115900D02*
X103170D01*
X101300Y114030D02*
Y117770D01*
X32900Y46630D02*
Y50370D01*
X31030Y48500D02*
X34770D01*
X26798Y51453D02*
X39002D01*
X26798Y45547D02*
X39002D01*
X26798D02*
Y51453D01*
X39002Y45547D02*
Y51453D01*
X125500Y24230D02*
Y27970D01*
X123630Y26100D02*
X127370D01*
X119398Y29053D02*
X131602D01*
X119398Y23147D02*
X131602D01*
X119398D02*
Y29053D01*
X131602Y23147D02*
Y29053D01*
X108531Y58600D02*
X112469D01*
X110500Y56631D02*
Y60568D01*
X202630Y39246D02*
X206370D01*
X204500Y37376D02*
Y41116D01*
X207453Y33144D02*
Y45349D01*
X201547Y33144D02*
Y45349D01*
X207453D01*
X201547Y33144D02*
X207453D01*
X203130Y73447D02*
X206870D01*
X205000Y71576D02*
Y75317D01*
X207953Y67344D02*
Y79549D01*
X202047Y67344D02*
Y79549D01*
X207953D01*
X202047Y67344D02*
X207953D01*
X239430Y81700D02*
X243170D01*
X241300Y79830D02*
Y83570D01*
X238347Y75598D02*
Y87802D01*
X244253Y75598D02*
Y87802D01*
X238347Y75598D02*
X244253D01*
X238347Y87802D02*
X244253D01*
X175547Y46998D02*
X181453D01*
X175547Y59202D02*
X181453D01*
X175547Y46998D02*
Y59202D01*
X181453Y46998D02*
Y59202D01*
X178500Y51230D02*
Y54970D01*
X176630Y53100D02*
X180370D01*
X92130Y38100D02*
X95870D01*
X94000Y36230D02*
Y39970D01*
X96953Y31998D02*
Y44202D01*
X91047Y31998D02*
Y44202D01*
X96953D01*
X91047Y31998D02*
X96953D01*
X148031Y59100D02*
X151969D01*
X150000Y57131D02*
Y61068D01*
X176630Y78600D02*
X180370D01*
X178500Y76730D02*
Y80470D01*
X181453Y72498D02*
Y84702D01*
X175547Y72498D02*
Y84702D01*
X181453D01*
X175547Y72498D02*
X181453D01*
D68*
X80028Y51710D02*
Y65490D01*
X61721Y51710D02*
Y65490D01*
Y51710D02*
X80028D01*
X61721Y65490D02*
X80028D01*
X100165Y48265D02*
Y68935D01*
X120835Y48265D02*
Y68935D01*
X100165Y48265D02*
X120835D01*
X100165Y68935D02*
X120835D01*
X129528Y38628D02*
Y79572D01*
X170472Y38628D02*
Y79572D01*
X129528Y38628D02*
X170472D01*
X129528Y79572D02*
X170472D01*
X156217Y83761D02*
Y96439D01*
X140784Y83761D02*
X156217D01*
X140784D02*
Y96439D01*
X156217D01*
M02*
